<svg width="76" height="66" viewBox="0 0 76 66" fill="none" xmlns="http://www.w3.org/2000/svg">
<path d="M0 32.6016C0 21.1379 9.29316 11.8447 20.7569 11.8447H61.4291C68.4435 11.8447 74.5096 6.95585 76 0.101562V32.6016V65.1016C74.5096 58.2473 68.4435 53.3584 61.4291 53.3584H20.7569C9.29317 53.3584 0 44.0653 0 32.6016Z" fill="#F5F5F5"/>
<path d="M13 30.4911V42.0004C13 42.5526 13.4477 43.0004 14 43.0004H19.7647C20.317 43.0004 20.7647 42.5526 20.7647 42.0004V37.0004C20.7647 34.8562 22.5029 33.118 24.6471 33.118C26.7912 33.118 28.5294 34.8562 28.5294 37.0004V42.0004C28.5294 42.5526 28.9771 43.0004 29.5294 43.0004H36C36.5523 43.0004 37 42.5526 37 42.0004V30.4911C37 29.9173 36.7535 29.3711 36.3232 28.9915L25.6616 19.5841C25.2836 19.2506 24.7164 19.2506 24.3384 19.5841L13.6768 28.9915C13.2465 29.3711 13 29.9173 13 30.4911Z" fill="#9397B2"/>
</svg>
