<svg width="30" height="30" viewBox="0 0 30 30" fill="none" xmlns="http://www.w3.org/2000/svg">
<path d="M21.6748 26.9873L8.34851 27C5.41673 27.0027 3.01599 24.6066 3.01266 21.6748L3 8.34851C2.99734 5.41673 5.39341 3.01599 8.32519 3.01266L21.6515 3C24.5833 2.99734 26.984 5.39341 26.9873 8.32519L27 21.6515C27.0033 24.5839 24.6066 26.9847 21.6748 26.9873Z" fill="#9397B2"/>
<path d="M21.6748 26.9873L8.34851 27C5.41673 27.0027 3.01599 24.6066 3.01266 21.6748L3 8.34851C2.99734 5.41673 5.39341 3.01599 8.32519 3.01266L21.6515 3C24.5833 2.99734 26.984 5.39341 26.9873 8.32519L27 21.6515C27.0033 24.5839 24.6066 26.9847 21.6748 26.9873Z" fill="url(#paint0_radial)"/>
<path d="M15 19.5716C12.4799 19.5716 10.4286 17.521 10.4286 15.0001C10.4286 12.4793 12.4799 10.4287 15 10.4287C17.5202 10.4287 19.5714 12.4793 19.5714 15.0001C19.5714 17.521 17.5202 19.5716 15 19.5716ZM15 11.7348C13.1995 11.7348 11.7347 13.1996 11.7347 15.0001C11.7347 16.8006 13.1995 18.2654 15 18.2654C16.8005 18.2654 18.2653 16.8006 18.2653 15.0001C18.2653 13.1996 16.8005 11.7348 15 11.7348Z" fill="white"/>
<path d="M19.8571 10.9864C20.3305 10.9864 20.7143 10.6017 20.7143 10.127C20.7143 9.65236 20.3305 9.26758 19.8571 9.26758C19.3838 9.26758 19 9.65236 19 10.127C19 10.6017 19.3838 10.9864 19.8571 10.9864Z" fill="white"/>
<path d="M18.9561 23.5716H11.044C8.49958 23.5716 6.42859 21.5012 6.42859 18.9562V11.0441C6.42859 8.49904 8.49958 6.42871 11.044 6.42871H18.9561C21.5005 6.42871 23.5714 8.49904 23.5714 11.0441V18.9562C23.5714 21.5012 21.5005 23.5716 18.9561 23.5716ZM11.044 7.74739C9.22617 7.74739 7.74727 9.22629 7.74727 11.0441V18.9562C7.74727 20.774 9.22617 22.2529 11.044 22.2529H18.9561C20.7739 22.2529 22.2528 20.774 22.2528 18.9562V11.0441C22.2528 9.22629 20.7739 7.74739 18.9561 7.74739H11.044Z" fill="white"/>
<defs>
<radialGradient id="paint0_radial" cx="0" cy="0" r="1" gradientUnits="userSpaceOnUse" gradientTransform="translate(7.96118 31.8499) rotate(-49.945) scale(36.3368 24.0035)">
<stop offset="0.073" stop-color="#EACC7B"/>
<stop offset="0.184" stop-color="#ECAA59"/>
<stop offset="0.307" stop-color="#EF802E"/>
<stop offset="0.358" stop-color="#EF6D3A"/>
<stop offset="0.46" stop-color="#F04B50"/>
<stop offset="0.516" stop-color="#F03E58"/>
<stop offset="0.689" stop-color="#DB359E"/>
<stop offset="0.724" stop-color="#CE37A4"/>
<stop offset="0.789" stop-color="#AC3CB4"/>
<stop offset="0.877" stop-color="#7544CF"/>
<stop offset="0.98" stop-color="#2B4FF2"/>
</radialGradient>
</defs>
</svg>
