<svg width="76" height="66" viewBox="0 0 76 66" fill="none" xmlns="http://www.w3.org/2000/svg">
<path d="M0 32.6016C0 21.1379 9.29316 11.8447 20.7569 11.8447H61.4291C68.4435 11.8447 74.5096 6.95585 76 0.101562V0.101562V32.6016V65.1016V65.1016C74.5096 58.2473 68.4435 53.3584 61.4291 53.3584H20.7569C9.29317 53.3584 0 44.0653 0 32.6016V32.6016Z" fill="#F5F5F5"/>
<path d="M26.6205 43H22.8705C22.6205 43 22.4038 42.9167 22.2205 42.75C22.0371 42.5833 21.9288 42.375 21.8955 42.125L21.5955 39.8C21.3788 39.7167 21.1748 39.6167 20.9835 39.5C20.7915 39.3833 20.6038 39.2583 20.4205 39.125L18.2455 40.025C18.0121 40.1083 17.7788 40.1167 17.5455 40.05C17.3121 39.9833 17.1288 39.8417 16.9955 39.625L15.1455 36.4C15.0121 36.1833 14.9705 35.95 15.0205 35.7C15.0705 35.45 15.1955 35.25 15.3955 35.1L17.2705 33.675C17.2538 33.5583 17.2455 33.4457 17.2455 33.337V32.662C17.2455 32.554 17.2538 32.4417 17.2705 32.325L15.3955 30.9C15.1955 30.75 15.0705 30.55 15.0205 30.3C14.9705 30.05 15.0121 29.8167 15.1455 29.6L16.9955 26.375C17.1121 26.1417 17.2911 25.9957 17.5325 25.937C17.7745 25.879 18.0121 25.8917 18.2455 25.975L20.4205 26.875C20.6038 26.7417 20.7955 26.6167 20.9955 26.5C21.1955 26.3833 21.3955 26.2833 21.5955 26.2L21.8955 23.875C21.9288 23.625 22.0371 23.4167 22.2205 23.25C22.4038 23.0833 22.6205 23 22.8705 23H26.6205C26.8705 23 27.0871 23.0833 27.2705 23.25C27.4538 23.4167 27.5621 23.625 27.5955 23.875L27.8955 26.2C28.1121 26.2833 28.3165 26.3833 28.5085 26.5C28.6998 26.6167 28.8871 26.7417 29.0705 26.875L31.2455 25.975C31.4788 25.8917 31.7121 25.8833 31.9455 25.95C32.1788 26.0167 32.3621 26.1583 32.4955 26.375L34.3455 29.6C34.4788 29.8167 34.5205 30.05 34.4705 30.3C34.4205 30.55 34.2955 30.75 34.0955 30.9L32.2205 32.325C32.2371 32.4417 32.2455 32.554 32.2455 32.662V33.337C32.2455 33.4457 32.2288 33.5583 32.1955 33.675L34.0705 35.1C34.2705 35.25 34.3955 35.45 34.4455 35.7C34.4955 35.95 34.4538 36.1833 34.3205 36.4L32.4705 39.6C32.3371 39.8167 32.1498 39.9627 31.9085 40.038C31.6665 40.1127 31.4288 40.1083 31.1955 40.025L29.0705 39.125C28.8871 39.2583 28.6955 39.3833 28.4955 39.5C28.2955 39.6167 28.0955 39.7167 27.8955 39.8L27.5955 42.125C27.5621 42.375 27.4538 42.5833 27.2705 42.75C27.0871 42.9167 26.8705 43 26.6205 43V43ZM24.7955 36.5C25.7621 36.5 26.5871 36.1583 27.2705 35.475C27.9538 34.7917 28.2955 33.9667 28.2955 33C28.2955 32.0333 27.9538 31.2083 27.2705 30.525C26.5871 29.8417 25.7621 29.5 24.7955 29.5C23.8121 29.5 22.9828 29.8417 22.3075 30.525C21.6328 31.2083 21.2955 32.0333 21.2955 33C21.2955 33.9667 21.6328 34.7917 22.3075 35.475C22.9828 36.1583 23.8121 36.5 24.7955 36.5Z" fill="#707FDA"/>
</svg>
