<svg width="30" height="30" viewBox="0 0 30 30" fill="none" xmlns="http://www.w3.org/2000/svg">
<path d="M11.5684 15.4451C9.65745 15.4451 8.11362 16.9889 8.14186 18.8811C8.16069 20.0954 8.82905 21.1498 9.81278 21.7381C9.47859 21.2251 9.28091 20.6179 9.27149 19.9637C9.24325 18.0715 10.7871 16.5277 12.698 16.5277C13.0746 16.5277 13.437 16.5889 13.7759 16.6971V12.9081C13.4229 12.8564 13.0605 12.8281 12.698 12.8281C12.6792 12.8281 12.6651 12.8281 12.6463 12.8281V15.6146C12.3074 15.5063 11.945 15.4451 11.5684 15.4451Z" fill="#F00044"/>
<path d="M19.8289 4.08252H19.8007H18.8217C19.1041 5.49927 19.8995 6.73245 21.0103 7.57026C20.2808 6.60537 19.8383 5.40042 19.8289 4.08252Z" fill="#F00044"/>
<path d="M25.59 9.84867C25.2182 9.84867 24.8605 9.81101 24.5075 9.74512V12.4609C23.2272 12.4609 21.9846 12.2115 20.8173 11.7126C20.0642 11.3925 19.3629 10.983 18.7181 10.4888L18.7369 18.8622C18.7275 20.7449 17.9838 22.51 16.6377 23.842C15.541 24.9246 14.1525 25.6165 12.6463 25.8377C12.2933 25.8895 11.9309 25.9177 11.5685 25.9177C9.95872 25.9177 8.42431 25.3952 7.177 24.4304C7.31821 24.5998 7.46882 24.7645 7.63356 24.9246C8.98912 26.2613 10.7871 27.0003 12.7028 27.0003C13.0652 27.0003 13.4276 26.972 13.7807 26.9203C15.2868 26.699 16.6753 26.0071 17.772 24.9246C19.1182 23.5925 19.8618 21.8275 19.8713 19.9448L19.8007 11.5714C20.4408 12.0656 21.1421 12.4798 21.8999 12.7951C23.0719 13.2893 24.3145 13.5435 25.59 13.5435" fill="#F00044"/>
<path d="M7.6195 14.9128C8.96094 13.5808 10.7448 12.8418 12.6464 12.8277V11.8251C12.2934 11.7734 11.9309 11.7451 11.5685 11.7451C9.64813 11.7451 7.84543 12.4841 6.48987 13.8302C5.15784 15.1528 4.39534 16.9603 4.40005 18.8383C4.40005 20.7304 5.14843 22.5049 6.49928 23.8463C6.71579 24.0581 6.93701 24.2558 7.17235 24.4347C6.10862 23.1685 5.52968 21.587 5.52497 19.9208C5.52968 18.0428 6.28747 16.2354 7.6195 14.9128Z" fill="#08FFF9"/>
<path d="M24.5075 9.74436V8.73711H24.4981C23.1896 8.73711 21.9846 8.30408 21.015 7.56982C21.8575 8.68063 23.0907 9.47137 24.5075 9.74436Z" fill="#08FFF9"/>
<path d="M12.5052 23.2957C12.9523 23.3193 13.3806 23.2581 13.776 23.131C15.141 22.6839 16.1247 21.413 16.1247 19.9163L16.1294 14.3152V4.08257H18.8217C18.7511 3.72955 18.7134 3.37184 18.7087 3H14.9998V13.2279L14.995 18.829C14.995 20.3257 14.0113 21.5966 12.6464 22.0437C12.251 22.1755 11.8227 22.2367 11.3755 22.2085C10.806 22.1755 10.2741 22.0061 9.81287 21.7331C10.3918 22.6274 11.3802 23.2346 12.5052 23.2957Z" fill="#08FFF9"/>
<path d="M12.6464 25.8374C14.1526 25.6162 15.5411 24.9243 16.6377 23.8417C17.9839 22.5097 18.7276 20.7446 18.737 18.8619L18.7182 10.4885C19.3583 10.9827 20.0596 11.3969 20.8174 11.7123C21.9894 12.2065 23.232 12.4606 24.5075 12.4606V9.74481C23.0908 9.47181 21.8576 8.68107 21.0151 7.57026C19.9043 6.73245 19.1041 5.49927 18.8264 4.08252H16.1294V14.3104L16.1247 19.9115C16.1247 21.4083 15.141 22.6791 13.776 23.1263C13.3806 23.258 12.9523 23.3192 12.5052 23.291C11.3755 23.2298 10.3918 22.6226 9.81288 21.733C8.82916 21.1494 8.16079 20.0904 8.14196 18.876C8.11372 16.9839 9.65755 15.44 11.5685 15.44C11.9451 15.44 12.3075 15.5012 12.6464 15.6095V12.8231C10.7448 12.8372 8.96095 13.5761 7.61951 14.9082C6.28748 16.2308 5.52498 18.0382 5.52968 19.9115C5.52968 21.5777 6.10862 23.1592 7.17707 24.4253C8.42908 25.3902 9.95879 25.9127 11.5685 25.9127C11.9309 25.9174 12.2934 25.8892 12.6464 25.8374Z" fill="black"/>
</svg>
