<svg width="76" height="66" viewBox="0 0 76 66" fill="none" xmlns="http://www.w3.org/2000/svg">
<path d="M0 32.6016C0 21.1379 9.29316 11.8447 20.7569 11.8447H61.4291C68.4435 11.8447 74.5096 6.95585 76 0.101562V0.101562V32.6016V65.1016V65.1016C74.5096 58.2473 68.4435 53.3584 61.4291 53.3584H20.7569C9.29317 53.3584 0 44.0653 0 32.6016V32.6016Z" fill="#F5F5F5"/>
<g clip-path="url(#clip0_209_62471)">
<path d="M25 44.5L22 40H23.5V37H26.5V40H28L25 44.5ZM35.5 22V34H14.5V22H35.5ZM37 20.5H13V35.5H37V20.5Z" fill="#707FDA"/>
<path d="M25 23.5C26.1935 23.5 27.3381 23.9741 28.182 24.818C29.0259 25.6619 29.5 26.8065 29.5 28C29.5 29.1935 29.0259 30.3381 28.182 31.182C27.3381 32.0259 26.1935 32.5 25 32.5H32.5V31H34V25H32.5V23.5H25ZM20.5 28C20.5 26.8065 20.9741 25.6619 21.818 24.818C22.6619 23.9741 23.8065 23.5 25 23.5H17.5V25H16V31H17.5V32.5H25C23.8065 32.5 22.6619 32.0259 21.818 31.182C20.9741 30.3381 20.5 29.1935 20.5 28Z" fill="#707FDA"/>
</g>
<defs>
<clipPath id="clip0_209_62471">
<rect width="24" height="24" fill="white" transform="translate(13 20.5)"/>
</clipPath>
</defs>
</svg>
