<svg width="36" height="37" viewBox="0 0 36 37" fill="none" xmlns="http://www.w3.org/2000/svg">
<circle cx="18" cy="18.5117" r="18" fill="white"/>
<path d="M26.9077 13.9155C26.7333 12.9528 25.9023 12.2517 24.9378 12.0328C23.4946 11.7267 20.8236 11.5078 17.9337 11.5078C15.0456 11.5078 12.3318 11.7267 10.8869 12.0328C9.92414 12.2517 9.09137 12.9083 8.91695 13.9155C8.74083 15.0099 8.56641 16.542 8.56641 18.5119C8.56641 20.4818 8.74083 22.014 8.9597 23.1084C9.13583 24.0711 9.96689 24.7722 10.9296 24.9911C12.4618 25.2972 15.0883 25.516 17.9782 25.516C20.8681 25.516 23.4946 25.2972 25.0268 24.9911C25.9895 24.7722 26.8205 24.1156 26.9967 23.1084C27.1711 22.014 27.39 20.4374 27.4344 18.5119C27.3455 16.542 27.1266 15.0099 26.9077 13.9155ZM15.5705 21.5762V15.4476L20.9108 18.5119L15.5705 21.5762Z" fill="#FF5959"/>
</svg>
