<svg width="33" height="33" viewBox="0 0 33 33" fill="none" xmlns="http://www.w3.org/2000/svg">
<rect x="0.245605" y="0.5" width="32" height="32" rx="16" fill="#F6F7FC"/>
<path d="M16.2456 8.5C14.6634 8.5 13.1166 8.96919 11.801 9.84824C10.4855 10.7273 9.46007 11.9767 8.85457 13.4385C8.24907 14.9003 8.09065 16.5089 8.39933 18.0607C8.70801 19.6126 9.46993 21.038 10.5888 22.1569C11.7076 23.2757 13.133 24.0376 14.6849 24.3463C16.2367 24.655 17.8453 24.4965 19.3071 23.891C20.7689 23.2855 22.0183 22.2602 22.8974 20.9446C23.7764 19.629 24.2456 18.0822 24.2456 16.5C24.2432 14.379 23.3996 12.3456 21.8998 10.8458C20.4 9.34605 18.3666 8.50242 16.2456 8.5ZM16.2456 23.3571C14.427 23.3571 12.6828 22.6347 11.3969 21.3487C10.1109 20.0628 9.38847 18.3186 9.38847 16.5C9.38847 14.6814 10.1109 12.9372 11.3969 11.6513C12.6828 10.3653 14.427 9.64286 16.2456 9.64286V16.5L21.0919 21.3463C20.4563 21.9841 19.701 22.4901 18.8694 22.8352C18.0377 23.1803 17.146 23.3577 16.2456 23.3571Z" fill="#707FDA"/>
</svg>
