<svg width="41" height="41" viewBox="0 0 41 41" fill="none" xmlns="http://www.w3.org/2000/svg">
<rect x="0.245605" y="0.5" width="40" height="40" rx="16" fill="#F6F7FC"/>
<path d="M16.5396 22.5L14.7726 29.568C14.5856 30.314 15.5086 30.824 16.0416 30.269L28.0356 17.77C28.1375 17.664 28.2061 17.5304 28.2327 17.3858C28.2593 17.2411 28.2429 17.0919 28.1853 16.9565C28.1278 16.8212 28.0317 16.7058 27.9091 16.6246C27.7864 16.5434 27.6426 16.5001 27.4956 16.5H23.0356L24.7076 11.487C24.7451 11.3742 24.7554 11.2541 24.7374 11.1367C24.7194 11.0192 24.6738 10.9076 24.6043 10.8112C24.5347 10.7148 24.4433 10.6363 24.3374 10.5822C24.2316 10.5281 24.1144 10.4999 23.9956 10.5H16.9956C16.8326 10.5 16.6741 10.5531 16.544 10.6513C16.4139 10.7495 16.3193 10.8873 16.2746 11.044L13.2746 21.544C13.2427 21.6556 13.2372 21.7731 13.2584 21.8872C13.2796 22.0013 13.327 22.1089 13.3969 22.2016C13.4668 22.2943 13.5573 22.3695 13.6611 22.4212C13.765 22.473 13.8795 22.5 13.9956 22.5H16.5396ZM21.2846 17.013C21.247 17.1257 21.2368 17.2457 21.2547 17.3631C21.2726 17.4805 21.3182 17.592 21.3876 17.6884C21.457 17.7847 21.5483 17.8633 21.654 17.9174C21.7597 17.9716 21.8768 17.9999 21.9956 18H25.7356L16.9116 27.196L18.2276 21.932C18.2552 21.8215 18.2573 21.7061 18.2337 21.5946C18.2101 21.4832 18.1614 21.3785 18.0914 21.2887C18.0213 21.1989 17.9317 21.1262 17.8293 21.0762C17.7269 21.0261 17.6145 21.0001 17.5006 21H14.9906L17.5606 12H22.9546L21.2846 17.013Z" fill="#6A9586"/>
</svg>
