<svg width="33" height="33" viewBox="0 0 33 33" fill="none" xmlns="http://www.w3.org/2000/svg">
<rect x="0.245605" y="0.5" width="32" height="32" rx="16" fill="#F6F7FC"/>
<path d="M16.2455 11.834C11.397 11.834 9.57886 16.5007 9.57886 16.5007C9.57886 16.5007 11.397 21.1673 16.2455 21.1673C21.094 21.1673 22.9122 16.5007 22.9122 16.5007C22.9122 16.5007 21.094 11.834 16.2455 11.834ZM16.2455 13.584C17.9189 13.584 19.2758 14.8901 19.2758 16.5007C19.2758 18.1112 17.9189 19.4173 16.2455 19.4173C14.5722 19.4173 13.2152 18.1112 13.2152 16.5007C13.2152 14.8901 14.5722 13.584 16.2455 13.584ZM16.2455 14.7507C15.7633 14.7507 15.3009 14.935 14.9599 15.2632C14.6189 15.5914 14.4273 16.0365 14.4273 16.5007C14.4273 16.9648 14.6189 17.4099 14.9599 17.7381C15.3009 18.0663 15.7633 18.2507 16.2455 18.2507C16.7277 18.2507 17.1902 18.0663 17.5312 17.7381C17.8721 17.4099 18.0637 16.9648 18.0637 16.5007C18.0637 16.0365 17.8721 15.5914 17.5312 15.2632C17.1902 14.935 16.7277 14.7507 16.2455 14.7507Z" fill="#6A9586"/>
</svg>
