<svg width="30" height="30" viewBox="0 0 30 30" fill="none" xmlns="http://www.w3.org/2000/svg">
<path d="M21.6748 26.9873L8.34851 27C5.41673 27.0027 3.01599 24.6066 3.01266 21.6748L3 8.34851C2.99734 5.41673 5.39341 3.01599 8.32519 3.01266L21.6515 3C24.5833 2.99734 26.984 5.39341 26.9873 8.32519L27 21.6515C27.0033 24.5839 24.6066 26.9847 21.6748 26.9873Z" fill="#99A29C"/>
<path d="M21.6748 26.9873L8.34851 27C5.41673 27.0027 3.01599 24.6066 3.01266 21.6748L3 8.34851C2.99734 5.41673 5.39341 3.01599 8.32519 3.01266L21.6515 3C24.5833 2.99734 26.984 5.39341 26.9873 8.32519L27 21.6515C27.0033 24.5839 24.6066 26.9847 21.6748 26.9873Z" fill="#99A29C"/>
<path d="M14.9999 19.5714C12.4797 19.5714 10.4285 17.5208 10.4285 15C10.4285 12.4792 12.4797 10.4286 14.9999 10.4286C17.5201 10.4286 19.5713 12.4792 19.5713 15C19.5713 17.5208 17.5201 19.5714 14.9999 19.5714ZM14.9999 11.7347C13.1994 11.7347 11.7346 13.1995 11.7346 15C11.7346 16.8005 13.1994 18.2653 14.9999 18.2653C16.8004 18.2653 18.2652 16.8005 18.2652 15C18.2652 13.1995 16.8004 11.7347 14.9999 11.7347Z" fill="white"/>
<path d="M19.8571 10.9863C20.3305 10.9863 20.7143 10.6015 20.7143 10.1268C20.7143 9.65217 20.3305 9.2674 19.8571 9.2674C19.3838 9.2674 19 9.65217 19 10.1268C19 10.6015 19.3838 10.9863 19.8571 10.9863Z" fill="white"/>
<path d="M18.9559 23.5714H11.0439C8.49946 23.5714 6.42847 21.5011 6.42847 18.9561V11.044C6.42847 8.49892 8.49946 6.42859 11.0439 6.42859H18.9559C21.5003 6.42859 23.5713 8.49892 23.5713 11.044V18.9561C23.5713 21.5011 21.5003 23.5714 18.9559 23.5714ZM11.0439 7.74727C9.22605 7.74727 7.74715 9.22617 7.74715 11.044V18.9561C7.74715 20.7739 9.22605 22.2528 11.0439 22.2528H18.9559C20.7737 22.2528 22.2526 20.7739 22.2526 18.9561V11.044C22.2526 9.22617 20.7737 7.74727 18.9559 7.74727H11.0439Z" fill="white"/>
</svg>
