<svg width="33" height="33" viewBox="0 0 33 33" fill="none" xmlns="http://www.w3.org/2000/svg">
<rect x="0.245605" y="0.5" width="32" height="32" rx="16" fill="#F6F7FC"/>
<g clip-path="url(#clip0)">
<path d="M11.7664 10.1001C11.279 10.1001 10.9123 10.6334 10.9123 10.6334C8.12027 10.6334 9.66066 15.0899 8.8404 15.747C8.8404 15.747 9.34321 16.3688 10.9123 16.3688V16.9011C10.4787 18.0307 8.24561 17.6132 8.24561 19.7001H12.5248C12.9002 19.4729 14.1123 18.8428 14.1123 18.8428C13.8227 18.5335 13.4049 17.9986 13.2529 17.5938C12.9201 17.4269 12.6387 17.2307 12.5123 16.9011V16.3626C12.6136 16.3626 12.9124 16.3392 13.0175 16.3157C12.7796 15.9493 12.5789 15.1142 12.5789 14.6459C12.5789 13.455 13.0918 12.4754 13.9425 11.8616C13.6859 10.8797 13.1163 10.1001 11.7664 10.1001ZM20.5123 10.1001C19.3267 10.1001 18.5987 10.9157 18.4227 11.9845C19.2846 12.4463 19.8456 13.4421 19.8456 14.6959C19.8456 15.0879 19.7542 15.4651 19.655 15.7574C19.6918 15.9019 19.7123 16.0631 19.7123 16.2418C19.7123 17.5591 18.3789 18.873 18.3789 18.873C18.6685 18.9994 19.5951 19.4702 19.9737 19.7001H24.2456C24.2456 16.9001 21.972 17.7001 21.5789 16.5001V15.7001C21.756 15.611 22.1777 14.9978 22.231 14.5188C22.3697 14.5082 22.6456 14.1692 22.6456 13.8657C22.6456 13.5623 22.5491 13.4346 22.4654 13.3855C22.4654 13.3855 22.6456 12.9849 22.6456 12.5001C22.6456 11.5289 22.3832 10.6334 21.5789 10.6334C21.5789 10.6334 21.348 10.1001 20.5123 10.1001ZM16.2456 12.2334C14.8099 12.2334 13.6456 13.0982 13.6456 14.6459C13.6456 15.3003 14.0123 15.8105 14.0123 15.8105C14.0123 15.8105 13.8456 15.8924 13.8456 16.2418C13.8456 16.9207 14.2821 17.0834 14.2821 17.0834C14.3429 17.621 15.1789 18.4084 15.1789 18.4084V19.3074C14.7299 20.6546 11.9789 19.7668 11.9789 22.9001H20.5123C20.5123 19.7561 17.7613 20.6546 17.3123 19.3074V18.4084C17.3123 18.4084 18.1483 17.621 18.2091 17.0834C18.2091 17.0834 18.6456 16.782 18.6456 16.2418C18.6456 15.8674 18.4789 15.8105 18.4789 15.8105C18.4789 15.8105 18.7789 15.2399 18.7789 14.6959C18.7789 13.6053 18.2317 12.7668 17.3123 12.7668C17.3123 12.7668 16.9219 12.2334 16.2456 12.2334Z" fill="#707FDA"/>
</g>
<defs>
<clipPath id="clip0">
<rect width="16" height="16" fill="white" transform="translate(8.24561 8.5)"/>
</clipPath>
</defs>
</svg>
