<svg width="33" height="33" viewBox="0 0 33 33" fill="none" xmlns="http://www.w3.org/2000/svg">
<rect x="0.245605" y="0.5" width="32" height="32" rx="16" fill="#F6F7FC"/>
<path d="M22.6131 13.1399C22.4856 12.4361 21.8781 11.9236 21.1731 11.7636C20.1181 11.5399 18.1656 11.3799 16.0531 11.3799C13.9418 11.3799 11.9581 11.5399 10.9018 11.7636C10.1981 11.9236 9.58932 12.4036 9.46182 13.1399C9.33307 13.9399 9.20557 15.0599 9.20557 16.4999C9.20557 17.9399 9.33307 19.0599 9.49307 19.8599C9.62182 20.5636 10.2293 21.0761 10.9331 21.2361C12.0531 21.4599 13.9731 21.6199 16.0856 21.6199C18.1981 21.6199 20.1181 21.4599 21.2381 21.2361C21.9418 21.0761 22.5493 20.5961 22.6781 19.8599C22.8056 19.0599 22.9656 17.9074 22.9981 16.4999C22.9331 15.0599 22.7731 13.9399 22.6131 13.1399ZM14.3256 18.7399V14.2599L18.2293 16.4999L14.3256 18.7399Z" fill="#707FDA"/>
</svg>
