<svg width="33" height="33" viewBox="0 0 33 33" fill="none" xmlns="http://www.w3.org/2000/svg">
<rect x="0.245605" y="0.5" width="32" height="32" rx="16" fill="#F6F7FC"/>
<path d="M16.2455 11.8335C11.397 11.8335 9.57886 16.5002 9.57886 16.5002C9.57886 16.5002 11.397 21.1668 16.2455 21.1668C21.094 21.1668 22.9122 16.5002 22.9122 16.5002C22.9122 16.5002 21.094 11.8335 16.2455 11.8335ZM16.2455 13.5835C17.9189 13.5835 19.2758 14.8896 19.2758 16.5002C19.2758 18.1107 17.9189 19.4168 16.2455 19.4168C14.5722 19.4168 13.2152 18.1107 13.2152 16.5002C13.2152 14.8896 14.5722 13.5835 16.2455 13.5835ZM16.2455 14.7502C15.7633 14.7502 15.3009 14.9345 14.9599 15.2627C14.6189 15.5909 14.4273 16.036 14.4273 16.5002C14.4273 16.9643 14.6189 17.4094 14.9599 17.7376C15.3009 18.0658 15.7633 18.2502 16.2455 18.2502C16.7277 18.2502 17.1902 18.0658 17.5312 17.7376C17.8721 17.4094 18.0637 16.9643 18.0637 16.5002C18.0637 16.036 17.8721 15.5909 17.5312 15.2627C17.1902 14.9345 16.7277 14.7502 16.2455 14.7502Z" fill="#707FDA"/>
</svg>
