<svg width="349" height="196" viewBox="0 0 349 196" fill="none" xmlns="http://www.w3.org/2000/svg">
<g clip-path="url(#clip0)">
<path d="M289.236 185.927C315.47 185.927 336.738 164.66 336.738 138.425C336.738 112.19 315.47 90.9227 289.236 90.9227C263.001 90.9227 241.733 112.19 241.733 138.425C241.733 164.66 263.001 185.927 289.236 185.927Z" fill="white"/>
<path d="M289.236 186.472C279.733 186.472 270.444 183.654 262.542 178.375C254.641 173.095 248.482 165.591 244.846 156.812C241.209 148.032 240.258 138.372 242.112 129.051C243.966 119.731 248.542 111.17 255.261 104.45C264.272 95.4398 276.493 90.3777 289.236 90.3777C301.979 90.3777 314.2 95.4398 323.21 104.45C332.221 113.461 337.283 125.682 337.283 138.425C337.283 151.168 332.221 163.389 323.21 172.4C318.759 176.875 313.464 180.423 307.633 182.839C301.801 185.254 295.548 186.489 289.236 186.472ZM289.236 91.4677C263.344 91.4677 242.279 112.533 242.279 138.425C242.279 164.317 263.344 185.382 289.236 185.382C315.128 185.382 336.193 164.317 336.193 138.425C336.193 112.533 315.128 91.4677 289.236 91.4677Z" fill="#212121"/>
<path d="M289.236 109.405V138.425L315.825 153.665" fill="white"/>
<path d="M315.824 154.211C315.729 154.211 315.636 154.185 315.554 154.138L288.965 138.897C288.882 138.85 288.813 138.781 288.765 138.698C288.717 138.615 288.691 138.521 288.691 138.425V109.405C288.691 109.26 288.749 109.122 288.851 109.019C288.953 108.917 289.092 108.86 289.236 108.86C289.381 108.86 289.52 108.917 289.622 109.019C289.724 109.122 289.781 109.26 289.781 109.405V138.109L316.096 153.192C316.2 153.252 316.281 153.344 316.327 153.455C316.373 153.566 316.381 153.689 316.35 153.805C316.319 153.921 316.251 154.024 316.155 154.097C316.06 154.17 315.943 154.209 315.823 154.209L315.824 154.211Z" fill="#212121"/>
<path d="M47.9054 185.928C47.7624 185.928 47.6253 185.871 47.5241 185.77C47.423 185.669 47.3662 185.532 47.3662 185.389V87.9616C47.3662 87.8186 47.423 87.6814 47.5241 87.5803C47.6253 87.4792 47.7624 87.4223 47.9054 87.4223L191.649 87.3833C191.792 87.3833 191.929 87.4401 192.03 87.5413C192.132 87.6424 192.188 87.7796 192.188 87.9226C192.188 88.0656 192.132 88.2028 192.03 88.3039C191.929 88.405 191.792 88.4619 191.649 88.4619L48.4447 88.5009V185.389C48.4447 185.532 48.3878 185.669 48.2867 185.77C48.1856 185.871 48.0484 185.928 47.9054 185.928Z" fill="#212121"/>
<path fill-rule="evenodd" clip-rule="evenodd" d="M137.866 46.045L193.286 129.658C193.509 129.994 193.854 130.23 194.248 130.315C194.642 130.401 195.054 130.328 195.395 130.114L213.742 118.613C213.917 118.504 214.068 118.36 214.186 118.192C214.305 118.023 214.389 117.832 214.432 117.63C214.476 117.429 214.479 117.22 214.441 117.017C214.404 116.814 214.326 116.621 214.212 116.449L158.845 32.4058C158.76 32.2785 158.655 32.1653 158.535 32.0704L127.761 7.70862C127.729 7.68297 127.689 7.66819 127.648 7.6664C127.607 7.6646 127.566 7.67588 127.531 7.69862C127.497 7.72136 127.471 7.7544 127.456 7.79304C127.441 7.83168 127.439 7.87394 127.45 7.91379L137.674 45.6207C137.715 45.7715 137.78 45.9147 137.866 46.045Z" fill="white"/>
<path d="M194.57 130.943C194.218 130.942 193.872 130.855 193.562 130.687C193.253 130.52 192.989 130.278 192.796 129.983L137.376 46.3697C137.255 46.187 137.164 45.986 137.107 45.7745L126.883 8.06784C126.84 7.90837 126.848 7.73929 126.906 7.58469C126.964 7.43009 127.07 7.29788 127.208 7.20691C127.346 7.11594 127.509 7.07084 127.673 7.07807C127.838 7.08529 127.997 7.14445 128.126 7.24713L158.9 31.6095C159.069 31.7427 159.215 31.9015 159.334 32.0802L214.703 116.125C214.86 116.363 214.967 116.629 215.019 116.909C215.072 117.189 215.067 117.477 215.007 117.755C214.946 118.034 214.831 118.297 214.667 118.53C214.504 118.763 214.295 118.961 214.054 119.112L195.708 130.613C195.367 130.828 194.973 130.942 194.57 130.943ZM138.356 45.72L193.776 129.332C193.913 129.542 194.127 129.689 194.372 129.742C194.617 129.795 194.872 129.749 195.084 129.615L213.43 118.115C213.538 118.047 213.632 117.958 213.705 117.853C213.779 117.749 213.831 117.63 213.858 117.505C213.885 117.38 213.887 117.251 213.864 117.125C213.84 117 213.792 116.88 213.722 116.773L158.354 32.7297C158.304 32.6546 158.242 32.5878 158.171 32.5318L128.329 8.90836L138.242 45.4664C138.266 45.5565 138.305 45.6421 138.356 45.72Z" fill="#212121"/>
<path d="M200.194 127.384C200.096 127.384 199.999 127.359 199.913 127.313C199.827 127.266 199.754 127.198 199.7 127.116L144.393 41.9422C144.35 41.8774 144.32 41.8048 144.305 41.7285C144.291 41.6522 144.291 41.5737 144.307 41.4976C144.323 41.4215 144.354 41.3493 144.398 41.2852C144.441 41.221 144.497 41.1662 144.562 41.1239C144.628 41.0815 144.7 41.0525 144.777 41.0385C144.853 41.0245 144.931 41.0258 145.007 41.0422C145.083 41.0587 145.155 41.09 145.219 41.1344C145.282 41.1789 145.337 41.2355 145.378 41.301L200.685 126.475C200.743 126.563 200.776 126.666 200.78 126.772C200.784 126.878 200.76 126.983 200.709 127.076C200.659 127.169 200.584 127.246 200.494 127.301C200.403 127.355 200.299 127.383 200.193 127.384H200.194Z" fill="#212121"/>
<path d="M207.835 122.48C207.737 122.48 207.64 122.455 207.554 122.409C207.468 122.362 207.395 122.294 207.341 122.212L152.034 36.842C151.991 36.7772 151.962 36.7045 151.947 36.6283C151.932 36.552 151.933 36.4736 151.949 36.3975C151.965 36.3215 151.996 36.2494 152.039 36.1853C152.083 36.1212 152.139 36.0665 152.204 36.0242C152.269 35.9819 152.342 35.953 152.419 35.939C152.495 35.925 152.573 35.9263 152.649 35.9428C152.725 35.9592 152.797 35.9906 152.86 36.035C152.924 36.0793 152.978 36.1359 153.02 36.2014L208.328 121.571C208.385 121.66 208.418 121.763 208.422 121.868C208.426 121.974 208.401 122.079 208.351 122.172C208.301 122.265 208.226 122.343 208.135 122.397C208.045 122.451 207.941 122.48 207.835 122.48Z" fill="#212121"/>
<path fill-rule="evenodd" clip-rule="evenodd" d="M129.662 17.4361L135.906 13.3757L129.19 8.403C129.028 8.28286 128.832 8.21583 128.631 8.21109C128.429 8.20634 128.231 8.26411 128.063 8.37648C127.895 8.48886 127.766 8.65036 127.693 8.83891C127.621 9.02746 127.608 9.23385 127.657 9.42986L129.662 17.4361Z" fill="#212121"/>
<path d="M158.295 31.6822L137.262 45.3577L137.902 46.3445L158.935 32.6691L158.295 31.6822Z" fill="#212121"/>
<path d="M115.962 87.9221H59.667L55.316 59.2613C55.2202 58.632 55.2614 57.9894 55.4366 57.3775C55.6118 56.7656 55.9169 56.1988 56.3311 55.7161C56.7453 55.2333 57.2587 54.8459 57.8362 54.5804C58.4137 54.3149 59.0417 54.1776 59.6771 54.1779H97.5076C98.5627 54.1773 99.5831 54.5557 100.383 55.2445C101.184 55.9332 101.711 56.8867 101.87 57.9317L105.948 84.8102H113.546C114.123 84.8102 114.678 85.0246 115.106 85.4118C115.533 85.7991 115.802 86.3315 115.859 86.9059L115.962 87.9221Z" fill="white"/>
<path d="M115.962 88.4722H59.6674C59.5361 88.4721 59.4091 88.425 59.3095 88.3392C59.21 88.2534 59.1444 88.1348 59.1246 88.0047L54.7734 59.3439C54.6658 58.6365 54.712 57.9141 54.9089 57.2261C55.1058 56.5382 55.4488 55.9011 55.9143 55.3582C56.3798 54.8154 56.9569 54.3798 57.606 54.0811C58.2552 53.7824 58.9611 53.6278 59.6754 53.6277H97.5102C98.6977 53.6218 99.8475 54.0456 100.748 54.8211C101.649 55.5967 102.24 56.6719 102.412 57.849L106.419 84.2599H113.547C114.26 84.258 114.948 84.5224 115.476 85.0014C116.005 85.4804 116.337 86.1397 116.406 86.8505L116.509 87.8668C116.516 87.9433 116.508 88.0206 116.484 88.0937C116.46 88.1667 116.421 88.2339 116.37 88.291C116.318 88.348 116.255 88.3936 116.185 88.4247C116.115 88.4559 116.039 88.472 115.962 88.472V88.4722ZM60.1393 87.3719H115.355L115.313 86.9609C115.27 86.5217 115.066 86.1143 114.739 85.8183C114.412 85.5223 113.987 85.359 113.547 85.3602H105.947C105.816 85.3601 105.689 85.313 105.59 85.2273C105.49 85.1416 105.424 85.0229 105.405 84.8929L101.326 58.0144C101.192 57.098 100.732 56.261 100.031 55.6572C99.3295 55.0534 98.4344 54.7235 97.5098 54.728H59.6756C59.1194 54.728 58.5698 54.8484 58.0644 55.0809C57.559 55.3134 57.1097 55.6526 56.7473 56.0752C56.3849 56.4978 56.1179 56.9939 55.9646 57.5295C55.8113 58.0651 55.7754 58.6276 55.8592 59.1784L60.1393 87.3719Z" fill="#212121"/>
<path d="M98.4916 59.9488L102.382 83.8877H63.0676L59.2633 60.7043C59.2084 60.3694 59.2268 60.0266 59.3174 59.6996C59.4079 59.3726 59.5684 59.0692 59.7876 58.8105C60.0068 58.5518 60.2796 58.344 60.5871 58.2015C60.8945 58.059 61.2292 57.9851 61.5679 57.9851H96.1867C96.741 57.9851 97.2772 58.1827 97.6995 58.5424C98.1218 58.9022 98.4025 59.4007 98.4916 59.9488Z" fill="white"/>
<path d="M102.382 84.4378H63.0678C62.9376 84.4378 62.8117 84.3914 62.7124 84.3069C62.6132 84.2225 62.5472 84.1055 62.5261 83.9768L58.7218 60.7936C58.6539 60.38 58.6767 59.9565 58.7885 59.5526C58.9003 59.1487 59.0984 58.774 59.3692 58.4544C59.64 58.1349 59.977 57.8782 60.3567 57.7022C60.7364 57.5261 61.1498 57.435 61.5682 57.435H96.187C96.8723 57.4328 97.5357 57.676 98.0577 58.1208C98.5798 58.5655 98.926 59.1825 99.034 59.8604L102.925 83.7993C102.938 83.878 102.933 83.9585 102.912 84.0353C102.891 84.1121 102.853 84.1833 102.801 84.2441C102.75 84.3048 102.686 84.3536 102.613 84.387C102.541 84.4205 102.463 84.4378 102.383 84.4378H102.382ZM63.5334 83.3375H101.737L97.95 60.0374C97.8832 59.6175 97.6688 59.2354 97.3456 58.9599C97.0223 58.6845 96.6114 58.5339 96.187 58.5353H61.5682C61.3092 58.5353 61.0532 58.5917 60.8181 58.7007C60.583 58.8097 60.3744 58.9686 60.2067 59.1664C60.039 59.3642 59.9162 59.5962 59.847 59.8463C59.7777 60.0964 59.7635 60.3585 59.8055 60.6146L63.5334 83.3375Z" fill="#212121"/>
<path d="M227.757 185.735C227.61 185.735 227.469 185.676 227.365 185.573C227.262 185.469 227.203 185.328 227.203 185.181L227.262 117.14C227.262 116.993 227.32 116.852 227.424 116.748C227.528 116.645 227.669 116.586 227.816 116.586C227.963 116.586 228.104 116.645 228.208 116.748C228.312 116.852 228.37 116.993 228.37 117.14L228.312 185.181C228.312 185.328 228.253 185.469 228.149 185.573C228.045 185.676 227.904 185.735 227.757 185.735Z" fill="#212121"/>
<path d="M217.042 178.543H238.474C240.434 178.543 242.313 179.32 243.699 180.704C245.085 182.087 245.864 183.963 245.864 185.919H209.651C209.651 183.963 210.43 182.087 211.816 180.704C213.202 179.32 215.082 178.543 217.042 178.543Z" fill="white"/>
<path d="M245.863 186.472H209.651C209.504 186.472 209.363 186.414 209.259 186.31C209.155 186.206 209.097 186.066 209.097 185.919C209.099 183.817 209.937 181.801 211.426 180.315C212.916 178.829 214.935 177.992 217.041 177.99H238.473C240.579 177.992 242.599 178.829 244.088 180.315C245.577 181.801 246.415 183.817 246.418 185.919C246.418 186.066 246.359 186.206 246.255 186.31C246.151 186.414 246.01 186.472 245.863 186.472ZM210.227 185.366H245.287C245.146 183.659 244.367 182.066 243.105 180.905C241.843 179.744 240.19 179.098 238.473 179.096H217.041C215.325 179.098 213.672 179.744 212.41 180.905C211.148 182.066 210.369 183.659 210.227 185.366Z" fill="#212121"/>
<path d="M249.282 66.431C248.326 66.431 247.41 66.8098 246.734 67.4841C246.059 68.1584 245.679 69.073 245.679 70.0267V116.955H202.815C202.815 119.694 203.905 122.32 205.846 124.257C207.786 126.193 210.418 127.281 213.162 127.281H242.538C245.282 127.281 247.914 126.193 249.854 124.257C251.795 122.32 252.885 119.694 252.885 116.955V70.0267C252.885 69.073 252.505 68.1584 251.829 67.4841C251.154 66.8098 250.237 66.431 249.282 66.431Z" fill="white"/>
<path d="M242.538 127.835H213.161C210.271 127.831 207.501 126.684 205.457 124.645C203.413 122.605 202.264 119.84 202.261 116.955C202.261 116.809 202.319 116.668 202.423 116.564C202.527 116.46 202.668 116.402 202.815 116.402H245.124V70.0267C245.124 68.9263 245.562 67.871 246.342 67.093C247.122 66.3149 248.179 65.8778 249.281 65.8778C250.384 65.8778 251.441 66.3149 252.221 67.093C253.001 67.871 253.439 68.9263 253.439 70.0267V116.955C253.435 119.84 252.286 122.605 250.242 124.645C248.199 126.684 245.428 127.831 242.538 127.835ZM203.385 117.508C203.529 120 204.622 122.342 206.439 124.055C208.256 125.769 210.661 126.725 213.161 126.728H242.538C245.134 126.725 247.623 125.695 249.459 123.863C251.294 122.03 252.327 119.546 252.33 116.955V70.0267C252.33 69.2198 252.009 68.4459 251.437 67.8753C250.865 67.3047 250.09 66.9842 249.281 66.9842C248.473 66.9842 247.698 67.3047 247.126 67.8753C246.554 68.4459 246.233 69.2198 246.233 70.0267V116.955C246.233 117.102 246.175 117.243 246.071 117.346C245.967 117.45 245.826 117.508 245.679 117.508H203.385Z" fill="#212121"/>
<path d="M40.6452 17.9939H62.2139V45.2292H40.6452C38.3848 45.2292 36.217 44.3347 34.6186 42.7425C33.0202 41.1503 32.1222 38.9907 32.1221 36.7389V26.4846C32.1221 24.2327 33.02 22.0731 34.6184 20.4808C36.2168 18.8885 38.3847 17.9939 40.6452 17.9939Z" fill="#C7CBE0"/>
<path d="M70.8382 17.9667H55.4327C53.2107 17.9667 51.0797 18.846 49.5085 20.4112C47.9374 21.9764 47.0547 24.0992 47.0547 26.3127V36.8559C47.0547 37.952 47.2714 39.0373 47.6925 40.05C48.1136 41.0626 48.7308 41.9827 49.5088 42.7577C50.2869 43.5328 51.2105 44.1475 52.2271 44.5669C53.2436 44.9863 54.3332 45.2021 55.4334 45.202H58.1832L62.061 50.1135C62.1891 50.2755 62.3524 50.4064 62.5386 50.4964C62.7249 50.5865 62.9292 50.6332 63.1362 50.6332C63.3432 50.6332 63.5475 50.5865 63.7338 50.4964C63.92 50.4064 64.0833 50.2755 64.2114 50.1135L68.0892 45.202H70.8382C71.9385 45.202 73.0279 44.9861 74.0444 44.5667C75.0609 44.1473 75.9845 43.5325 76.7624 42.7575C77.5404 41.9825 78.1575 41.0625 78.5786 40.0498C78.9996 39.0372 79.2163 37.9519 79.2163 36.8559V26.3127C79.2163 24.0992 78.3336 21.9764 76.7624 20.4112C75.1912 18.846 73.0602 17.9667 70.8382 17.9667V17.9667Z" fill="#C7CBE0"/>
<path d="M67.9017 27.6069H43.6198C43.4738 27.6069 43.3338 27.5491 43.2306 27.4463C43.1273 27.3434 43.0693 27.204 43.0693 27.0585C43.0693 26.9131 43.1273 26.7736 43.2306 26.6708C43.3338 26.5679 43.4738 26.5102 43.6198 26.5102H67.9017C68.0477 26.5102 68.1877 26.5679 68.2909 26.6708C68.3942 26.7736 68.4521 26.9131 68.4521 27.0585C68.4521 27.204 68.3942 27.3434 68.2909 27.4463C68.1877 27.5491 68.0477 27.6069 67.9017 27.6069Z" fill="#212121"/>
<path d="M67.9017 31.6593H43.6198C43.4738 31.6593 43.3338 31.6015 43.2306 31.4987C43.1273 31.3958 43.0693 31.2564 43.0693 31.1109C43.0693 30.9655 43.1273 30.826 43.2306 30.7232C43.3338 30.6203 43.4738 30.5626 43.6198 30.5626H67.9017C68.0477 30.5626 68.1877 30.6203 68.2909 30.7232C68.3942 30.826 68.4521 30.9655 68.4521 31.1109C68.4521 31.2564 68.3942 31.3958 68.2909 31.4987C68.1877 31.6015 68.0477 31.6593 67.9017 31.6593Z" fill="#212121"/>
<path d="M67.9017 35.7117H43.6198C43.4738 35.7117 43.3338 35.6539 43.2306 35.5511C43.1273 35.4482 43.0693 35.3087 43.0693 35.1633C43.0693 35.0179 43.1273 34.8784 43.2306 34.7756C43.3338 34.6727 43.4738 34.6149 43.6198 34.6149H67.9017C68.0477 34.6149 68.1877 34.6727 68.2909 34.7756C68.3942 34.8784 68.4521 35.0179 68.4521 35.1633C68.4521 35.3087 68.3942 35.4482 68.2909 35.5511C68.1877 35.6539 68.0477 35.7117 67.9017 35.7117Z" fill="#212121"/>
<path d="M290.541 9.00386L291.558 12.3476C291.642 12.6336 291.796 12.8938 292.006 13.1046C292.216 13.3155 292.475 13.4704 292.759 13.5551L296.068 14.5768C296.121 14.5911 296.171 14.6162 296.214 14.6506C296.257 14.6849 296.293 14.7278 296.319 14.7765C296.345 14.8253 296.361 14.8789 296.365 14.934C296.37 14.9891 296.363 15.0446 296.345 15.097C296.326 15.1627 296.29 15.2225 296.241 15.2711C296.193 15.3197 296.134 15.3556 296.068 15.3756L292.759 16.3787C292.475 16.4635 292.216 16.6184 292.006 16.8292C291.796 17.0401 291.642 17.3003 291.558 17.5862L290.541 20.93C290.507 21.0344 290.434 21.1216 290.338 21.1735C290.242 21.2254 290.129 21.238 290.024 21.2086C289.958 21.1886 289.899 21.1528 289.85 21.1042C289.802 21.0556 289.766 20.9957 289.746 20.93L288.748 17.5862C288.661 17.3018 288.506 17.0431 288.297 16.8327C288.087 16.6223 287.83 16.4664 287.547 16.3787L284.219 15.3756C284.116 15.3414 284.029 15.2682 283.977 15.1714C283.926 15.0745 283.913 14.9614 283.942 14.8555C283.962 14.7897 283.998 14.7299 284.046 14.6813C284.095 14.6327 284.154 14.5968 284.219 14.5768L287.547 13.5551C287.831 13.4704 288.09 13.3155 288.3 13.1046C288.51 12.8938 288.664 12.6336 288.748 12.3476L289.746 9.00386C289.779 8.8981 289.851 8.80942 289.948 8.75721C290.045 8.70499 290.159 8.69349 290.264 8.72521C290.331 8.74226 290.392 8.77715 290.441 8.82619C290.49 8.87524 290.524 8.93662 290.541 9.00386Z" fill="#C7CBE0"/>
<path d="M289.843 36.0186C292.804 36.0186 295.204 33.6067 295.204 30.6314C295.204 27.6561 292.804 25.2442 289.843 25.2442C286.882 25.2442 284.482 27.6561 284.482 30.6314C284.482 33.6067 286.882 36.0186 289.843 36.0186Z" fill="white"/>
<path d="M289.843 36.5759C288.673 36.5759 287.529 36.2273 286.557 35.5741C285.584 34.9209 284.826 33.9925 284.378 32.9063C283.93 31.82 283.813 30.6248 284.041 29.4717C284.27 28.3186 284.833 27.2594 285.66 26.428C286.487 25.5967 287.541 25.0305 288.689 24.8011C289.836 24.5718 291.026 24.6895 292.106 25.1394C293.187 25.5893 294.111 26.3513 294.761 27.3288C295.411 28.3064 295.758 29.4557 295.758 30.6314C295.756 32.2074 295.132 33.7184 294.023 34.8328C292.915 35.9472 291.411 36.5741 289.843 36.5759ZM289.843 25.8015C288.892 25.8015 287.963 26.0848 287.173 26.6155C286.382 27.1462 285.766 27.9005 285.403 28.7831C285.039 29.6656 284.944 30.6368 285.129 31.5737C285.315 32.5106 285.772 33.3712 286.444 34.0467C287.117 34.7221 287.973 35.1821 288.905 35.3685C289.837 35.5549 290.804 35.4592 291.682 35.0937C292.56 34.7281 293.311 34.109 293.839 33.3148C294.367 32.5205 294.649 31.5867 294.649 30.6314C294.647 29.3509 294.141 28.1232 293.24 27.2177C292.339 26.3122 291.117 25.8029 289.843 25.8015Z" fill="#212121"/>
<path d="M289.843 51.4371C292.804 51.4371 295.204 49.0252 295.204 46.0499C295.204 43.0747 292.804 40.6627 289.843 40.6627C286.882 40.6627 284.482 43.0747 284.482 46.0499C284.482 49.0252 286.882 51.4371 289.843 51.4371Z" fill="white"/>
<path d="M289.843 51.9944C288.673 51.9944 287.529 51.6458 286.557 50.9926C285.584 50.3394 284.826 49.411 284.378 48.3248C283.93 47.2386 283.813 46.0433 284.041 44.8902C284.27 43.7371 284.833 42.6779 285.66 41.8465C286.487 41.0152 287.541 40.449 288.689 40.2197C289.836 39.9903 291.026 40.108 292.106 40.5579C293.187 41.0079 294.111 41.7698 294.761 42.7474C295.411 43.7249 295.758 44.8742 295.758 46.0499C295.756 47.626 295.132 49.1369 294.023 50.2513C292.915 51.3657 291.411 51.9926 289.843 51.9944ZM289.843 41.22C288.892 41.22 287.963 41.5033 287.173 42.034C286.382 42.5647 285.766 43.3191 285.403 44.2016C285.039 45.0842 284.944 46.0553 285.129 46.9922C285.315 47.9291 285.772 48.7897 286.444 49.4652C287.117 50.1407 287.973 50.6007 288.905 50.787C289.837 50.9734 290.804 50.8777 291.682 50.5122C292.56 50.1466 293.311 49.5276 293.839 48.7333C294.367 47.939 294.649 47.0052 294.649 46.0499C294.647 44.7694 294.141 43.5417 293.24 42.6363C292.339 41.7308 291.117 41.2215 289.843 41.22Z" fill="#212121"/>
<path d="M328.834 15.4389H304.805C304.657 15.4389 304.516 15.3802 304.412 15.2757C304.308 15.1712 304.25 15.0295 304.25 14.8817C304.25 14.7338 304.308 14.5921 304.412 14.4876C304.516 14.3831 304.657 14.3244 304.805 14.3244H328.834C328.982 14.3244 329.123 14.3831 329.227 14.4876C329.331 14.5921 329.389 14.7338 329.389 14.8817C329.389 15.0295 329.331 15.1712 329.227 15.2757C329.123 15.3802 328.982 15.4389 328.834 15.4389Z" fill="#212121"/>
<path d="M328.834 31.229H304.805C304.657 31.229 304.516 31.1703 304.412 31.0658C304.308 30.9613 304.25 30.8195 304.25 30.6717C304.25 30.5239 304.308 30.3822 304.412 30.2776C304.516 30.1731 304.657 30.1144 304.805 30.1144H328.834C328.982 30.1144 329.123 30.1731 329.227 30.2776C329.331 30.3822 329.389 30.5239 329.389 30.6717C329.389 30.8195 329.331 30.9613 329.227 31.0658C329.123 31.1703 328.982 31.229 328.834 31.229Z" fill="#212121"/>
<path d="M328.834 47.2048H304.805C304.657 47.2048 304.516 47.1461 304.412 47.0416C304.308 46.9371 304.25 46.7953 304.25 46.6475C304.25 46.4997 304.308 46.358 304.412 46.2535C304.516 46.149 304.657 46.0902 304.805 46.0902H328.834C328.982 46.0902 329.123 46.149 329.227 46.2535C329.331 46.358 329.389 46.4997 329.389 46.6475C329.389 46.7953 329.331 46.9371 329.227 47.0416C329.123 47.1461 328.982 47.2048 328.834 47.2048Z" fill="#212121"/>
<path d="M87.5865 185.928H57.516L50.8672 141.298H94.0626L87.5865 185.928Z" fill="white"/>
<path d="M87.5869 186.472H57.5165C57.3857 186.472 57.2592 186.425 57.1602 186.34C57.0611 186.255 56.9961 186.137 56.9768 186.008L50.3282 141.378C50.3167 141.301 50.322 141.222 50.3438 141.147C50.3656 141.072 50.4034 141.002 50.4546 140.943C50.5058 140.883 50.5692 140.836 50.6405 140.803C50.7118 140.771 50.7892 140.754 50.8676 140.754H94.063C94.1412 140.754 94.2185 140.771 94.2896 140.803C94.3607 140.836 94.424 140.883 94.4752 140.942C94.5264 141.001 94.5643 141.07 94.5862 141.145C94.6082 141.22 94.6138 141.299 94.6026 141.376L88.1267 186.006C88.1079 186.135 88.0431 186.254 87.9439 186.339C87.8448 186.425 87.718 186.472 87.5869 186.472ZM57.9872 185.383H87.1149L93.4328 141.843H51.5004L57.9872 185.383Z" fill="#212121"/>
<path d="M60.5586 141.298L65.8747 185.928H72.1203L79.5759 185.909L85.1947 141.298H60.5586Z" fill="white"/>
<path d="M65.875 186.472C65.7415 186.472 65.6126 186.423 65.5128 186.335C65.413 186.246 65.3491 186.124 65.3334 185.992L60.0165 141.362C60.0074 141.286 60.0146 141.209 60.0377 141.135C60.0607 141.062 60.0991 140.994 60.1503 140.937C60.2014 140.879 60.2642 140.833 60.3345 140.802C60.4047 140.77 60.4809 140.754 60.558 140.754H85.1941C85.2714 140.754 85.3479 140.77 85.4185 140.802C85.489 140.834 85.5519 140.88 85.6031 140.938C85.6543 140.996 85.6926 141.064 85.7154 141.138C85.7382 141.212 85.745 141.289 85.7353 141.366L80.1172 185.976C80.1007 186.108 80.0367 186.228 79.9374 186.316C79.838 186.404 79.71 186.452 79.5774 186.453L72.1211 186.472H65.875ZM66.3593 185.383H72.1202L79.0947 185.365L84.5764 141.843H61.1721L66.3593 185.383Z" fill="#212121"/>
<path d="M72.2197 141.792L72.8768 185.436L72.2197 141.792Z" fill="white"/>
<path d="M72.8761 185.98C72.7328 185.98 72.5953 185.924 72.4932 185.824C72.3912 185.723 72.3328 185.587 72.3306 185.444L71.6739 141.799C71.6728 141.727 71.6858 141.656 71.7123 141.59C71.7387 141.523 71.778 141.463 71.8278 141.411C71.8777 141.36 71.9373 141.319 72.003 141.291C72.0688 141.262 72.1395 141.247 72.2112 141.246H72.2195C72.3628 141.246 72.5003 141.302 72.6023 141.403C72.7044 141.503 72.7628 141.639 72.765 141.782L73.4219 185.427C73.4229 185.499 73.4099 185.57 73.3835 185.636C73.3571 185.703 73.3178 185.764 73.2679 185.815C73.218 185.866 73.1585 185.907 73.0927 185.936C73.027 185.964 72.9562 185.979 72.8846 185.98H72.8761Z" fill="#212121"/>
<path d="M91.7587 138.017H53.3358C50.3398 138.017 47.9111 140.441 47.9111 143.431C47.9111 146.422 50.3398 148.846 53.3358 148.846H91.7587C94.7547 148.846 97.1834 146.422 97.1834 143.431C97.1834 140.441 94.7547 138.017 91.7587 138.017Z" fill="#707FDA"/>
<path d="M91.5475 157.798H53.5479V158.887H91.5475V157.798Z" fill="#212121"/>
<path d="M89.9105 171.772H55.1836V172.861H89.9105V171.772Z" fill="#212121"/>
<path d="M210.488 37.8524C212.95 37.8524 214.946 35.857 214.946 33.3957C214.946 30.9343 212.95 28.939 210.488 28.939C208.026 28.939 206.03 30.9343 206.03 33.3957C206.03 35.857 208.026 37.8524 210.488 37.8524Z" fill="white"/>
<path d="M210.488 38.3981C209.498 38.3981 208.531 38.1047 207.708 37.555C206.885 37.0054 206.244 36.2241 205.865 35.31C205.487 34.396 205.387 33.3901 205.581 32.4198C205.774 31.4494 206.25 30.558 206.95 29.8584C207.65 29.1588 208.541 28.6824 209.512 28.4894C210.482 28.2964 211.489 28.3954 212.403 28.7741C213.317 29.1527 214.099 29.7938 214.648 30.6165C215.198 31.4391 215.492 32.4063 215.492 33.3957C215.49 34.7219 214.962 35.9934 214.024 36.9312C213.086 37.869 211.815 38.3966 210.488 38.3981ZM210.488 29.4847C209.714 29.4847 208.958 29.7141 208.315 30.1438C207.671 30.5736 207.17 31.1844 206.874 31.899C206.578 32.6137 206.5 33.4 206.651 34.1587C206.802 34.9173 207.175 35.6142 207.722 36.1612C208.269 36.7081 208.966 37.0806 209.725 37.2315C210.484 37.3824 211.27 37.305 211.985 37.009C212.7 36.7129 213.311 36.2117 213.741 35.5685C214.171 34.9254 214.4 34.1692 214.4 33.3957C214.399 32.3588 213.986 31.3647 213.253 30.6315C212.52 29.8983 211.525 29.4859 210.488 29.4847Z" fill="#212121"/>
<path fill-rule="evenodd" clip-rule="evenodd" d="M118.38 150.31C115.117 153.205 106.43 157.143 101.997 156.044C96.5524 154.71 92.1169 153.226 92.1169 153.226C90.1866 152.308 87.9922 152.108 85.9276 152.662C83.863 153.215 82.0633 154.486 80.8516 156.247L104.568 175.828L114.974 174.79L110.159 180.49L117.375 186.462L134.937 166.5" fill="white"/>
<path d="M117.375 187.007C117.248 187.007 117.125 186.963 117.027 186.882L109.811 180.91C109.756 180.864 109.71 180.808 109.676 180.744C109.642 180.68 109.622 180.61 109.615 180.538C109.609 180.466 109.617 180.394 109.639 180.325C109.66 180.256 109.696 180.193 109.742 180.138L113.688 175.467L104.622 176.371C104.551 176.378 104.478 176.371 104.409 176.35C104.34 176.329 104.276 176.295 104.221 176.249L80.504 156.668C80.3986 156.581 80.3297 156.457 80.3109 156.322C80.2921 156.187 80.3247 156.049 80.4025 155.937C81.6809 154.07 83.5835 152.72 85.7683 152.13C87.953 151.54 90.2766 151.748 92.3214 152.718C92.7228 152.851 97.0021 154.258 102.127 155.514C106.256 156.539 114.695 152.849 118.017 149.901C118.071 149.853 118.133 149.816 118.201 149.792C118.269 149.768 118.341 149.758 118.413 149.762C118.485 149.766 118.555 149.784 118.62 149.816C118.685 149.847 118.743 149.891 118.791 149.945C118.838 149.999 118.875 150.061 118.898 150.129C118.922 150.197 118.932 150.269 118.927 150.341C118.923 150.413 118.904 150.483 118.872 150.548C118.84 150.612 118.796 150.67 118.742 150.718C115.263 153.804 106.448 157.709 101.865 156.573C96.463 155.25 91.989 153.758 91.9446 153.744C91.9236 153.737 91.9032 153.728 91.8833 153.719C90.1486 152.888 88.1817 152.677 86.3101 153.12C84.4386 153.563 82.7754 154.634 81.5975 156.154L104.742 175.262L114.921 174.247C115.029 174.236 115.138 174.258 115.234 174.309C115.329 174.361 115.408 174.44 115.458 174.536C115.509 174.632 115.53 174.741 115.518 174.849C115.506 174.957 115.462 175.059 115.392 175.142L110.934 180.421L117.317 185.703L134.527 166.139C134.623 166.03 134.758 165.964 134.902 165.955C135.047 165.946 135.189 165.994 135.298 166.09C135.406 166.185 135.473 166.32 135.482 166.465C135.491 166.609 135.443 166.751 135.347 166.86L117.785 186.822C117.734 186.88 117.671 186.927 117.6 186.959C117.529 186.991 117.452 187.007 117.375 187.007Z" fill="#212121"/>
<path fill-rule="evenodd" clip-rule="evenodd" d="M188.436 169.734C187.323 173.285 185.332 176.364 182.337 177.417C176.944 179.302 175.369 182.679 175.683 187.015H202.21L207.85 178.102V187.015H216.038V169.734H188.436Z" fill="white"/>
<path d="M216.038 187.561H207.85C207.705 187.561 207.566 187.504 207.464 187.401C207.362 187.299 207.304 187.16 207.304 187.015V179.986L202.671 187.307C202.622 187.385 202.554 187.45 202.473 187.494C202.392 187.539 202.302 187.562 202.209 187.562H175.682C175.544 187.562 175.412 187.51 175.311 187.416C175.21 187.322 175.148 187.193 175.138 187.056C174.768 181.932 176.998 178.706 182.157 176.902C184.664 176.021 186.709 173.418 187.915 169.571C187.95 169.461 188.019 169.364 188.113 169.295C188.207 169.227 188.32 169.189 188.436 169.189H216.038C216.183 169.189 216.322 169.247 216.424 169.349C216.526 169.452 216.584 169.59 216.584 169.735V187.016C216.584 187.161 216.526 187.3 216.424 187.402C216.321 187.504 216.182 187.561 216.038 187.561ZM208.396 186.47H215.492V170.28H188.833C187.505 174.254 185.272 176.963 182.519 177.931C178.008 179.508 176.042 182.153 176.2 186.47H201.91L207.39 177.811C207.453 177.711 207.547 177.634 207.657 177.593C207.768 177.551 207.889 177.546 208.003 177.579C208.116 177.611 208.216 177.68 208.287 177.775C208.358 177.869 208.397 177.984 208.397 178.102L208.396 186.47Z" fill="#212121"/>
<path fill-rule="evenodd" clip-rule="evenodd" d="M130.422 84.0686C125.651 80.2849 123.111 77.2311 122.804 74.907C122.287 71.0051 122.524 68.1254 116.949 65.4255C114.433 64.2142 110.489 62.7879 111.731 60.4297C112.596 58.8107 117.282 60.2976 120.771 61.2699C116.807 57.883 111.6 53.4443 113.029 51.5632C114.458 49.6821 118.537 52.5475 123.649 56.9693C118.89 51.1377 115.575 48.7065 117.159 47.0494C118.797 45.3409 123.374 48.945 127.289 53.2545C127.947 52.9884 128.567 53.3158 129.148 54.2368C130.799 56.8491 133.529 61.8212 137.336 69.1532" fill="white"/>
<path d="M130.422 84.6141C130.299 84.6142 130.179 84.5726 130.083 84.496C125.151 80.585 122.593 77.4713 122.263 74.9787C122.212 74.5925 122.168 74.2161 122.126 73.849C121.745 70.5815 121.47 68.2207 116.711 65.9167C116.419 65.7759 116.105 65.6316 115.783 65.4832C113.818 64.578 111.593 63.5521 111.066 61.9991C110.966 61.6994 110.931 61.382 110.962 61.0678C110.994 60.7535 111.091 60.4495 111.249 60.1755C112.121 58.5416 115.232 59.175 118.55 60.0807C114.67 56.7062 111.094 53.2089 112.595 51.2332C112.763 51.0082 112.976 50.8215 113.222 50.6854C113.467 50.5494 113.739 50.4673 114.018 50.4445C115.222 50.3189 116.861 51.0211 119.297 52.7681C118.154 51.4802 117.253 50.4361 116.737 49.5666C116.478 49.1287 115.69 47.7972 116.765 46.6726C116.964 46.4697 117.203 46.3111 117.468 46.2073C117.732 46.1036 118.015 46.0571 118.299 46.0709C121.111 46.1085 125.488 50.4912 127.467 52.6395C128.076 52.536 128.856 52.7512 129.61 53.9447C131.262 56.5583 134.024 61.5904 137.821 68.901C137.888 69.0295 137.901 69.1791 137.857 69.3171C137.813 69.4551 137.717 69.5701 137.588 69.6368C137.46 69.7035 137.31 69.7165 137.172 69.6728C137.034 69.6291 136.919 69.5324 136.852 69.404C133.069 62.1205 130.322 57.1155 128.687 54.5277C128.059 53.5329 127.649 53.6979 127.495 53.7608C127.391 53.8027 127.277 53.8118 127.168 53.7869C127.059 53.762 126.961 53.7043 126.886 53.6216C123.341 49.7201 119.965 47.1847 118.284 47.1621C118.15 47.15 118.016 47.1675 117.889 47.2134C117.763 47.2592 117.649 47.3324 117.554 47.4275C116.783 48.233 117.915 49.575 120.549 52.5329C121.587 53.6993 122.764 55.0214 124.072 56.6245C124.158 56.7304 124.202 56.8646 124.194 57.0009C124.186 57.1372 124.127 57.2655 124.029 57.3606C123.931 57.4557 123.801 57.5107 123.665 57.5147C123.528 57.5187 123.395 57.4714 123.292 57.3822C120.277 54.7742 116.047 51.3309 114.132 51.5303C114.001 51.5386 113.873 51.5755 113.758 51.6383C113.642 51.7011 113.542 51.7884 113.464 51.8941C113.216 52.2215 113.12 53.1194 115.265 55.4676C116.851 57.2039 119.102 59.1265 121.088 60.8227L121.127 60.856C121.221 60.9368 121.285 61.0473 121.308 61.1694C121.331 61.2915 121.312 61.4178 121.254 61.5274C121.195 61.6371 121.101 61.7235 120.987 61.7724C120.873 61.8214 120.745 61.8298 120.625 61.7965C120.345 61.7183 120.057 61.6368 119.763 61.5538C117.16 60.8177 112.802 59.5858 112.214 60.6874C112.127 60.8302 112.072 60.99 112.052 61.156C112.032 61.3219 112.049 61.4902 112.1 61.6493C112.476 62.758 114.564 63.72 116.241 64.4927C116.569 64.6439 116.888 64.7908 117.187 64.9347C122.486 67.4996 122.822 70.3843 123.211 73.7233C123.253 74.0852 123.297 74.4559 123.347 74.8362C123.634 77.0042 126.129 79.966 130.763 83.6418C130.852 83.7122 130.916 83.8085 130.948 83.9173C130.979 84.0261 130.976 84.1421 130.939 84.2491C130.902 84.356 130.832 84.4487 130.74 84.5143C130.647 84.5799 130.537 84.6151 130.423 84.615L130.422 84.6141Z" fill="#212121"/>
<path d="M138.761 72.0594C138.673 72.0596 138.586 72.0383 138.507 71.9973C138.429 71.9564 138.362 71.897 138.312 71.8242C138.273 71.7684 138.029 71.4213 137.785 71.0742C137.539 70.7243 137.294 70.3741 137.255 70.3181C137.233 70.2874 137.215 70.2546 137.2 70.2202C136.228 67.9245 135.047 65.7511 133.904 63.6494C133.399 62.7217 132.878 61.7621 132.38 60.8029C132.007 60.0975 131.59 59.4169 131.129 58.7656C131.089 58.7063 131.06 58.6397 131.046 58.5696C131.031 58.4994 131.03 58.4271 131.044 58.3566C131.057 58.2862 131.084 58.2191 131.123 58.1592C131.163 58.0992 131.213 58.0476 131.273 58.0072C131.332 57.9669 131.399 57.9386 131.469 57.9239C131.539 57.9093 131.611 57.9087 131.682 57.922C131.752 57.9353 131.819 57.9624 131.879 58.0017C131.939 58.041 131.991 58.0917 132.031 58.1509C132.518 58.8399 132.959 59.5597 133.352 60.306C133.842 61.2497 134.361 62.2045 134.862 63.1279C136.009 65.2367 137.194 67.4167 138.182 69.7418L138.677 70.4467C138.923 70.7965 139.168 71.1466 139.208 71.2029C139.264 71.2847 139.298 71.3804 139.304 71.4798C139.31 71.5791 139.289 71.6782 139.243 71.7664C139.196 71.8545 139.127 71.9284 139.042 71.98C138.957 72.0316 138.859 72.0589 138.76 72.0591L138.761 72.0594Z" fill="#212121"/>
<path fill-rule="evenodd" clip-rule="evenodd" d="M131.571 71.7602C129.608 69.2807 129.626 65.7651 128.564 62.3193C127.087 57.5728 126.581 54.3882 127.39 53.5332C128.554 52.3063 130.195 55.4671 131.976 58.954C132.686 60.344 134.505 63.679 137.434 68.9589" fill="white"/>
<path d="M131.572 72.3059C131.489 72.3061 131.408 72.2876 131.334 72.2517C131.259 72.2159 131.194 72.1636 131.143 72.0989C129.753 70.3428 129.312 68.1619 128.844 65.8532C128.62 64.7461 128.389 63.6015 128.042 62.4794C125.853 55.4431 126.395 53.7895 126.993 53.1583C127.131 52.9982 127.307 52.8752 127.505 52.8005C127.702 52.7259 127.915 52.702 128.125 52.731C129.42 52.9182 130.628 55.1129 132.462 58.7054C133.167 60.0848 135 63.4451 137.912 68.6936C137.981 68.8201 137.998 68.969 137.958 69.1075C137.917 69.2461 137.824 69.3632 137.698 69.4332C137.572 69.5031 137.423 69.5203 137.284 69.4809C137.145 69.4415 137.028 69.3488 136.957 69.223C134.039 63.9637 132.2 60.5921 131.49 59.2016C130.418 57.1028 128.798 53.9312 127.969 53.8112C127.941 53.8068 127.89 53.7999 127.787 53.909C127.563 54.1455 126.996 55.4371 129.086 62.1565C129.42 63.3019 129.697 64.4634 129.915 65.6365C130.356 67.8138 130.772 69.8704 132 71.4211C132.064 71.5015 132.103 71.5982 132.115 71.7001C132.126 71.8019 132.108 71.9049 132.063 71.9972C132.019 72.0895 131.949 72.1673 131.862 72.2218C131.775 72.2763 131.675 72.3053 131.572 72.3054L131.572 72.3059Z" fill="#212121"/>
<path fill-rule="evenodd" clip-rule="evenodd" d="M266.536 51.5073C271.308 47.7237 273.847 44.6698 274.154 42.3458C274.671 38.4439 276.974 35.9925 280.01 32.8643C280.994 31.8495 280.116 27.7849 276.627 28.7571C279.978 25.5313 275.172 22.3903 273.31 24.408C278.068 18.5765 281.384 16.1453 279.799 14.4882C278.161 12.7797 273.584 16.3838 269.669 20.6933C269.011 20.4273 268.392 20.7547 267.81 21.6756C266.159 24.2879 263.43 29.26 259.622 36.5919" fill="white"/>
<path d="M266.537 52.0529C266.424 52.0529 266.313 52.0177 266.221 51.9521C266.128 51.8866 266.059 51.7938 266.021 51.6869C265.984 51.5799 265.981 51.464 266.012 51.3552C266.044 51.2464 266.109 51.1501 266.197 51.0797C270.832 47.4052 273.327 44.4419 273.613 42.2743C274.166 38.1038 276.693 35.4996 279.618 32.4843C279.914 32.1791 279.97 31.0802 279.44 30.1885C279.056 29.5431 278.283 28.8624 276.774 29.2828C276.657 29.3154 276.532 29.3081 276.42 29.262C276.307 29.2158 276.213 29.1335 276.153 29.028C276.093 28.9225 276.069 28.7999 276.087 28.6796C276.104 28.5593 276.161 28.4482 276.249 28.364C277.061 27.5818 277.383 26.7677 277.179 26.0099C276.975 25.2521 276.251 24.5996 275.378 24.3846C275.059 24.3062 274.257 24.1869 273.71 24.7781C273.614 24.8822 273.481 24.9447 273.34 24.9525C273.198 24.9603 273.059 24.9127 272.952 24.8197C272.845 24.7268 272.778 24.5959 272.766 24.4546C272.754 24.3134 272.797 24.1729 272.886 24.063C274.194 22.46 275.371 21.1379 276.41 19.9717C279.043 17.0134 280.175 15.6715 279.404 14.8654C279.31 14.7704 279.195 14.6974 279.069 14.6516C278.943 14.6058 278.808 14.5884 278.674 14.6006C276.994 14.6231 273.617 17.1586 270.073 21.0601C269.998 21.1428 269.899 21.2005 269.79 21.2254C269.681 21.2502 269.567 21.2411 269.464 21.1992C269.31 21.1367 268.9 20.9704 268.271 21.9662C266.636 24.5539 263.889 29.5589 260.106 36.8424C260.04 36.9709 259.925 37.0676 259.787 37.1112C259.649 37.1549 259.499 37.142 259.37 37.0753C259.242 37.0086 259.145 36.8936 259.102 36.7556C259.058 36.6176 259.071 36.4679 259.138 36.3395C262.934 29.0288 265.697 23.9968 267.348 21.3831C268.102 20.1898 268.882 19.975 269.492 20.078C271.471 17.9295 275.848 13.5475 278.66 13.5093C278.943 13.495 279.227 13.5412 279.491 13.6448C279.755 13.7485 279.995 13.9072 280.193 14.1105C281.269 15.2356 280.48 16.5674 280.221 17.005C279.642 17.983 278.576 19.1806 277.225 20.6977C276.544 21.4617 275.803 22.2952 275.005 23.2289C275.219 23.2413 275.431 23.2735 275.639 23.3252C276.907 23.6371 277.925 24.5803 278.233 25.7272C278.333 26.1222 278.352 26.5331 278.29 26.9356C278.227 27.3381 278.084 27.7239 277.87 28.07C278.386 28.0966 278.886 28.2538 279.325 28.5269C279.764 28.8 280.126 29.18 280.377 29.6313C281.104 30.8535 281.115 32.5083 280.4 33.2447C277.61 36.121 275.2 38.6053 274.694 42.418C274.365 44.9102 271.807 48.0235 266.875 51.9352C266.779 52.0114 266.659 52.0529 266.537 52.0529Z" fill="#212121"/>
<path d="M258.197 39.4983C258.098 39.4981 258 39.4708 257.915 39.4191C257.83 39.3675 257.761 39.2935 257.714 39.2053C257.668 39.117 257.647 39.0178 257.653 38.9185C257.66 38.8191 257.693 38.7233 257.75 38.6415C257.787 38.5869 258.014 38.264 258.25 37.9291C258.466 37.6212 258.689 37.3036 258.775 37.181C259.763 34.856 260.948 32.6761 262.095 30.5672C262.597 29.6439 263.116 28.6889 263.609 27.7389C264.001 26.9949 264.442 26.2771 264.927 25.5901C265.008 25.4705 265.134 25.3881 265.276 25.3612C265.419 25.3342 265.566 25.3649 265.685 25.4464C265.805 25.5279 265.887 25.6536 265.914 25.7958C265.941 25.938 265.911 26.0851 265.829 26.2047C265.37 26.8541 264.953 27.5324 264.581 28.2355C264.08 29.2009 263.559 30.1605 263.054 31.0884C261.911 33.1901 260.73 35.3632 259.758 37.659C259.743 37.6934 259.725 37.7262 259.703 37.7569C259.663 37.8154 259.398 38.1934 259.142 38.5573C258.909 38.8896 258.683 39.211 258.646 39.2645C258.595 39.3367 258.528 39.3957 258.45 39.4364C258.372 39.4771 258.286 39.4983 258.197 39.4983Z" fill="#212121"/>
<path fill-rule="evenodd" clip-rule="evenodd" d="M266.621 35.4876C267.894 33.4866 267.88 31.4276 268.395 29.7576C269.872 25.0111 270.378 21.8265 269.569 20.9724C268.405 19.7455 266.951 22.6752 264.802 26.0294C263.906 27.4268 262.147 31.0043 259.525 36.7619" fill="white"/>
<path d="M259.524 37.3068C259.433 37.3068 259.343 37.2839 259.263 37.2401C259.183 37.1963 259.115 37.1331 259.065 37.0563C259.016 36.9795 258.986 36.8915 258.98 36.8004C258.973 36.7092 258.99 36.618 259.028 36.5348C261.685 30.6987 263.424 27.1658 264.341 25.734C264.681 25.2035 265.002 24.6864 265.312 24.1865C266.779 21.8232 267.748 20.2621 268.864 20.1482C269.07 20.13 269.277 20.1612 269.468 20.2393C269.66 20.3174 269.83 20.44 269.964 20.597C270.563 21.2287 271.105 22.8821 268.915 29.9196C268.762 30.4577 268.637 31.0036 268.542 31.5548C268.29 32.8543 268.005 34.3274 267.08 35.7807C267.003 35.9028 266.88 35.9891 266.738 36.0205C266.597 36.0519 266.449 36.026 266.327 35.9483C266.205 35.8706 266.118 35.7476 266.087 35.6063C266.055 35.465 266.081 35.317 266.159 35.1949C266.973 33.9165 267.225 32.6106 267.469 31.3476C267.572 30.7572 267.706 30.1728 267.872 29.5968C269.963 22.8766 269.395 21.5838 269.171 21.3477C269.056 21.2256 268.997 21.2316 268.974 21.234C268.392 21.2935 267.248 23.1362 266.239 24.7621C265.927 25.2654 265.604 25.786 265.259 26.3232C264.382 27.6915 262.619 31.2792 260.02 36.9872C259.977 37.0824 259.907 37.1631 259.819 37.2197C259.731 37.2764 259.629 37.3066 259.524 37.3068Z" fill="#212121"/>
<path fill-rule="evenodd" clip-rule="evenodd" d="M276.628 28.7571C273.959 33.6079 271.897 35.6089 270.442 34.76C268.986 33.9111 269.592 31.3038 272.261 26.938" fill="white"/>
<path d="M271.129 35.4962C270.79 35.4962 270.458 35.4047 270.167 35.2313C269.927 35.0936 269.718 34.9078 269.553 34.6855C269.389 34.4632 269.272 34.2093 269.21 33.9398C268.843 32.4845 269.689 30.1015 271.795 26.6542C271.832 26.5917 271.881 26.5371 271.939 26.4937C271.997 26.4502 272.063 26.4188 272.133 26.4011C272.204 26.3835 272.277 26.38 272.348 26.391C272.42 26.4019 272.489 26.427 272.551 26.4648C272.613 26.5026 272.666 26.5523 272.709 26.6111C272.751 26.6699 272.782 26.7365 272.798 26.8071C272.814 26.8777 272.816 26.9509 272.804 27.0223C272.792 27.0938 272.766 27.1621 272.727 27.2232C270.337 31.1342 270.07 32.8889 270.269 33.6729C270.295 33.8015 270.349 33.9229 270.426 34.0292C270.504 34.1354 270.603 34.224 270.717 34.2892C270.821 34.3504 270.937 34.3886 271.057 34.4014C271.177 34.4142 271.299 34.4013 271.414 34.3634C272.225 34.1391 273.705 32.9389 276.15 28.4949C276.183 28.4308 276.23 28.374 276.286 28.3279C276.342 28.2818 276.406 28.2473 276.476 28.2265C276.545 28.2056 276.618 28.1988 276.69 28.2064C276.762 28.2141 276.832 28.236 276.896 28.2709C276.959 28.3058 277.015 28.3531 277.06 28.4099C277.105 28.4666 277.139 28.5318 277.158 28.6016C277.178 28.6714 277.183 28.7444 277.174 28.8164C277.165 28.8883 277.142 28.9578 277.106 29.0207C274.967 32.9102 273.2 35.0019 271.705 35.4156C271.518 35.4683 271.324 35.4954 271.129 35.4962Z" fill="#212121"/>
<path fill-rule="evenodd" clip-rule="evenodd" d="M280.134 32.6167C277.276 37.132 275.329 38.8579 274.029 38.2376C272.728 37.6173 273.595 34.5176 276.627 28.9391" fill="white"/>
<path d="M274.575 38.9096C274.304 38.9094 274.037 38.848 273.794 38.7299C273.606 38.6389 273.44 38.5099 273.305 38.351C273.171 38.1922 273.071 38.0071 273.011 37.8074C272.718 36.905 272.725 34.9764 276.148 28.6783C276.182 28.6147 276.228 28.5584 276.284 28.5128C276.34 28.4671 276.404 28.4329 276.473 28.4122C276.542 28.3915 276.615 28.3846 276.686 28.3921C276.758 28.3995 276.828 28.421 276.891 28.4555C276.954 28.4899 277.01 28.5365 277.055 28.5926C277.101 28.6487 277.134 28.7132 277.154 28.7824C277.174 28.8516 277.181 28.9241 277.173 28.9957C277.165 29.0673 277.142 29.1366 277.108 29.1996C273.979 34.9548 273.849 36.8519 274.05 37.4705C274.063 37.5294 274.089 37.5845 274.126 37.632C274.163 37.6795 274.211 37.7181 274.264 37.745C274.831 38.0155 276.288 37.6723 279.674 32.3242C279.712 32.2637 279.762 32.2113 279.82 32.17C279.879 32.1287 279.945 32.0994 280.015 32.0837C280.085 32.0679 280.157 32.0661 280.228 32.0784C280.299 32.0906 280.366 32.1166 280.427 32.155C280.487 32.1933 280.54 32.2432 280.581 32.3018C280.622 32.3604 280.652 32.4265 280.667 32.4964C280.683 32.5663 280.685 32.6387 280.673 32.7093C280.66 32.7799 280.634 32.8474 280.596 32.908C278.007 36.9979 276.103 38.9096 274.575 38.9096Z" fill="#212121"/>
<path fill-rule="evenodd" clip-rule="evenodd" d="M232.96 87.5127L189.11 92.4242L169.459 104.248L127.792 87.8766L138.409 66.4087L166.698 79.548L180.351 60.5051C182.81 57.0755 186.384 54.6071 190.463 53.5227L201.815 50.5049L215.321 47.5503C219.217 46.6979 223.285 47.149 226.9 48.8342L241.698 55.7332L255.082 34.5688L276.731 47.0899L259.632 76.472C257.521 80.0999 254.096 82.7786 250.066 83.9546C246.035 85.1306 241.707 84.714 237.975 82.791L234.089 80.7884L230.356 78.8649L224.746 75.9739L230.049 78.7812L232.96 87.5127Z" fill="white"/>
<path d="M169.458 104.794C169.39 104.794 169.322 104.781 169.258 104.756L127.591 88.3844C127.521 88.3568 127.457 88.3149 127.404 88.2613C127.351 88.2077 127.309 88.1437 127.282 88.0732C127.255 88.0028 127.242 87.9274 127.246 87.8519C127.249 87.7765 127.268 87.7025 127.302 87.6348L137.919 66.167C137.982 66.0393 138.093 65.9415 138.227 65.8942C138.361 65.847 138.509 65.8541 138.638 65.9141L166.517 78.8629L179.906 60.187C182.441 56.6573 186.123 54.1157 190.322 52.9953L201.674 49.9773L201.698 49.9717L215.204 47.0172C219.217 46.1469 223.405 46.6113 227.13 48.3396L241.493 55.0356L254.621 34.277C254.696 34.1578 254.815 34.0725 254.952 34.0388C255.089 34.0051 255.233 34.0258 255.355 34.0964L277.004 46.6175C277.066 46.6535 277.121 46.7013 277.164 46.7582C277.208 46.8151 277.24 46.8801 277.258 46.9493C277.277 47.0186 277.281 47.0908 277.272 47.1618C277.262 47.2329 277.239 47.3013 277.203 47.3633L260.103 76.7463C257.923 80.4969 254.385 83.2663 250.219 84.4818C246.054 85.6973 241.581 85.2659 237.725 83.2767L230.96 79.7908L233.477 87.3409C233.503 87.418 233.511 87.4999 233.501 87.5806C233.491 87.6613 233.463 87.7387 233.419 87.8072C233.376 87.8757 233.317 87.9336 233.248 87.9765C233.179 88.0195 233.101 88.0465 233.02 88.0556L189.289 92.9532L169.74 104.716C169.655 104.767 169.558 104.794 169.458 104.794ZM128.544 87.5855L169.408 103.642L188.828 91.9567C188.895 91.9161 188.97 91.8906 189.048 91.882L232.228 87.0456L229.6 79.1613L224.49 76.4563C224.361 76.3893 224.265 76.2741 224.222 76.136C224.178 75.9978 224.192 75.8482 224.259 75.7199C224.326 75.5916 224.441 75.4951 224.579 75.4518C224.717 75.4084 224.867 75.4217 224.995 75.4888L238.225 82.3059C241.832 84.1669 246.017 84.5706 249.913 83.4337C253.81 82.2968 257.12 79.7061 259.16 76.1975L275.984 47.2882L255.263 35.3037L242.16 56.0246C242.089 56.1367 241.979 56.219 241.852 56.2564C241.725 56.2938 241.588 56.2835 241.468 56.2276L226.67 49.3287C223.161 47.7013 219.218 47.264 215.438 48.0831L201.944 51.0351L190.603 54.0502C186.648 55.1052 183.181 57.4988 180.794 60.8229L167.141 79.866C167.067 79.9692 166.96 80.0434 166.837 80.0757C166.714 80.108 166.583 80.0964 166.468 80.043L138.662 67.1276L128.544 87.5855Z" fill="#212121"/>
<path fill-rule="evenodd" clip-rule="evenodd" d="M182.371 126.441L173.24 128.588L135.023 166.545L112.829 144.685L156.168 102.291C158.484 100.121 161.399 98.6964 164.534 98.2026L186.561 93.6976" fill="white"/>
<path d="M135.023 167.091C134.88 167.091 134.743 167.034 134.641 166.934L112.446 145.074C112.394 145.023 112.353 144.962 112.325 144.895C112.297 144.828 112.283 144.757 112.283 144.684C112.283 144.612 112.298 144.54 112.326 144.473C112.354 144.406 112.396 144.346 112.447 144.295L155.787 101.901C158.179 99.6515 161.193 98.1755 164.436 97.6653L186.453 93.1629C186.523 93.1473 186.596 93.1459 186.668 93.1589C186.739 93.1718 186.807 93.1987 186.868 93.2382C186.928 93.2776 186.981 93.3287 187.021 93.3885C187.062 93.4484 187.091 93.5157 187.105 93.5867C187.12 93.6576 187.12 93.7307 187.106 93.8017C187.092 93.8727 187.064 93.9402 187.023 94.0003C186.983 94.0604 186.931 94.1118 186.87 94.1516C186.81 94.1914 186.742 94.2188 186.671 94.2322L164.643 98.7373L164.619 98.7416C161.591 99.2149 158.776 100.591 156.542 102.689L113.608 144.687L135.022 165.777L172.855 128.201C172.926 128.13 173.016 128.08 173.115 128.057L182.246 125.911C182.386 125.88 182.533 125.906 182.654 125.982C182.775 126.058 182.861 126.179 182.894 126.319C182.927 126.458 182.904 126.605 182.829 126.727C182.755 126.85 182.635 126.938 182.496 126.973L173.515 129.085L135.408 166.932C135.306 167.034 135.167 167.091 135.023 167.091Z" fill="#212121"/>
<path fill-rule="evenodd" clip-rule="evenodd" d="M229.866 78.7812L236.989 98.2006C237.782 100.363 238.07 102.678 237.83 104.968C237.591 107.259 236.83 109.464 235.607 111.416C234.384 113.367 232.73 115.013 230.773 116.228C228.816 117.442 226.606 118.192 224.314 118.422L214.126 119.44L218.227 169.733L186.502 169.655L180.681 106.09C180.358 102.557 181.442 99.0399 183.698 96.3022C185.955 93.5646 189.201 91.8281 192.731 91.4701L228.089 87.8847" fill="white"/>
<path d="M218.227 170.28H218.225L186.5 170.202C186.364 170.201 186.233 170.15 186.133 170.059C186.033 169.967 185.97 169.841 185.958 169.706L180.138 106.139C179.813 102.466 180.945 98.8125 183.291 95.9666C185.637 93.1208 189.007 91.3108 192.676 90.9273L228.034 87.3419C228.176 87.3305 228.318 87.3752 228.427 87.4666C228.537 87.558 228.606 87.6887 228.621 87.8308C228.635 87.9728 228.593 88.1148 228.504 88.2264C228.415 88.3379 228.286 88.4102 228.144 88.4275L192.786 92.0131C189.403 92.3668 186.295 94.0358 184.132 96.6599C181.969 99.284 180.925 102.653 181.225 106.04L187 169.111L217.634 169.187L213.582 119.486C213.57 119.343 213.615 119.202 213.707 119.092C213.798 118.982 213.93 118.912 214.072 118.898L224.26 117.879C226.469 117.658 228.599 116.935 230.485 115.765C232.372 114.594 233.966 113.008 235.145 111.127C236.324 109.246 237.057 107.12 237.288 104.912C237.519 102.704 237.241 100.473 236.477 98.3887L229.354 78.9692C229.305 78.8335 229.311 78.6839 229.372 78.5532C229.433 78.4225 229.544 78.3212 229.679 78.2715C229.815 78.2219 229.964 78.2278 230.095 78.2881C230.226 78.3484 230.328 78.4582 230.379 78.5933L237.501 98.0129C238.323 100.253 238.621 102.652 238.373 105.025C238.125 107.399 237.337 109.684 236.07 111.706C234.802 113.728 233.089 115.433 231.061 116.691C229.033 117.949 226.744 118.727 224.369 118.965L214.714 119.931L218.771 169.69C218.777 169.765 218.768 169.84 218.743 169.912C218.718 169.983 218.679 170.049 218.628 170.104C218.577 170.159 218.515 170.204 218.446 170.234C218.377 170.264 218.302 170.28 218.227 170.28L218.227 170.28Z" fill="#212121"/>
<path d="M237.421 63.3411C237.325 63.341 237.23 63.3152 237.146 63.2663C237.063 63.2174 236.994 63.1473 236.946 63.063C236.899 62.9787 236.875 62.8833 236.876 62.7866C236.878 62.6899 236.905 62.5954 236.955 62.5127L241.231 55.4503C241.306 55.3265 241.427 55.2375 241.567 55.203C241.708 55.1685 241.857 55.1912 241.981 55.2662C242.104 55.3411 242.193 55.4622 242.228 55.6028C242.262 55.7433 242.24 55.8919 242.165 56.0157L237.889 63.078C237.84 63.1584 237.772 63.2249 237.69 63.2709C237.608 63.317 237.515 63.3412 237.421 63.3411Z" fill="#212121"/>
<path fill-rule="evenodd" clip-rule="evenodd" d="M211.552 31.9586C212.52 32.9572 213.246 34.1639 213.675 35.4864C214.104 36.8088 214.224 38.2119 214.027 39.5881C213.83 40.9642 213.32 42.2771 212.537 43.4259C211.754 44.5748 210.718 45.5293 209.51 46.2162L209.869 51.702C209.972 53.3281 209.43 54.9293 208.362 56.1595C207.293 57.3897 205.783 58.1499 204.158 58.2759C202.533 58.4019 200.924 57.8835 199.678 56.8327C198.433 55.782 197.651 54.2833 197.502 52.6608L196.524 41.6737L194.436 29.4847V26.5742L200.804 23.4818L207.9 24.2094" fill="white"/>
<path d="M203.668 58.8449C201.983 58.8529 200.356 58.2259 199.113 57.0888C197.869 55.9516 197.1 54.3878 196.958 52.709L195.983 41.7442L193.898 29.5769C193.893 29.5464 193.891 29.5156 193.891 29.4847V26.5742C193.891 26.4717 193.919 26.3713 193.974 26.2845C194.028 26.1976 194.106 26.1278 194.198 26.083L200.566 22.9906C200.657 22.9458 200.759 22.9278 200.86 22.9386L207.957 23.6662C208.029 23.6725 208.099 23.6931 208.163 23.7267C208.227 23.7603 208.284 23.8064 208.33 23.8622C208.376 23.9179 208.411 23.9823 208.432 24.0516C208.453 24.1208 208.46 24.1936 208.452 24.2656C208.445 24.3376 208.423 24.4074 208.389 24.4709C208.354 24.5345 208.307 24.5905 208.251 24.6358C208.194 24.681 208.129 24.7146 208.06 24.7345C207.99 24.7544 207.917 24.7603 207.845 24.7519L200.904 24.0404L194.982 26.9158V29.4383L197.063 41.5816C197.065 41.5962 197.067 41.6107 197.068 41.6255L198.046 52.6126C198.165 54.0194 198.81 55.3296 199.852 56.2823C200.894 57.2351 202.257 57.7604 203.669 57.7536C203.793 57.7536 203.917 57.7498 204.042 57.7418C205.537 57.6415 206.932 56.954 207.922 55.8294C208.912 54.7047 209.416 53.2342 209.325 51.7389L208.966 46.2528C208.96 46.1507 208.982 46.0488 209.03 45.9587C209.079 45.8687 209.152 45.7941 209.241 45.7435C210.377 45.0978 211.351 44.2007 212.087 43.1209C212.823 42.041 213.302 40.8071 213.488 39.5136C213.673 38.2201 213.56 36.9013 213.157 35.6582C212.754 34.4151 212.072 33.2806 211.163 32.3417C211.064 32.2378 211.01 32.0991 211.013 31.9557C211.015 31.8122 211.074 31.6756 211.177 31.5752C211.279 31.4749 211.417 31.419 211.561 31.4197C211.704 31.4203 211.842 31.4774 211.944 31.5786C212.949 32.6159 213.709 33.8657 214.167 35.2357C214.626 36.6057 214.771 38.0611 214.592 39.4946C214.413 40.928 213.914 42.3031 213.133 43.5183C212.351 44.7335 211.307 45.758 210.077 46.5162L210.415 51.6678C210.524 53.4519 209.923 55.2069 208.742 56.5493C207.562 57.8918 205.898 58.7126 204.114 58.8325C203.964 58.8403 203.815 58.8449 203.668 58.8449Z" fill="#212121"/>
<path fill-rule="evenodd" clip-rule="evenodd" d="M194.975 31.2854C195.009 30.1965 195.257 29.125 195.707 28.1324C196.156 27.1399 196.797 26.2457 197.592 25.5013C198.388 24.7569 199.323 24.1768 200.343 23.7943C201.363 23.4119 202.449 23.2345 203.538 23.2726C204.627 23.3106 205.698 23.5632 206.689 24.0158C207.68 24.4685 208.573 25.1123 209.314 25.9104C210.056 26.7085 210.633 27.6452 211.012 28.6666C211.391 29.6881 211.564 30.7743 211.522 31.8629" fill="white"/>
<path d="M211.522 32.4086H211.503C211.358 32.4036 211.222 32.3414 211.123 32.2357C211.024 32.1299 210.971 31.9893 210.976 31.8447C211.014 30.8288 210.851 29.8153 210.496 28.8625C210.142 27.9096 209.603 27.036 208.91 26.2917C208.217 25.5474 207.384 24.947 206.459 24.5249C205.534 24.1028 204.535 23.8673 203.519 23.8318C202.502 23.7963 201.489 23.9616 200.537 24.3181C199.584 24.6747 198.712 25.2155 197.969 25.9097C197.226 26.6038 196.627 27.4377 196.207 28.3635C195.787 29.2893 195.553 30.2889 195.52 31.305C195.517 31.3767 195.501 31.4472 195.471 31.5124C195.441 31.5777 195.399 31.6364 195.346 31.6853C195.294 31.7342 195.232 31.7723 195.165 31.7975C195.098 31.8226 195.027 31.8342 194.955 31.8317C194.883 31.8292 194.813 31.8126 194.747 31.7829C194.682 31.7532 194.623 31.7109 194.575 31.6585C194.526 31.606 194.487 31.5445 194.462 31.4773C194.437 31.4101 194.426 31.3387 194.428 31.267C194.52 28.9356 195.531 26.7354 197.242 25.1479C198.952 23.5603 201.222 22.7148 203.554 22.7962C205.886 22.8776 208.091 23.8794 209.687 25.5823C211.282 27.2852 212.138 29.5506 212.067 31.8828C212.061 32.0238 212.002 32.1573 211.9 32.2554C211.799 32.3534 211.663 32.4084 211.522 32.4086Z" fill="#212121"/>
<path d="M206.843 33.9791C206.714 33.9792 206.589 33.9335 206.49 33.8501C206.392 33.7668 206.326 33.6511 206.304 33.5238C206.283 33.3965 206.308 33.2656 206.373 33.1546C206.439 33.0436 206.543 32.9596 206.665 32.9174L208.364 32.3295L205.801 29.0734C205.711 28.9597 205.67 28.815 205.687 28.6713C205.705 28.5276 205.778 28.3966 205.892 28.307C206.006 28.2175 206.15 28.1768 206.294 28.194C206.438 28.2111 206.569 28.2846 206.658 28.3984L209.697 32.2577C209.751 32.3261 209.788 32.4063 209.804 32.4918C209.821 32.5772 209.816 32.6654 209.792 32.7489C209.767 32.8324 209.723 32.9088 209.663 32.9718C209.603 33.0348 209.529 33.0825 209.447 33.111L207.022 33.9496C206.965 33.9693 206.904 33.9793 206.843 33.9791Z" fill="#212121"/>
<path d="M203.703 32.3207C204.217 32.1234 204.474 31.5475 204.277 31.0344C204.08 30.5213 203.504 30.2652 202.989 30.4625C202.475 30.6598 202.218 31.2357 202.415 31.7489C202.612 32.262 203.189 32.518 203.703 32.3207Z" fill="#212121"/>
<path d="M210.578 30.2983C211.092 30.101 211.349 29.5251 211.152 29.0119C210.955 28.4988 210.379 28.2428 209.864 28.4401C209.35 28.6373 209.093 29.2133 209.29 29.7264C209.487 30.2395 210.064 30.4956 210.578 30.2983Z" fill="#212121"/>
<path d="M197.22 34.2648C197.346 34.3272 197.713 34.3733 198.322 34.4033L196.919 27.6891L204.476 25.3412C205.918 25.7445 207.454 25.6421 208.829 25.0511C209.873 24.6092 210.786 23.909 211.484 23.0164C212.181 22.1238 212.64 21.0683 212.817 19.9494C212.993 18.8305 212.882 17.6851 212.493 16.6212C212.104 15.5573 211.45 14.6099 210.594 13.8684C209.737 13.1269 208.706 12.6158 207.597 12.3832C206.488 12.1506 205.338 12.2041 204.256 12.5388C203.174 12.8736 202.194 13.4784 201.41 14.2963C200.627 15.1142 200.064 16.1182 199.776 17.2137C198.704 16.8718 197.556 16.8417 196.468 17.1268C195.379 17.412 194.394 18.0006 193.628 18.8241C192.861 19.6476 192.344 20.672 192.138 21.7779C191.931 22.8838 192.043 24.0256 192.461 25.0702C191.727 25.3052 189.371 27.8352 191.076 33.7782C191.177 34.1306 191.299 34.4764 191.443 34.8136C192.751 34.108 194.931 33.1297 197.22 34.2648Z" fill="#707FDA"/>
<path fill-rule="evenodd" clip-rule="evenodd" d="M197.706 33.9436C197.069 33.2624 196.254 32.7731 195.353 32.5309C194.452 32.2887 193.501 32.3034 192.608 32.5732C191.715 32.843 190.916 33.3571 190.3 34.0576C189.684 34.758 189.276 35.6168 189.123 36.5367C188.969 37.4567 189.077 38.4013 189.432 39.2635C189.788 40.1258 190.377 40.8714 191.135 41.4161C191.892 41.9607 192.787 42.2827 193.717 42.3456C194.648 42.4085 195.578 42.2099 196.402 41.7721C196.728 41.601 197.033 41.3905 197.308 41.1454" fill="white"/>
<path d="M194.047 42.9104C193.501 42.91 192.959 42.8291 192.437 42.6703C191.741 42.4612 191.094 42.1158 190.533 41.6542C189.972 41.1926 189.508 40.624 189.169 39.9816C188.547 38.7962 188.375 37.4263 188.684 36.1239C188.992 34.8216 189.761 33.6746 190.849 32.894C191.936 32.1135 193.269 31.7519 194.602 31.8759C195.935 32 197.178 32.6012 198.103 33.569C198.202 33.6743 198.256 33.8148 198.251 33.9594C198.247 34.1041 198.186 34.2412 198.08 34.3405C197.975 34.4398 197.835 34.4932 197.69 34.489C197.545 34.4848 197.408 34.4232 197.309 34.3179C196.565 33.5417 195.567 33.0598 194.497 32.9608C193.427 32.8617 192.357 33.1523 191.484 33.779C190.61 34.4056 189.993 35.3263 189.745 36.3718C189.496 37.4172 189.634 38.5172 190.132 39.4693C190.406 39.9844 190.78 40.4402 191.231 40.8107C191.682 41.1812 192.202 41.4589 192.76 41.6281C193.319 41.7973 193.905 41.8545 194.486 41.7965C195.067 41.7386 195.631 41.5665 196.145 41.2902C196.432 41.1398 196.7 40.9549 196.942 40.7398C196.995 40.6908 197.057 40.6529 197.125 40.6282C197.193 40.6035 197.265 40.5925 197.337 40.5958C197.41 40.5992 197.48 40.6168 197.546 40.6477C197.611 40.6786 197.669 40.7222 197.718 40.7759C197.766 40.8295 197.803 40.8922 197.827 40.9604C197.851 41.0285 197.861 41.1007 197.857 41.1728C197.853 41.2449 197.834 41.3155 197.803 41.3804C197.771 41.4452 197.727 41.5032 197.672 41.5509C197.364 41.8257 197.023 42.0618 196.657 42.2539C195.854 42.6836 194.958 42.909 194.047 42.9104Z" fill="#212121"/>
<path d="M192.596 39.0915C192.451 39.0953 192.31 39.0415 192.205 38.9418C192.1 38.8422 192.039 38.7049 192.035 38.5602C192.032 38.4154 192.085 38.2751 192.185 38.1701C192.285 38.065 192.422 38.0039 192.567 38.0001L194.527 37.8951L191.97 35.892C191.86 35.8014 191.79 35.6714 191.775 35.5299C191.759 35.3883 191.8 35.2464 191.888 35.1343C191.976 35.0222 192.104 34.9489 192.245 34.93C192.386 34.9111 192.529 34.9482 192.643 35.0332L196.343 37.9337C196.431 38.0022 196.495 38.0958 196.528 38.2019C196.561 38.308 196.56 38.4216 196.527 38.5275C196.493 38.6334 196.429 38.7266 196.341 38.7946C196.253 38.8626 196.146 38.9022 196.035 38.9082L192.624 39.0901C192.615 39.0915 192.605 39.0915 192.596 39.0915Z" fill="#212121"/>
<path d="M208.114 37.5661C207.624 37.5656 207.139 37.4794 206.679 37.3114C206.612 37.2869 206.55 37.2493 206.497 37.2009C206.444 37.1525 206.402 37.0941 206.371 37.0292C206.341 36.9642 206.324 36.8939 206.321 36.8223C206.318 36.7507 206.329 36.6792 206.353 36.6119C206.378 36.5445 206.415 36.4827 206.464 36.4298C206.512 36.377 206.571 36.3342 206.636 36.304C206.701 36.2737 206.771 36.2565 206.842 36.2534C206.914 36.2503 206.986 36.2613 207.053 36.2858C207.736 36.5373 208.486 36.5372 209.168 36.2855C209.851 36.0337 210.421 35.5468 210.777 34.9122C210.811 34.8489 210.858 34.793 210.915 34.7479C210.971 34.7028 211.036 34.6694 211.106 34.6495C211.175 34.6297 211.248 34.6238 211.319 34.6323C211.391 34.6407 211.461 34.6633 211.524 34.6988C211.586 34.7342 211.642 34.7818 211.686 34.8388C211.731 34.8958 211.763 34.961 211.782 35.0307C211.801 35.1004 211.806 35.1731 211.797 35.2448C211.788 35.3164 211.764 35.3855 211.728 35.4479C211.368 36.0903 210.844 36.6251 210.208 36.9974C209.573 37.3697 208.85 37.566 208.114 37.5661Z" fill="#212121"/>
<path d="M204.263 63.5455C201.379 63.5452 198.602 62.4504 196.493 60.4822C194.385 58.5141 193.102 55.8194 192.905 52.9424C192.895 52.798 192.942 52.6556 193.037 52.5464C193.133 52.4372 193.267 52.3703 193.412 52.3603C193.556 52.3503 193.698 52.3981 193.808 52.4931C193.917 52.5882 193.984 52.7227 193.994 52.8671C194.097 54.3575 194.523 55.8076 195.243 57.117C195.962 58.4263 196.958 59.5635 198.161 60.4498C199.364 61.336 200.746 61.9501 202.21 62.2494C203.674 62.5488 205.185 62.5262 206.64 62.1833C208.094 61.8404 209.457 61.1854 210.633 60.2636C211.809 59.3418 212.77 58.1754 213.45 56.8452C214.131 55.515 214.513 54.0528 214.572 52.5599C214.631 51.0671 214.364 49.5794 213.79 48.1999C213.735 48.0662 213.735 47.9159 213.79 47.7822C213.845 47.6484 213.951 47.5421 214.085 47.4866C214.219 47.4311 214.369 47.431 214.503 47.4863C214.637 47.5416 214.743 47.6478 214.799 47.7815C215.519 49.5135 215.8 51.3966 215.618 53.2634C215.435 55.1302 214.794 56.9231 213.752 58.4828C212.71 60.0424 211.298 61.3206 209.643 62.2037C207.988 63.0869 206.14 63.5477 204.264 63.5452L204.263 63.5455Z" fill="#212121"/>
<path d="M189.109 92.4242C188.965 92.4242 188.826 92.3667 188.723 92.2644C188.621 92.162 188.563 92.0232 188.563 91.8785V73.6879C188.563 73.5431 188.621 73.4043 188.723 73.302C188.826 73.1996 188.965 73.1422 189.109 73.1422C189.254 73.1422 189.393 73.1996 189.495 73.302C189.598 73.4043 189.655 73.5431 189.655 73.6879V91.8785C189.655 92.0232 189.598 92.162 189.495 92.2644C189.393 92.3667 189.254 92.4242 189.109 92.4242Z" fill="#212121"/>
<path d="M343.534 186.595C343.506 186.599 343.478 186.601 343.449 186.601L29.2214 186.619C29.0758 186.619 28.9362 186.561 28.8334 186.459C28.7306 186.357 28.673 186.218 28.6732 186.073C28.6734 185.928 28.7315 185.789 28.8346 185.687C28.9378 185.584 29.0775 185.527 29.2231 185.527L343.451 185.509C343.59 185.509 343.723 185.56 343.825 185.654C343.926 185.747 343.988 185.875 343.999 186.013C344.009 186.15 343.967 186.286 343.881 186.394C343.795 186.502 343.671 186.574 343.534 186.595Z" fill="#212121"/>
</g>
<defs>
<clipPath id="clip0">
<rect width="348.444" height="196" fill="white"/>
</clipPath>
</defs>
</svg>
