<svg width="349" height="196" viewBox="0 0 349 196" fill="none" xmlns="http://www.w3.org/2000/svg">
<g clip-path="url(#clip0)">
<path d="M289.737 185.926C315.971 185.926 337.239 164.659 337.239 138.424C337.239 112.189 315.971 90.9219 289.737 90.9219C263.502 90.9219 242.234 112.189 242.234 138.424C242.234 164.659 263.502 185.926 289.737 185.926Z" fill="white"/>
<path d="M289.737 186.471C280.234 186.471 270.944 183.654 263.043 178.374C255.142 173.095 248.983 165.591 245.347 156.811C241.71 148.032 240.759 138.371 242.613 129.051C244.467 119.73 249.043 111.169 255.762 104.45C264.773 95.4391 276.994 90.377 289.737 90.377C302.48 90.377 314.701 95.4391 323.711 104.45C332.722 113.46 337.784 125.681 337.784 138.424C337.784 151.167 332.722 163.388 323.711 172.399C319.26 176.874 313.965 180.423 308.134 182.838C302.302 185.254 296.049 186.489 289.737 186.471ZM289.737 91.4669C263.845 91.4669 242.779 112.532 242.779 138.424C242.779 164.316 263.845 185.382 289.737 185.382C315.629 185.382 336.694 164.316 336.694 138.424C336.694 112.532 315.629 91.4669 289.737 91.4669Z" fill="#212121"/>
<path d="M289.736 109.404V138.424L316.325 153.664" fill="white"/>
<path d="M316.324 154.21C316.229 154.21 316.136 154.185 316.054 154.137L289.465 138.897C289.382 138.849 289.313 138.78 289.265 138.697C289.217 138.615 289.191 138.52 289.191 138.424V109.404C289.191 109.26 289.249 109.121 289.351 109.019C289.453 108.917 289.592 108.859 289.736 108.859C289.881 108.859 290.02 108.917 290.122 109.019C290.224 109.121 290.281 109.26 290.281 109.404V138.109L316.596 153.191C316.7 153.251 316.781 153.344 316.827 153.455C316.873 153.566 316.881 153.689 316.85 153.805C316.819 153.921 316.751 154.023 316.655 154.096C316.56 154.169 316.443 154.209 316.323 154.209L316.324 154.21Z" fill="#212121"/>
<path d="M48.4064 185.927C48.2634 185.927 48.1262 185.87 48.0251 185.769C47.924 185.668 47.8672 185.531 47.8672 185.388V87.9611C47.8672 87.8181 47.924 87.6809 48.0251 87.5798C48.1262 87.4786 48.2634 87.4218 48.4064 87.4218L192.15 87.3828C192.293 87.3828 192.43 87.4396 192.531 87.5408C192.632 87.6419 192.689 87.7791 192.689 87.9221C192.689 88.0651 192.632 88.2023 192.531 88.3034C192.43 88.4045 192.293 88.4613 192.15 88.4613L48.9456 88.5003V185.388C48.9456 185.531 48.8888 185.668 48.7877 185.769C48.6866 185.87 48.5494 185.927 48.4064 185.927Z" fill="#212121"/>
<path fill-rule="evenodd" clip-rule="evenodd" d="M138.366 46.0467L193.786 129.66C194.009 129.996 194.354 130.232 194.748 130.317C195.142 130.402 195.554 130.33 195.895 130.116L214.242 118.615C214.417 118.506 214.568 118.362 214.686 118.193C214.805 118.025 214.889 117.834 214.932 117.632C214.976 117.43 214.979 117.222 214.941 117.019C214.904 116.816 214.826 116.623 214.712 116.451L159.345 32.4075C159.26 32.2802 159.155 32.1671 159.035 32.0721L128.261 7.71037C128.229 7.68472 128.189 7.66995 128.148 7.66815C128.107 7.66636 128.066 7.67763 128.031 7.70037C127.997 7.72311 127.971 7.75616 127.956 7.79479C127.941 7.83343 127.939 7.87569 127.95 7.91555L138.174 45.6224C138.215 45.7732 138.28 45.9165 138.366 46.0467Z" fill="white"/>
<path d="M195.07 130.943C194.718 130.943 194.372 130.855 194.062 130.688C193.753 130.52 193.489 130.279 193.296 129.984L137.876 46.3705C137.755 46.1878 137.664 45.9868 137.607 45.7753L127.383 8.06864C127.34 7.90918 127.348 7.74009 127.406 7.5855C127.464 7.4309 127.57 7.29869 127.708 7.20772C127.846 7.11674 128.009 7.07165 128.173 7.07887C128.338 7.0861 128.497 7.14526 128.626 7.24794L159.4 31.6103C159.569 31.7435 159.715 31.9023 159.834 32.081L215.203 116.126C215.36 116.363 215.467 116.63 215.519 116.91C215.572 117.19 215.567 117.478 215.507 117.756C215.446 118.035 215.331 118.298 215.167 118.531C215.004 118.764 214.795 118.962 214.554 119.113L196.208 130.614C195.867 130.829 195.473 130.943 195.07 130.943ZM138.856 45.7208L194.276 129.333C194.413 129.543 194.627 129.69 194.872 129.743C195.117 129.796 195.372 129.75 195.584 129.616L213.93 118.115C214.038 118.048 214.132 117.959 214.205 117.854C214.279 117.749 214.331 117.631 214.358 117.506C214.385 117.381 214.387 117.252 214.364 117.126C214.34 117 214.292 116.881 214.222 116.774L158.854 32.7305C158.804 32.6554 158.742 32.5886 158.671 32.5326L128.829 8.90917L138.742 45.4672C138.766 45.5573 138.805 45.643 138.856 45.7208Z" fill="#212121"/>
<path d="M200.694 127.384C200.596 127.384 200.499 127.36 200.413 127.313C200.327 127.266 200.254 127.199 200.2 127.116L144.893 41.9426C144.85 41.8778 144.82 41.8052 144.805 41.7289C144.791 41.6526 144.791 41.5741 144.807 41.498C144.823 41.422 144.854 41.3498 144.898 41.2856C144.941 41.2215 144.997 41.1667 145.062 41.1243C145.128 41.082 145.2 41.053 145.277 41.0389C145.353 41.0249 145.431 41.0262 145.507 41.0427C145.583 41.0591 145.655 41.0905 145.719 41.1349C145.782 41.1793 145.837 41.2359 145.878 41.3014L201.185 126.475C201.243 126.564 201.276 126.666 201.28 126.772C201.284 126.878 201.26 126.983 201.209 127.076C201.159 127.169 201.084 127.247 200.994 127.301C200.903 127.355 200.799 127.384 200.693 127.384H200.694Z" fill="#212121"/>
<path d="M208.334 122.48C208.236 122.48 208.139 122.456 208.053 122.409C207.967 122.362 207.894 122.294 207.84 122.212L152.533 36.8423C152.49 36.7775 152.461 36.7048 152.446 36.6285C152.431 36.5523 152.432 36.4739 152.448 36.3978C152.464 36.3218 152.495 36.2497 152.538 36.1856C152.582 36.1215 152.638 36.0668 152.703 36.0245C152.768 35.9822 152.841 35.9533 152.918 35.9393C152.994 35.9253 153.072 35.9266 153.148 35.9431C153.224 35.9595 153.296 35.9909 153.359 36.0352C153.423 36.0796 153.477 36.1362 153.519 36.2017L208.827 121.571C208.884 121.66 208.917 121.763 208.921 121.869C208.925 121.974 208.9 122.079 208.85 122.172C208.8 122.265 208.725 122.343 208.634 122.397C208.544 122.451 208.44 122.48 208.334 122.48Z" fill="#212121"/>
<path fill-rule="evenodd" clip-rule="evenodd" d="M130.163 17.4362L136.407 13.3758L129.691 8.40312C129.529 8.28298 129.333 8.21595 129.132 8.21121C128.93 8.20646 128.731 8.26423 128.564 8.3766C128.396 8.48898 128.267 8.65049 128.194 8.83904C128.122 9.02758 128.109 9.23397 128.158 9.42999L130.163 17.4362Z" fill="#212121"/>
<path d="M158.795 31.6839L137.762 45.3594L138.402 46.3462L159.435 32.6708L158.795 31.6839Z" fill="#212121"/>
<path d="M116.462 87.9219H60.167L55.816 59.2611C55.7202 58.6318 55.7614 57.9892 55.9366 57.3773C56.1118 56.7654 56.4169 56.1987 56.8311 55.7159C57.2453 55.2331 57.7587 54.8457 58.3362 54.5803C58.9137 54.3148 59.5417 54.1775 60.1771 54.1777H98.0076C99.0627 54.1771 100.083 54.5555 100.883 55.2443C101.684 55.9331 102.211 56.8865 102.37 57.9316L106.448 84.8101H114.046C114.623 84.81 115.178 85.0244 115.606 85.4117C116.033 85.7989 116.302 86.3313 116.359 86.9058L116.462 87.9219Z" fill="white"/>
<path d="M116.462 88.4714H60.1674C60.0361 88.4714 59.9091 88.4242 59.8095 88.3385C59.71 88.2527 59.6444 88.1341 59.6246 88.004L55.2734 59.3432C55.1658 58.6357 55.212 57.9133 55.4089 57.2254C55.6058 56.5375 55.9488 55.9003 56.4143 55.3575C56.8798 54.8147 57.4569 54.379 58.106 54.0804C58.7552 53.7817 59.4611 53.627 60.1754 53.627H98.0102C99.1977 53.6211 100.348 54.0448 101.248 54.8204C102.149 55.5959 102.74 56.6711 102.912 57.8483L106.919 84.2592H114.047C114.76 84.2572 115.448 84.5216 115.976 85.0007C116.505 85.4797 116.837 86.139 116.906 86.8498L117.009 87.8661C117.016 87.9426 117.008 88.0199 116.984 88.0929C116.96 88.166 116.921 88.2332 116.87 88.2902C116.818 88.3473 116.755 88.3928 116.685 88.424C116.615 88.4552 116.539 88.4713 116.462 88.4713V88.4714ZM60.6393 87.3711H115.855L115.813 86.9602C115.77 86.521 115.566 86.1136 115.239 85.8176C114.912 85.5216 114.487 85.3583 114.047 85.3594H106.447C106.316 85.3594 106.189 85.3123 106.09 85.2265C105.99 85.1408 105.924 85.0222 105.905 84.8922L101.826 58.0137C101.692 57.0973 101.232 56.2602 100.531 55.6564C99.8295 55.0527 98.9344 54.7227 98.0098 54.7273H60.1756C59.6194 54.7273 59.0698 54.8476 58.5644 55.0802C58.059 55.3127 57.6097 55.6519 57.2473 56.0745C56.8849 56.4971 56.6179 56.9932 56.4646 57.5288C56.3113 58.0644 56.2754 58.6268 56.3592 59.1776L60.6393 87.3711Z" fill="#212121"/>
<path d="M98.9916 59.948L102.882 83.8869H63.5676L59.7633 60.7036C59.7084 60.3687 59.7268 60.0259 59.8174 59.6988C59.9079 59.3718 60.0684 59.0685 60.2876 58.8098C60.5068 58.5511 60.7796 58.3433 61.0871 58.2007C61.3945 58.0582 61.7292 57.9844 62.0679 57.9844H96.6867C97.241 57.9844 97.7772 58.1819 98.1995 58.5417C98.6218 58.9014 98.9025 59.3999 98.9916 59.948Z" fill="white"/>
<path d="M102.882 84.4365H63.5678C63.4376 84.4364 63.3117 84.39 63.2124 84.3056C63.1132 84.2211 63.0472 84.1041 63.0261 83.9754L59.2218 60.7923C59.1539 60.3786 59.1767 59.9552 59.2885 59.5512C59.4003 59.1473 59.5984 58.7726 59.8692 58.4531C60.14 58.1335 60.477 57.8768 60.8567 57.7008C61.2364 57.5248 61.6498 57.4336 62.0682 57.4336H96.687C97.3723 57.4315 98.0357 57.6747 98.5577 58.1194C99.0798 58.5641 99.426 59.1811 99.534 59.859L103.425 83.7979C103.438 83.8766 103.433 83.9571 103.412 84.0339C103.391 84.1107 103.353 84.182 103.301 84.2427C103.25 84.3034 103.186 84.3522 103.113 84.3857C103.041 84.4191 102.963 84.4365 102.883 84.4365H102.882ZM64.0334 83.3362H102.237L98.45 60.036C98.3832 59.6161 98.1688 59.234 97.8456 58.9586C97.5223 58.6831 97.1114 58.5325 96.687 58.5339H62.0682C61.8092 58.5339 61.5532 58.5904 61.3181 58.6993C61.083 58.8083 60.8744 58.9672 60.7067 59.165C60.539 59.3629 60.4162 59.5948 60.347 59.8449C60.2777 60.095 60.2635 60.3572 60.3055 60.6133L64.0334 83.3362Z" fill="#212121"/>
<path d="M228.257 185.734C228.11 185.734 227.969 185.676 227.865 185.572C227.762 185.468 227.703 185.328 227.703 185.181L227.762 117.139C227.762 116.992 227.82 116.852 227.924 116.748C228.028 116.644 228.169 116.586 228.316 116.586C228.463 116.586 228.604 116.644 228.708 116.748C228.812 116.852 228.87 116.992 228.87 117.139L228.812 185.181C228.812 185.328 228.753 185.468 228.649 185.572C228.545 185.676 228.404 185.734 228.257 185.734Z" fill="#212121"/>
<path d="M217.543 178.541H238.974C240.935 178.541 242.814 179.318 244.2 180.701C245.586 182.085 246.365 183.961 246.365 185.917H210.152C210.152 183.961 210.931 182.085 212.317 180.701C213.703 179.318 215.583 178.541 217.543 178.541Z" fill="white"/>
<path d="M246.364 186.471H210.152C210.005 186.471 209.864 186.412 209.76 186.308C209.656 186.205 209.598 186.064 209.598 185.917C209.6 183.815 210.438 181.8 211.927 180.313C213.417 178.827 215.436 177.991 217.542 177.988H238.974C241.08 177.991 243.1 178.827 244.589 180.313C246.078 181.8 246.916 183.815 246.919 185.917C246.919 186.064 246.86 186.205 246.756 186.308C246.652 186.412 246.511 186.471 246.364 186.471ZM210.728 185.364H245.788C245.647 183.657 244.868 182.065 243.606 180.904C242.344 179.742 240.691 179.097 238.974 179.095H217.542C215.826 179.097 214.173 179.742 212.911 180.904C211.649 182.065 210.87 183.657 210.728 185.364Z" fill="#212121"/>
<path d="M249.783 66.4297C248.827 66.4297 247.911 66.8085 247.235 67.4828C246.56 68.1572 246.18 69.0718 246.18 70.0254V116.954H203.316C203.316 119.693 204.406 122.319 206.347 124.256C208.287 126.192 210.919 127.28 213.663 127.28H243.039C245.783 127.28 248.415 126.192 250.355 124.256C252.296 122.319 253.386 119.693 253.386 116.954V70.0254C253.386 69.0718 253.006 68.1572 252.33 67.4828C251.655 66.8085 250.738 66.4297 249.783 66.4297Z" fill="white"/>
<path d="M243.039 127.834H213.662C210.772 127.83 208.002 126.683 205.958 124.644C203.914 122.604 202.765 119.839 202.762 116.954C202.762 116.808 202.82 116.667 202.924 116.563C203.028 116.459 203.169 116.401 203.316 116.401H245.625V70.0258C245.625 68.9255 246.063 67.8702 246.843 67.0921C247.623 66.3141 248.68 65.877 249.782 65.877C250.885 65.877 251.942 66.3141 252.722 67.0921C253.502 67.8702 253.939 68.9255 253.939 70.0258V116.954C253.936 119.839 252.787 122.604 250.743 124.644C248.7 126.683 245.929 127.83 243.039 127.834ZM203.886 117.508C204.03 119.999 205.123 122.341 206.94 124.055C208.757 125.768 211.162 126.724 213.662 126.727H243.039C245.635 126.724 248.124 125.694 249.96 123.862C251.795 122.03 252.828 119.545 252.831 116.954V70.0258C252.831 69.2189 252.51 68.445 251.938 67.8745C251.366 67.3039 250.591 66.9833 249.782 66.9833C248.974 66.9833 248.199 67.3039 247.627 67.8745C247.055 68.445 246.734 69.2189 246.734 70.0258V116.954C246.734 117.101 246.676 117.242 246.572 117.346C246.468 117.449 246.327 117.508 246.18 117.508H203.886Z" fill="#212121"/>
<path d="M41.1462 17.9941H62.7149V45.2295H41.1462C38.8858 45.2295 36.7179 44.335 35.1195 42.7427C33.5212 41.1505 32.6231 38.991 32.623 36.7392V26.4848C32.623 24.2329 33.521 22.0733 35.1194 20.481C36.7178 18.8887 38.8857 17.9941 41.1462 17.9941Z" fill="#C7CBE0"/>
<path d="M71.3382 17.9668H55.9327C53.7107 17.9668 51.5797 18.8461 50.0085 20.4113C48.4374 21.9765 47.5547 24.0994 47.5547 26.3129V36.856C47.5547 37.9521 47.7714 39.0375 48.1925 40.0501C48.6136 41.0627 49.2308 41.9828 50.0088 42.7579C50.7869 43.5329 51.7105 44.1476 52.7271 44.567C53.7436 44.9864 54.8332 45.2022 55.9334 45.2021H58.6832L62.561 50.1136C62.6891 50.2756 62.8524 50.4065 63.0386 50.4966C63.2249 50.5866 63.4292 50.6334 63.6362 50.6334C63.8432 50.6334 64.0475 50.5866 64.2338 50.4966C64.42 50.4065 64.5833 50.2756 64.7114 50.1136L68.5892 45.2021H71.3382C72.4385 45.2021 73.5279 44.9863 74.5444 44.5669C75.5609 44.1474 76.4845 43.5327 77.2624 42.7577C78.0404 41.9826 78.6575 41.0626 79.0786 40.05C79.4996 39.0374 79.7163 37.9521 79.7163 36.856V26.3129C79.7163 24.0994 78.8336 21.9765 77.2624 20.4113C75.6912 18.8461 73.5602 17.9668 71.3382 17.9668V17.9668Z" fill="#C7CBE0"/>
<path d="M68.4027 27.6065H44.1208C43.9748 27.6065 43.8348 27.5487 43.7315 27.4459C43.6283 27.343 43.5703 27.2036 43.5703 27.0581C43.5703 26.9127 43.6283 26.7732 43.7315 26.6704C43.8348 26.5675 43.9748 26.5098 44.1208 26.5098H68.4027C68.5487 26.5098 68.6887 26.5675 68.7919 26.6704C68.8951 26.7732 68.9531 26.9127 68.9531 27.0581C68.9531 27.2036 68.8951 27.343 68.7919 27.4459C68.6887 27.5487 68.5487 27.6065 68.4027 27.6065Z" fill="#212121"/>
<path d="M68.4027 31.6592H44.1208C43.9748 31.6592 43.8348 31.6014 43.7315 31.4986C43.6283 31.3958 43.5703 31.2563 43.5703 31.1109C43.5703 30.9654 43.6283 30.8259 43.7315 30.7231C43.8348 30.6203 43.9748 30.5625 44.1208 30.5625H68.4027C68.5487 30.5625 68.6887 30.6203 68.7919 30.7231C68.8951 30.8259 68.9531 30.9654 68.9531 31.1109C68.9531 31.2563 68.8951 31.3958 68.7919 31.4986C68.6887 31.6014 68.5487 31.6592 68.4027 31.6592Z" fill="#212121"/>
<path d="M68.4027 35.712H44.1208C43.9748 35.712 43.8348 35.6542 43.7315 35.5514C43.6283 35.4485 43.5703 35.309 43.5703 35.1636C43.5703 35.0182 43.6283 34.8787 43.7315 34.7758C43.8348 34.673 43.9748 34.6152 44.1208 34.6152H68.4027C68.5487 34.6152 68.6887 34.673 68.7919 34.7758C68.8951 34.8787 68.9531 35.0182 68.9531 35.1636C68.9531 35.309 68.8951 35.4485 68.7919 35.5514C68.6887 35.6542 68.5487 35.712 68.4027 35.712Z" fill="#212121"/>
<path d="M291.04 9.00327L292.057 12.347C292.141 12.633 292.295 12.8932 292.505 13.104C292.715 13.3149 292.974 13.4698 293.258 13.5545L296.567 14.5762C296.62 14.5905 296.67 14.6156 296.713 14.65C296.756 14.6843 296.792 14.7272 296.818 14.7759C296.844 14.8247 296.86 14.8783 296.864 14.9334C296.869 14.9885 296.862 15.044 296.844 15.0964C296.825 15.1621 296.789 15.2219 296.74 15.2705C296.692 15.3191 296.633 15.355 296.567 15.375L293.258 16.3782C292.974 16.4629 292.715 16.6178 292.505 16.8286C292.295 17.0395 292.141 17.2997 292.057 17.5856L291.04 20.9294C291.006 21.0338 290.933 21.121 290.837 21.1729C290.741 21.2248 290.628 21.2374 290.523 21.2081C290.457 21.188 290.398 21.1522 290.349 21.1036C290.301 21.055 290.265 20.9952 290.245 20.9294L289.247 17.5856C289.16 17.3012 289.005 17.0425 288.796 16.8321C288.586 16.6217 288.329 16.4658 288.046 16.3782L284.719 15.375C284.615 15.3408 284.528 15.2676 284.476 15.1708C284.425 15.0739 284.412 14.9608 284.441 14.8549C284.461 14.7891 284.497 14.7293 284.545 14.6807C284.594 14.6321 284.653 14.5962 284.719 14.5762L288.046 13.5545C288.33 13.4698 288.589 13.3149 288.799 13.104C289.009 12.8932 289.163 12.633 289.247 12.347L290.245 9.00327C290.278 8.89751 290.35 8.80883 290.447 8.75661C290.544 8.7044 290.658 8.6929 290.763 8.72462C290.83 8.74166 290.891 8.77655 290.94 8.8256C290.989 8.87465 291.023 8.93603 291.04 9.00327Z" fill="#C7CBE0"/>
<path d="M290.343 36.0166C293.304 36.0166 295.704 33.6046 295.704 30.6294C295.704 27.6541 293.304 25.2422 290.343 25.2422C287.382 25.2422 284.982 27.6541 284.982 30.6294C284.982 33.6046 287.382 36.0166 290.343 36.0166Z" fill="white"/>
<path d="M290.343 36.5745C289.173 36.5745 288.029 36.2259 287.057 35.5727C286.084 34.9195 285.326 33.9911 284.878 32.9049C284.43 31.8187 284.313 30.6235 284.541 29.4703C284.77 28.3172 285.333 27.258 286.16 26.4267C286.987 25.5953 288.041 25.0291 289.189 24.7998C290.336 24.5704 291.526 24.6881 292.606 25.138C293.687 25.588 294.611 26.3499 295.261 27.3275C295.911 28.305 296.258 29.4543 296.258 30.63C296.256 32.2061 295.632 33.717 294.523 34.8314C293.415 35.9458 291.911 36.5727 290.343 36.5745ZM290.343 25.8001C289.392 25.8001 288.463 26.0834 287.673 26.6141C286.882 27.1448 286.266 27.8992 285.903 28.7817C285.539 29.6643 285.444 30.6354 285.629 31.5723C285.815 32.5092 286.272 33.3698 286.944 34.0453C287.617 34.7208 288.473 35.1808 289.405 35.3671C290.337 35.5535 291.304 35.4579 292.182 35.0923C293.06 34.7267 293.811 34.1077 294.339 33.3134C294.867 32.5191 295.149 31.5853 295.149 30.63C295.147 29.3495 294.641 28.1218 293.74 27.2164C292.839 26.3109 291.617 25.8016 290.343 25.8001Z" fill="#212121"/>
<path d="M290.343 51.4365C293.304 51.4365 295.704 49.0246 295.704 46.0493C295.704 43.074 293.304 40.6621 290.343 40.6621C287.382 40.6621 284.982 43.074 284.982 46.0493C284.982 49.0246 287.382 51.4365 290.343 51.4365Z" fill="white"/>
<path d="M290.343 51.9945C289.173 51.9945 288.029 51.6458 287.057 50.9926C286.084 50.3394 285.326 49.411 284.878 48.3248C284.43 47.2386 284.313 46.0434 284.541 44.8903C284.77 43.7371 285.333 42.6779 286.16 41.8466C286.987 41.0152 288.041 40.4491 289.189 40.2197C290.336 39.9903 291.526 40.108 292.606 40.558C293.687 41.0079 294.611 41.7698 295.261 42.7474C295.911 43.725 296.258 44.8743 296.258 46.05C296.256 47.626 295.632 49.1369 294.523 50.2514C293.415 51.3658 291.911 51.9926 290.343 51.9945ZM290.343 41.2201C289.392 41.2201 288.463 41.5033 287.673 42.034C286.882 42.5648 286.266 43.3191 285.903 44.2016C285.539 45.0842 285.444 46.0553 285.629 46.9922C285.815 47.9291 286.272 48.7898 286.944 49.4652C287.617 50.1407 288.473 50.6007 289.405 50.7871C290.337 50.9734 291.304 50.8778 292.182 50.5122C293.06 50.1467 293.811 49.5276 294.339 48.7333C294.867 47.939 295.149 47.0052 295.149 46.05C295.147 44.7694 294.641 43.5418 293.74 42.6363C292.839 41.7308 291.617 41.2215 290.343 41.2201Z" fill="#212121"/>
<path d="M329.334 15.4388H305.305C305.157 15.4388 305.016 15.3801 304.912 15.2756C304.808 15.1711 304.75 15.0293 304.75 14.8815C304.75 14.7337 304.808 14.592 304.912 14.4874C305.016 14.3829 305.157 14.3242 305.305 14.3242H329.334C329.482 14.3242 329.623 14.3829 329.727 14.4874C329.831 14.592 329.889 14.7337 329.889 14.8815C329.889 15.0293 329.831 15.1711 329.727 15.2756C329.623 15.3801 329.482 15.4388 329.334 15.4388Z" fill="#212121"/>
<path d="M329.334 31.2279H305.305C305.157 31.2279 305.016 31.1692 304.912 31.0646C304.808 30.9601 304.75 30.8184 304.75 30.6706C304.75 30.5228 304.808 30.381 304.912 30.2765C305.016 30.172 305.157 30.1133 305.305 30.1133H329.334C329.482 30.1133 329.623 30.172 329.727 30.2765C329.831 30.381 329.889 30.5228 329.889 30.6706C329.889 30.8184 329.831 30.9601 329.727 31.0646C329.623 31.1692 329.482 31.2279 329.334 31.2279Z" fill="#212121"/>
<path d="M329.334 47.2044H305.305C305.157 47.2044 305.016 47.1457 304.912 47.0412C304.808 46.9367 304.75 46.7949 304.75 46.6471C304.75 46.4993 304.808 46.3576 304.912 46.2531C305.016 46.1486 305.157 46.0898 305.305 46.0898H329.334C329.482 46.0898 329.623 46.1486 329.727 46.2531C329.831 46.3576 329.889 46.4993 329.889 46.6471C329.889 46.7949 329.831 46.9367 329.727 47.0412C329.623 47.1457 329.482 47.2044 329.334 47.2044Z" fill="#212121"/>
<path d="M88.0845 185.928H58.0141L51.3652 141.299H94.5606L88.0845 185.928Z" fill="white"/>
<path d="M88.0849 186.472H58.0145C57.8837 186.472 57.7573 186.426 57.6582 186.34C57.5592 186.255 57.4941 186.137 57.4749 186.008L50.8262 141.378C50.8147 141.301 50.82 141.222 50.8419 141.147C50.8637 141.072 50.9015 141.002 50.9527 140.943C51.0039 140.884 51.0673 140.836 51.1385 140.803C51.2098 140.771 51.2873 140.754 51.3657 140.754H94.5611C94.6393 140.754 94.7165 140.771 94.7877 140.803C94.8588 140.836 94.9221 140.883 94.9733 140.942C95.0244 141.001 95.0623 141.07 95.0843 141.145C95.1063 141.22 95.1119 141.299 95.1007 141.376L88.6247 186.006C88.606 186.135 88.5411 186.254 88.442 186.34C88.3428 186.425 88.2161 186.472 88.0849 186.472ZM58.4852 185.383H87.6129L93.9309 141.843H51.9984L58.4852 185.383Z" fill="#212121"/>
<path d="M61.0547 141.299L66.3708 185.928H72.6164L80.0719 185.909L85.6908 141.299H61.0547Z" fill="white"/>
<path d="M66.3721 186.472C66.2385 186.472 66.1097 186.423 66.0098 186.335C65.91 186.246 65.8462 186.125 65.8304 185.992L60.5136 141.363C60.5045 141.286 60.5117 141.209 60.5348 141.135C60.5578 141.062 60.5962 140.994 60.6473 140.937C60.6985 140.879 60.7613 140.833 60.8315 140.802C60.9018 140.77 60.978 140.754 61.055 140.754H85.6911C85.7685 140.754 85.845 140.77 85.9155 140.802C85.9861 140.834 86.049 140.88 86.1002 140.938C86.1514 140.996 86.1897 141.064 86.2125 141.138C86.2352 141.212 86.242 141.29 86.2324 141.366L80.6143 185.976C80.5977 186.108 80.5338 186.229 80.4345 186.316C80.3351 186.404 80.2071 186.453 80.0745 186.453L72.6182 186.472H66.3721ZM66.8564 185.383H72.6173L79.5917 185.365L85.0735 141.843H61.6692L66.8564 185.383Z" fill="#212121"/>
<path d="M72.7168 141.791L73.3739 185.436L72.7168 141.791Z" fill="white"/>
<path d="M73.3741 185.98C73.2308 185.98 73.0933 185.924 72.9913 185.823C72.8892 185.723 72.8308 185.587 72.8287 185.444L72.1719 141.799C72.1709 141.727 72.1839 141.656 72.2103 141.59C72.2367 141.523 72.276 141.463 72.3259 141.411C72.3758 141.36 72.4353 141.319 72.5011 141.291C72.5669 141.262 72.6376 141.247 72.7092 141.246H72.7176C72.8608 141.246 72.9983 141.302 73.1004 141.403C73.2024 141.503 73.2609 141.639 73.263 141.782L73.9199 185.427C73.921 185.499 73.908 185.57 73.8815 185.636C73.8551 185.703 73.8158 185.764 73.766 185.815C73.7161 185.866 73.6565 185.907 73.5908 185.936C73.525 185.964 73.4543 185.979 73.3826 185.98H73.3741Z" fill="#212121"/>
<path d="M92.2577 138.018H53.8348C50.8389 138.018 48.4102 140.442 48.4102 143.432C48.4102 146.423 50.8389 148.847 53.8348 148.847H92.2577C95.2537 148.847 97.6824 146.423 97.6824 143.432C97.6824 140.442 95.2537 138.018 92.2577 138.018Z" fill="#4F8C77"/>
<path d="M92.0465 157.799H54.0469V158.888H92.0465V157.799Z" fill="#212121"/>
<path d="M90.4105 171.773H55.6836V172.862H90.4105V171.773Z" fill="#212121"/>
<path d="M210.989 37.8509C213.451 37.8509 215.447 35.8556 215.447 33.3942C215.447 30.9328 213.451 28.9375 210.989 28.9375C208.527 28.9375 206.531 30.9328 206.531 33.3942C206.531 35.8556 208.527 37.8509 210.989 37.8509Z" fill="white"/>
<path d="M210.988 38.3974C209.998 38.3974 209.031 38.104 208.208 37.5544C207.385 37.0047 206.744 36.2234 206.365 35.3093C205.987 34.3953 205.887 33.3894 206.081 32.4191C206.274 31.4487 206.75 30.5574 207.45 29.8578C208.15 29.1582 209.041 28.6817 210.012 28.4887C210.982 28.2957 211.989 28.3947 212.903 28.7734C213.817 29.152 214.599 29.7932 215.148 30.6158C215.698 31.4384 215.992 32.4056 215.992 33.395C215.99 34.7213 215.462 35.9927 214.524 36.9305C213.586 37.8683 212.315 38.3959 210.988 38.3974ZM210.988 29.484C210.214 29.484 209.458 29.7134 208.815 30.1431C208.171 30.5729 207.67 31.1837 207.374 31.8983C207.078 32.613 207 33.3993 207.151 34.158C207.302 34.9167 207.675 35.6135 208.222 36.1605C208.769 36.7074 209.466 37.0799 210.225 37.2308C210.984 37.3817 211.77 37.3043 212.485 37.0083C213.2 36.7123 213.811 36.211 214.241 35.5678C214.671 34.9247 214.9 34.1685 214.9 33.395C214.899 32.3581 214.486 31.364 213.753 30.6308C213.02 29.8977 212.025 29.4852 210.988 29.484Z" fill="#212121"/>
<path fill-rule="evenodd" clip-rule="evenodd" d="M118.878 150.309C115.615 153.204 106.928 157.142 102.495 156.043C97.0504 154.709 92.615 153.225 92.615 153.225C90.6846 152.307 88.4902 152.107 86.4256 152.66C84.361 153.214 82.5614 154.485 81.3496 156.245L105.066 175.826L115.472 174.788L110.657 180.488L117.873 186.46L135.435 166.498" fill="white"/>
<path d="M117.874 187.006C117.747 187.006 117.624 186.962 117.526 186.88L110.31 180.909C110.255 180.863 110.209 180.806 110.175 180.742C110.142 180.678 110.121 180.609 110.114 180.537C110.108 180.465 110.116 180.392 110.138 180.324C110.159 180.255 110.195 180.191 110.241 180.136L114.187 175.465L105.121 176.37C105.05 176.377 104.977 176.369 104.908 176.348C104.839 176.328 104.775 176.293 104.72 176.247L81.003 156.666C80.8976 156.579 80.8287 156.456 80.8099 156.32C80.7911 156.185 80.8238 156.048 80.9015 155.935C82.1799 154.068 84.0825 152.718 86.2673 152.128C88.452 151.538 90.7757 151.747 92.8204 152.716C93.2218 152.849 97.5011 154.256 102.626 155.512C106.755 156.537 115.194 152.848 118.516 149.9C118.57 149.852 118.632 149.814 118.7 149.791C118.768 149.767 118.84 149.757 118.912 149.761C118.984 149.765 119.054 149.783 119.119 149.814C119.184 149.846 119.242 149.889 119.29 149.943C119.337 149.997 119.374 150.06 119.397 150.128C119.421 150.196 119.431 150.268 119.426 150.34C119.422 150.412 119.403 150.482 119.371 150.546C119.339 150.611 119.295 150.669 119.241 150.716C115.762 153.803 106.948 157.707 102.365 156.572C96.962 155.249 92.488 153.757 92.4436 153.742C92.4227 153.735 92.4022 153.727 92.3823 153.717C90.6476 152.887 88.6807 152.676 86.8092 153.119C84.9376 153.562 83.2744 154.633 82.0965 156.153L105.241 175.261L115.42 174.245C115.528 174.235 115.637 174.256 115.733 174.308C115.828 174.359 115.907 174.438 115.957 174.534C116.008 174.63 116.029 174.739 116.017 174.847C116.005 174.955 115.961 175.058 115.891 175.141L111.433 180.419L117.816 185.702L135.026 166.138C135.122 166.029 135.257 165.963 135.401 165.953C135.546 165.944 135.688 165.993 135.797 166.088C135.905 166.184 135.972 166.319 135.981 166.463C135.99 166.608 135.942 166.75 135.846 166.859L118.284 186.82C118.233 186.879 118.17 186.925 118.099 186.957C118.028 186.989 117.951 187.006 117.874 187.006Z" fill="#212121"/>
<path fill-rule="evenodd" clip-rule="evenodd" d="M188.936 169.734C187.823 173.285 185.832 176.364 182.837 177.417C177.444 179.302 175.869 182.68 176.183 187.015H202.71L208.35 178.102V187.015H216.538V169.734H188.936Z" fill="white"/>
<path d="M216.537 187.561H208.349C208.204 187.561 208.065 187.504 207.963 187.401C207.861 187.299 207.803 187.16 207.803 187.015V179.986L203.17 187.307C203.121 187.385 203.053 187.449 202.972 187.494C202.891 187.539 202.801 187.562 202.708 187.562H176.181C176.044 187.562 175.911 187.51 175.81 187.416C175.709 187.322 175.647 187.193 175.637 187.056C175.267 181.932 177.497 178.706 182.656 176.902C185.163 176.021 187.208 173.417 188.414 169.571C188.449 169.461 188.518 169.364 188.612 169.295C188.706 169.226 188.819 169.189 188.935 169.189H216.537C216.682 169.189 216.821 169.247 216.923 169.349C217.025 169.452 217.083 169.59 217.083 169.735V187.016C217.083 187.161 217.025 187.3 216.923 187.402C216.82 187.504 216.681 187.561 216.537 187.561ZM208.895 186.47H215.991V170.28H189.332C188.004 174.254 185.771 176.963 183.018 177.931C178.507 179.508 176.541 182.153 176.699 186.47H202.409L207.889 177.811C207.952 177.711 208.046 177.634 208.156 177.592C208.267 177.551 208.388 177.546 208.502 177.578C208.615 177.611 208.715 177.68 208.786 177.774C208.857 177.869 208.896 177.984 208.896 178.102L208.895 186.47Z" fill="#212121"/>
<path fill-rule="evenodd" clip-rule="evenodd" d="M130.923 84.068C126.152 80.2843 123.612 77.2305 123.305 74.9065C122.788 71.0046 123.025 68.1248 117.449 65.425C114.934 64.2136 110.99 62.7873 112.232 60.4291C113.097 58.8101 117.783 60.297 121.272 61.2693C117.308 57.8824 112.101 53.4437 113.53 51.5626C114.959 49.6815 119.038 52.5469 124.15 56.9687C119.391 51.1371 116.076 48.706 117.66 47.0488C119.298 45.3403 123.875 48.9444 127.79 53.254C128.448 52.9878 129.068 53.3152 129.649 54.2363C131.3 56.8486 134.029 61.8207 137.837 69.1526" fill="white"/>
<path d="M130.922 84.6139C130.799 84.6141 130.679 84.5724 130.583 84.4958C125.651 80.5849 123.093 77.4712 122.763 74.9785C122.712 74.5923 122.668 74.216 122.626 73.8489C122.245 70.5813 121.97 68.2205 117.211 65.9165C116.919 65.7757 116.605 65.6314 116.283 65.483C114.318 64.5778 112.093 63.5519 111.566 61.999C111.466 61.6992 111.431 61.3819 111.462 61.0676C111.494 60.7534 111.591 60.4493 111.749 60.1754C112.621 58.5415 115.732 59.1749 119.05 60.0806C115.17 56.706 111.594 53.2087 113.095 51.233C113.263 51.008 113.476 50.8213 113.722 50.6853C113.967 50.5493 114.239 50.4671 114.518 50.4443C115.722 50.3188 117.361 51.0209 119.797 52.768C118.654 51.4801 117.753 50.4359 117.237 49.5664C116.978 49.1286 116.19 47.797 117.265 46.6725C117.464 46.4695 117.703 46.3109 117.968 46.2072C118.232 46.1035 118.515 46.0569 118.799 46.0707C121.611 46.1084 125.988 50.491 127.967 52.6394C128.576 52.5359 129.356 52.751 130.11 53.9445C131.762 56.5582 134.524 61.5902 138.321 68.9008C138.388 69.0293 138.401 69.179 138.357 69.317C138.313 69.455 138.217 69.57 138.088 69.6367C137.96 69.7034 137.81 69.7163 137.672 69.6726C137.534 69.629 137.419 69.5323 137.352 69.4038C133.569 62.1203 130.822 57.1153 129.187 54.5275C128.559 53.5327 128.149 53.6977 127.995 53.7606C127.891 53.8025 127.777 53.8116 127.668 53.7868C127.559 53.7619 127.461 53.7042 127.386 53.6215C123.841 49.7199 120.465 47.1845 118.784 47.162C118.65 47.1498 118.516 47.1673 118.389 47.2132C118.263 47.2591 118.149 47.3322 118.054 47.4274C117.283 48.2329 118.415 49.5748 121.049 52.5328C122.087 53.6991 123.264 55.0212 124.572 56.6244C124.658 56.7302 124.702 56.8645 124.694 57.0007C124.686 57.137 124.627 57.2653 124.529 57.3604C124.431 57.4555 124.301 57.5105 124.165 57.5145C124.028 57.5185 123.895 57.4712 123.792 57.382C120.777 54.774 116.547 51.3307 114.632 51.5301C114.501 51.5384 114.373 51.5753 114.258 51.6381C114.142 51.701 114.042 51.7883 113.964 51.8939C113.716 52.2213 113.62 53.1192 115.765 55.4674C117.351 57.2037 119.602 59.1263 121.588 60.8226L121.627 60.8559C121.721 60.9366 121.785 61.0472 121.808 61.1692C121.831 61.2913 121.812 61.4176 121.754 61.5273C121.695 61.6369 121.601 61.7234 121.487 61.7723C121.373 61.8212 121.245 61.8297 121.125 61.7963C120.845 61.7181 120.557 61.6366 120.263 61.5537C117.66 60.8175 113.302 59.5856 112.714 60.6872C112.627 60.83 112.572 60.9898 112.552 61.1558C112.532 61.3218 112.549 61.49 112.6 61.6492C112.976 62.7579 115.064 63.7198 116.741 64.4925C117.069 64.6437 117.388 64.7907 117.687 64.9346C122.986 67.4994 123.322 70.3841 123.711 73.7232C123.753 74.085 123.797 74.4557 123.847 74.8361C124.134 77.004 126.629 79.9658 131.263 83.6416C131.352 83.712 131.416 83.8083 131.448 83.9172C131.479 84.026 131.476 84.1419 131.439 84.2489C131.402 84.3559 131.332 84.4486 131.24 84.5141C131.147 84.5797 131.037 84.6149 130.923 84.6148L130.922 84.6139Z" fill="#212121"/>
<path d="M139.262 72.0591C139.174 72.0593 139.087 72.038 139.008 71.997C138.93 71.956 138.863 71.8966 138.813 71.8239C138.774 71.768 138.53 71.421 138.286 71.0739C138.04 70.7239 137.795 70.3737 137.756 70.3177C137.734 70.287 137.716 70.2543 137.701 70.2198C136.729 67.9242 135.548 65.7508 134.405 63.649C133.9 62.7213 133.378 61.7618 132.881 60.8026C132.508 60.0971 132.091 59.4166 131.63 58.7652C131.59 58.706 131.561 58.6394 131.547 58.5692C131.532 58.4991 131.531 58.4267 131.545 58.3563C131.558 58.2859 131.585 58.2188 131.624 58.1588C131.664 58.0989 131.714 58.0472 131.774 58.0069C131.833 57.9665 131.9 57.9382 131.97 57.9236C132.04 57.909 132.112 57.9083 132.183 57.9217C132.253 57.935 132.32 57.9621 132.38 58.0014C132.44 58.0406 132.492 58.0913 132.532 58.1506C133.019 58.8395 133.46 59.5594 133.853 60.3056C134.343 61.2493 134.862 62.2042 135.363 63.1275C136.51 65.2363 137.695 67.4163 138.683 69.7414L139.178 70.4463C139.424 70.7961 139.669 71.1463 139.709 71.2025C139.765 71.2843 139.799 71.3801 139.805 71.4794C139.811 71.5787 139.79 71.6779 139.744 71.766C139.697 71.8542 139.628 71.9281 139.543 71.9797C139.458 72.0313 139.36 72.0586 139.261 72.0587L139.262 72.0591Z" fill="#212121"/>
<path fill-rule="evenodd" clip-rule="evenodd" d="M132.073 71.7603C130.11 69.2808 130.128 65.7652 129.066 62.3194C127.589 57.5729 127.083 54.3883 127.892 53.5333C129.056 52.3064 130.697 55.4672 132.478 58.9541C133.188 60.3441 135.007 63.6791 137.936 68.959" fill="white"/>
<path d="M132.073 72.3057C131.99 72.3058 131.909 72.2873 131.835 72.2514C131.76 72.2156 131.695 72.1633 131.644 72.0986C130.254 70.3425 129.813 68.1616 129.345 65.8529C129.121 64.7458 128.89 63.6013 128.543 62.4791C126.354 55.4428 126.896 53.7893 127.494 53.158C127.632 52.9979 127.808 52.8749 128.006 52.8002C128.203 52.7256 128.416 52.7017 128.626 52.7307C129.921 52.9179 131.129 55.1126 132.963 58.7051C133.668 60.0845 135.501 63.4448 138.413 68.6934C138.482 68.8199 138.499 68.9687 138.459 69.1073C138.418 69.2458 138.325 69.3629 138.199 69.4329C138.073 69.5029 137.924 69.52 137.785 69.4806C137.646 69.4413 137.529 69.3485 137.458 69.2227C134.54 63.9634 132.701 60.5918 131.991 59.2013C130.919 57.1025 129.299 53.931 128.47 53.8109C128.442 53.8065 128.391 53.7996 128.288 53.9088C128.064 54.1453 127.497 55.4368 129.587 62.1562C129.921 63.3016 130.198 64.4631 130.416 65.6363C130.857 67.8135 131.273 69.8701 132.501 71.4209C132.565 71.5012 132.604 71.5979 132.615 71.6998C132.627 71.8017 132.609 71.9046 132.564 71.9969C132.52 72.0892 132.45 72.167 132.363 72.2215C132.276 72.276 132.176 72.305 132.073 72.3051L132.073 72.3057Z" fill="#212121"/>
<path fill-rule="evenodd" clip-rule="evenodd" d="M267.037 51.5055C271.809 47.7218 274.348 44.668 274.655 42.3439C275.172 38.4421 277.475 35.9907 280.511 32.8624C281.495 31.8476 280.617 27.7831 277.128 28.7552C280.479 25.5294 275.673 22.3885 273.811 24.4062C278.569 18.5746 281.885 16.1435 280.3 14.4863C278.662 12.7778 274.085 16.3819 270.17 20.6915C269.512 20.4254 268.893 20.7528 268.311 21.6738C266.66 24.2861 263.931 29.2582 260.123 36.5901" fill="white"/>
<path d="M267.037 52.052C266.924 52.052 266.813 52.0168 266.721 51.9512C266.628 51.8856 266.559 51.7929 266.521 51.686C266.484 51.579 266.481 51.4631 266.512 51.3543C266.544 51.2455 266.609 51.1492 266.697 51.0788C271.332 47.4043 273.827 44.441 274.113 42.2734C274.666 38.1029 277.193 35.4987 280.118 32.4834C280.414 32.1782 280.47 31.0793 279.94 30.1876C279.556 29.5422 278.783 28.8615 277.274 29.2819C277.157 29.3145 277.032 29.3072 276.92 29.261C276.807 29.2149 276.713 29.1325 276.653 29.027C276.593 28.9215 276.569 28.7989 276.587 28.6787C276.604 28.5584 276.661 28.4473 276.749 28.3631C277.561 27.5809 277.883 26.7668 277.679 26.009C277.475 25.2512 276.751 24.5987 275.878 24.3837C275.559 24.3053 274.757 24.1859 274.21 24.7771C274.114 24.8812 273.981 24.9438 273.84 24.9516C273.698 24.9594 273.559 24.9117 273.452 24.8188C273.345 24.7259 273.278 24.5949 273.266 24.4537C273.254 24.3124 273.297 24.172 273.386 24.0621C274.694 22.4591 275.871 21.137 276.91 19.9708C279.543 17.0125 280.675 15.6706 279.904 14.8645C279.81 14.7695 279.695 14.6965 279.569 14.6507C279.443 14.6049 279.308 14.5875 279.174 14.5997C277.494 14.6222 274.117 17.1576 270.573 21.0592C270.498 21.1419 270.399 21.1996 270.29 21.2244C270.181 21.2493 270.067 21.2402 269.964 21.1983C269.81 21.1357 269.4 20.9695 268.771 21.9652C267.136 24.553 264.389 29.558 260.606 36.8415C260.54 36.97 260.425 37.0667 260.287 37.1103C260.149 37.154 259.999 37.1411 259.87 37.0744C259.742 37.0077 259.645 36.8927 259.602 36.7547C259.558 36.6167 259.571 36.467 259.638 36.3385C263.434 29.0279 266.197 23.9959 267.848 21.3822C268.602 20.1889 269.382 19.9741 269.992 20.0771C271.971 17.9286 276.348 13.5466 279.16 13.5084C279.443 13.4941 279.727 13.5402 279.991 13.6439C280.255 13.7476 280.495 13.9063 280.693 14.1096C281.769 15.2347 280.98 16.5664 280.721 17.0041C280.142 17.982 279.076 19.1797 277.725 20.6968C277.044 21.4608 276.303 22.2943 275.505 23.228C275.719 23.2404 275.931 23.2726 276.139 23.3243C277.407 23.6362 278.425 24.5794 278.733 25.7263C278.833 26.1213 278.852 26.5322 278.79 26.9347C278.727 27.3372 278.584 27.723 278.37 28.0691C278.886 28.0956 279.386 28.2528 279.825 28.5259C280.264 28.799 280.626 29.1791 280.877 29.6304C281.604 30.8526 281.615 32.5074 280.9 33.2438C278.11 36.1201 275.7 38.6044 275.194 42.4171C274.865 44.9092 272.307 48.0226 267.375 51.9343C267.279 52.0105 267.159 52.052 267.037 52.052Z" fill="#212121"/>
<path d="M258.697 39.4982C258.598 39.4981 258.5 39.4707 258.415 39.4191C258.33 39.3674 258.261 39.2935 258.214 39.2052C258.168 39.117 258.147 39.0178 258.153 38.9184C258.16 38.819 258.193 38.7232 258.25 38.6414C258.287 38.5869 258.514 38.264 258.75 37.9291C258.966 37.6211 259.189 37.3035 259.275 37.1809C260.263 34.856 261.448 32.676 262.595 30.5672C263.097 29.6438 263.616 28.6888 264.109 27.7389C264.501 26.9948 264.942 26.277 265.427 25.59C265.508 25.4704 265.634 25.3881 265.776 25.3611C265.919 25.3342 266.066 25.3648 266.185 25.4463C266.305 25.5278 266.387 25.6535 266.414 25.7957C266.441 25.938 266.411 26.0851 266.329 26.2047C265.87 26.854 265.453 27.5324 265.081 28.2355C264.58 29.2009 264.059 30.1604 263.554 31.0883C262.411 33.1901 261.23 35.3631 260.258 37.659C260.243 37.6934 260.225 37.7262 260.203 37.7568C260.163 37.8154 259.898 38.1934 259.642 38.5572C259.409 38.8896 259.183 39.211 259.146 39.2645C259.095 39.3367 259.028 39.3957 258.95 39.4364C258.872 39.4771 258.786 39.4983 258.697 39.4982Z" fill="#212121"/>
<path fill-rule="evenodd" clip-rule="evenodd" d="M267.121 35.4877C268.394 33.4867 268.38 31.4277 268.895 29.7577C270.372 25.0112 270.878 21.8266 270.069 20.9725C268.905 19.7455 267.451 22.6753 265.302 26.0295C264.406 27.4269 262.647 31.0044 260.025 36.762" fill="white"/>
<path d="M260.024 37.3063C259.933 37.3062 259.843 37.2833 259.763 37.2395C259.683 37.1957 259.615 37.1325 259.565 37.0557C259.516 36.9789 259.486 36.8909 259.48 36.7998C259.473 36.7087 259.49 36.6174 259.528 36.5343C262.185 30.6982 263.924 27.1652 264.841 25.7334C265.181 25.203 265.502 24.6858 265.812 24.1859C267.279 21.8226 268.248 20.2615 269.364 20.1476C269.57 20.1294 269.777 20.1607 269.968 20.2387C270.16 20.3168 270.33 20.4394 270.464 20.5964C271.063 21.2281 271.605 22.8815 269.415 29.9191C269.262 30.4572 269.137 31.003 269.042 31.5542C268.79 32.8538 268.505 34.3268 267.58 35.7801C267.503 35.9022 267.38 35.9885 267.238 36.0199C267.097 36.0514 266.949 36.0254 266.827 35.9477C266.705 35.87 266.618 35.747 266.587 35.6057C266.555 35.4645 266.581 35.3165 266.659 35.1943C267.473 33.9159 267.725 32.61 267.969 31.347C268.072 30.7566 268.206 30.1722 268.372 29.5962C270.463 22.876 269.895 21.5832 269.671 21.3471C269.556 21.225 269.497 21.231 269.474 21.2334C268.892 21.2929 267.748 23.1356 266.739 24.7615C266.427 25.2648 266.104 25.7854 265.759 26.3226C264.882 27.6909 263.119 31.2786 260.52 36.9867C260.477 37.0818 260.407 37.1625 260.319 37.2191C260.231 37.2758 260.129 37.306 260.024 37.3063Z" fill="#212121"/>
<path fill-rule="evenodd" clip-rule="evenodd" d="M277.129 28.7566C274.46 33.6074 272.398 35.6084 270.942 34.7595C269.487 33.9106 270.093 31.3032 272.762 26.9375" fill="white"/>
<path d="M271.629 35.4962C271.29 35.4962 270.958 35.4047 270.667 35.2314C270.427 35.0936 270.218 34.9078 270.053 34.6855C269.889 34.4633 269.772 34.2094 269.71 33.9398C269.343 32.4846 270.189 30.1016 272.295 26.6543C272.332 26.5918 272.381 26.5372 272.439 26.4937C272.497 26.4503 272.563 26.4188 272.633 26.4012C272.704 26.3835 272.777 26.3801 272.848 26.391C272.92 26.4019 272.989 26.427 273.051 26.4648C273.113 26.5026 273.166 26.5524 273.209 26.6111C273.251 26.6699 273.282 26.7365 273.298 26.8072C273.314 26.8778 273.316 26.9509 273.304 27.0224C273.292 27.0938 273.266 27.1621 273.227 27.2233C270.837 31.1343 270.57 32.889 270.769 33.673C270.795 33.8015 270.849 33.923 270.926 34.0292C271.004 34.1355 271.103 34.2241 271.217 34.2893C271.321 34.3504 271.437 34.3887 271.557 34.4015C271.677 34.4143 271.799 34.4013 271.914 34.3635C272.725 34.1392 274.205 32.939 276.65 28.495C276.683 28.4308 276.73 28.3741 276.786 28.328C276.842 28.2819 276.906 28.2474 276.976 28.2265C277.045 28.2057 277.118 28.1989 277.19 28.2065C277.262 28.2141 277.332 28.236 277.396 28.271C277.459 28.3059 277.515 28.3531 277.56 28.4099C277.605 28.4667 277.639 28.5319 277.658 28.6017C277.678 28.6715 277.683 28.7445 277.674 28.8164C277.665 28.8884 277.642 28.9578 277.606 29.0207C275.467 32.9102 273.7 35.002 272.205 35.4156C272.018 35.4683 271.824 35.4954 271.629 35.4962Z" fill="#212121"/>
<path fill-rule="evenodd" clip-rule="evenodd" d="M280.634 32.617C277.776 37.1323 275.829 38.8582 274.529 38.2379C273.228 37.6177 274.095 34.518 277.127 28.9395" fill="white"/>
<path d="M275.075 38.9091C274.804 38.9089 274.537 38.8475 274.294 38.7294C274.106 38.6384 273.94 38.5094 273.805 38.3505C273.671 38.1917 273.571 38.0066 273.511 37.8069C273.218 36.9045 273.225 34.9759 276.648 28.6778C276.682 28.6142 276.728 28.5579 276.784 28.5123C276.84 28.4666 276.904 28.4324 276.973 28.4117C277.042 28.391 277.115 28.3842 277.186 28.3916C277.258 28.399 277.328 28.4205 277.391 28.455C277.454 28.4894 277.51 28.536 277.555 28.5921C277.601 28.6482 277.634 28.7127 277.654 28.7819C277.674 28.8511 277.681 28.9236 277.673 28.9952C277.665 29.0668 277.642 29.1361 277.608 29.1991C274.479 34.9543 274.349 36.8514 274.55 37.47C274.563 37.5289 274.589 37.584 274.626 37.6315C274.663 37.679 274.711 37.7176 274.764 37.7445C275.331 38.015 276.788 37.6718 280.174 32.3237C280.212 32.2632 280.262 32.2108 280.32 32.1695C280.379 32.1282 280.445 32.0989 280.515 32.0832C280.585 32.0674 280.657 32.0656 280.728 32.0779C280.799 32.0901 280.866 32.1161 280.927 32.1545C280.987 32.1928 281.04 32.2427 281.081 32.3013C281.122 32.3599 281.152 32.426 281.167 32.4959C281.183 32.5658 281.185 32.6382 281.173 32.7088C281.16 32.7794 281.134 32.8469 281.096 32.9075C278.507 36.9974 276.603 38.9091 275.075 38.9091Z" fill="#212121"/>
<path fill-rule="evenodd" clip-rule="evenodd" d="M233.459 87.5104L189.609 92.4218L169.958 104.246L128.291 87.8742L138.908 66.4063L167.197 79.5456L180.85 60.5028C183.309 57.0731 186.883 54.6048 190.962 53.5203L202.314 50.5025L215.82 47.548C219.716 46.6956 223.784 47.1467 227.399 48.8318L242.198 55.7308L255.582 34.5664L277.23 47.0875L260.131 76.4696C258.02 80.0976 254.595 82.7762 250.565 83.9522C246.534 85.1282 242.206 84.7116 238.474 82.7886L234.588 80.786L230.855 78.8625L225.245 75.9715L230.548 78.7789L233.459 87.5104Z" fill="white"/>
<path d="M169.957 104.792C169.889 104.792 169.821 104.78 169.757 104.754L128.09 88.3829C128.02 88.3553 127.956 88.3134 127.903 88.2598C127.85 88.2062 127.808 88.1422 127.781 88.0717C127.754 88.0012 127.741 87.9259 127.745 87.8504C127.748 87.775 127.767 87.701 127.801 87.6333L138.418 66.1655C138.481 66.0378 138.592 65.9399 138.726 65.8927C138.86 65.8454 139.008 65.8526 139.137 65.9126L167.016 78.8614L180.405 60.1855C182.941 56.6558 186.622 54.1142 190.821 52.9938L202.173 49.9758L202.197 49.9702L215.703 47.0157C219.716 46.1454 223.904 46.6097 227.629 48.3381L241.992 55.0341L255.12 34.2755C255.195 34.1563 255.314 34.0709 255.451 34.0373C255.588 34.0036 255.732 34.0242 255.854 34.0949L277.503 46.616C277.565 46.6519 277.62 46.6997 277.663 46.7567C277.707 46.8136 277.739 46.8786 277.757 46.9478C277.776 47.0171 277.78 47.0893 277.771 47.1603C277.761 47.2314 277.738 47.2998 277.702 47.3618L260.602 76.7448C258.422 80.4954 254.884 83.2648 250.718 84.4803C246.553 85.6958 242.08 85.2644 238.224 83.2752L231.459 79.7893L233.976 87.3393C234.002 87.4165 234.01 87.4984 234 87.5791C233.99 87.6598 233.962 87.7372 233.918 87.8057C233.875 87.8742 233.816 87.932 233.747 87.975C233.678 88.018 233.6 88.045 233.519 88.054L189.788 92.9517L170.239 104.714C170.154 104.765 170.057 104.792 169.957 104.792ZM129.043 87.584L169.907 103.64L189.327 91.9552C189.394 91.9146 189.469 91.8891 189.547 91.8804L232.727 87.0441L230.099 79.1597L224.989 76.4548C224.861 76.3878 224.764 76.2726 224.721 76.1344C224.677 75.9963 224.691 75.8467 224.758 75.7184C224.825 75.59 224.94 75.4936 225.078 75.4503C225.216 75.4069 225.366 75.4202 225.494 75.4872L238.724 82.3044C242.331 84.1654 246.516 84.5691 250.412 83.4322C254.309 82.2952 257.619 79.7046 259.659 76.1959L276.483 47.2867L255.762 35.3022L242.659 56.0231C242.588 56.1351 242.478 56.2175 242.351 56.2549C242.224 56.2922 242.087 56.282 241.967 56.2261L227.169 49.3271C223.66 47.6998 219.717 47.2625 215.937 48.0816L202.443 51.0336L191.102 54.0487C187.147 55.1037 183.68 57.4973 181.293 60.8214L167.64 79.8644C167.566 79.9677 167.459 80.0418 167.336 80.0742C167.213 80.1065 167.082 80.0949 166.967 80.0414L139.161 67.1261L129.043 87.584Z" fill="#212121"/>
<path fill-rule="evenodd" clip-rule="evenodd" d="M182.872 126.439L173.741 128.585L135.524 166.543L113.33 144.683L156.669 102.288C158.985 100.118 161.9 98.6942 165.035 98.2004L187.062 93.6953" fill="white"/>
<path d="M135.523 167.089C135.38 167.089 135.243 167.033 135.141 166.932L112.946 145.072C112.894 145.021 112.853 144.961 112.825 144.894C112.797 144.827 112.783 144.755 112.783 144.682C112.783 144.61 112.798 144.538 112.826 144.471C112.854 144.404 112.896 144.344 112.947 144.293L156.287 101.899C158.679 99.6499 161.693 98.1739 164.936 97.6636L186.953 93.1613C187.023 93.1457 187.096 93.1443 187.168 93.1572C187.239 93.1701 187.307 93.1971 187.368 93.2365C187.428 93.2759 187.481 93.3271 187.521 93.3869C187.562 93.4467 187.591 93.5141 187.605 93.585C187.62 93.6559 187.62 93.729 187.606 93.8001C187.592 93.8711 187.564 93.9386 187.523 93.9987C187.483 94.0587 187.431 94.1102 187.37 94.15C187.31 94.1898 187.242 94.2172 187.171 94.2305L165.143 98.7356L165.119 98.74C162.091 99.2133 159.276 100.589 157.042 102.687L114.108 144.685L135.522 165.776L173.355 128.199C173.426 128.128 173.516 128.078 173.615 128.055L182.746 125.909C182.886 125.878 183.033 125.904 183.154 125.98C183.275 126.057 183.361 126.178 183.394 126.317C183.427 126.457 183.404 126.603 183.329 126.726C183.255 126.848 183.135 126.936 182.996 126.971L174.015 129.083L135.908 166.931C135.806 167.032 135.667 167.089 135.523 167.089Z" fill="#212121"/>
<path fill-rule="evenodd" clip-rule="evenodd" d="M230.364 78.7812L237.487 98.2006C238.28 100.363 238.568 102.678 238.328 104.968C238.089 107.259 237.328 109.464 236.105 111.416C234.882 113.367 233.228 115.013 231.271 116.228C229.314 117.442 227.104 118.192 224.812 118.422L214.624 119.44L218.725 169.733L187 169.655L181.179 106.09C180.856 102.557 181.94 99.0399 184.196 96.3022C186.453 93.5646 189.699 91.8281 193.229 91.4701L228.587 87.8847" fill="white"/>
<path d="M218.726 170.28H218.724L186.999 170.202C186.863 170.201 186.732 170.15 186.632 170.059C186.532 169.967 186.469 169.841 186.457 169.706L180.637 106.139C180.312 102.466 181.444 98.8126 183.79 95.9667C186.136 93.1209 189.506 91.3109 193.175 90.9274L228.533 87.342C228.675 87.3306 228.817 87.3754 228.926 87.4667C229.036 87.5581 229.105 87.6888 229.12 87.8309C229.134 87.9729 229.093 88.1149 229.003 88.2265C228.914 88.3381 228.785 88.4103 228.643 88.4277L193.285 92.0132C189.902 92.3669 186.794 94.0359 184.631 96.66C182.469 99.2841 181.424 102.653 181.724 106.04L187.499 169.112L218.133 169.187L214.081 119.486C214.07 119.343 214.114 119.202 214.206 119.092C214.298 118.982 214.429 118.912 214.571 118.898L224.759 117.88C226.968 117.659 229.098 116.935 230.984 115.765C232.871 114.594 234.465 113.008 235.644 111.127C236.823 109.246 237.556 107.12 237.787 104.912C238.018 102.704 237.74 100.473 236.976 98.3888L229.853 78.9693C229.804 78.8336 229.811 78.684 229.872 78.5533C229.932 78.4226 230.043 78.3213 230.178 78.2717C230.314 78.222 230.463 78.228 230.594 78.2883C230.725 78.3486 230.827 78.4583 230.878 78.5935L238 98.013C238.822 100.253 239.12 102.652 238.872 105.025C238.624 107.399 237.836 109.684 236.569 111.706C235.301 113.728 233.588 115.433 231.56 116.691C229.532 117.95 227.243 118.727 224.868 118.965L215.213 119.931L219.27 169.69C219.276 169.765 219.267 169.841 219.242 169.912C219.217 169.983 219.178 170.049 219.127 170.104C219.076 170.16 219.014 170.204 218.945 170.234C218.876 170.264 218.801 170.28 218.726 170.28L218.726 170.28Z" fill="#212121"/>
<path d="M237.92 63.3394C237.824 63.3393 237.729 63.3135 237.645 63.2646C237.562 63.2157 237.493 63.1456 237.445 63.0613C237.398 62.977 237.374 62.8816 237.375 62.7849C237.377 62.6882 237.404 62.5937 237.454 62.511L241.73 55.4486C241.805 55.3248 241.926 55.2359 242.067 55.2013C242.207 55.1668 242.356 55.1895 242.48 55.2645C242.603 55.3394 242.692 55.4605 242.727 55.6011C242.761 55.7417 242.739 55.8902 242.664 56.014L238.388 63.0763C238.339 63.1567 238.271 63.2232 238.189 63.2693C238.107 63.3153 238.014 63.3395 237.92 63.3394Z" fill="#212121"/>
<path fill-rule="evenodd" clip-rule="evenodd" d="M212.05 31.9592C213.018 32.9578 213.744 34.1646 214.173 35.487C214.602 36.8094 214.722 38.2125 214.525 39.5887C214.328 40.9649 213.818 42.2777 213.035 43.4266C212.252 44.5755 211.217 45.5299 210.008 46.2169L210.367 51.7026C210.47 53.3287 209.928 54.93 208.86 56.1601C207.791 57.3903 206.281 58.1506 204.656 58.2765C203.031 58.4025 201.422 57.8841 200.176 56.8333C198.931 55.7826 198.149 54.284 198 52.6614L197.022 41.6743L194.934 29.4853V26.5748L201.302 23.4824L208.398 24.21" fill="white"/>
<path d="M204.166 58.8449C202.481 58.8529 200.854 58.2259 199.611 57.0888C198.367 55.9516 197.598 54.3878 197.456 52.709L196.481 41.7442L194.396 29.5769C194.391 29.5464 194.389 29.5156 194.389 29.4847V26.5742C194.389 26.4717 194.417 26.3713 194.472 26.2845C194.526 26.1976 194.604 26.1278 194.696 26.083L201.064 22.9906C201.155 22.9458 201.258 22.9278 201.359 22.9386L208.455 23.6662C208.527 23.6725 208.597 23.6931 208.661 23.7267C208.725 23.7603 208.782 23.8064 208.828 23.8622C208.874 23.9179 208.909 23.9823 208.93 24.0516C208.951 24.1208 208.958 24.1936 208.95 24.2656C208.943 24.3376 208.921 24.4074 208.887 24.4709C208.852 24.5345 208.805 24.5905 208.749 24.6358C208.692 24.681 208.627 24.7146 208.558 24.7345C208.488 24.7544 208.415 24.7603 208.343 24.7519L201.402 24.0404L195.48 26.9158V29.4383L197.561 41.5816C197.563 41.5962 197.565 41.6107 197.566 41.6255L198.544 52.6126C198.663 54.0194 199.308 55.3296 200.35 56.2823C201.392 57.2351 202.755 57.7604 204.167 57.7536C204.291 57.7536 204.415 57.7498 204.54 57.7418C206.035 57.6415 207.43 56.954 208.42 55.8294C209.41 54.7047 209.914 53.2342 209.823 51.7389L209.464 46.2528C209.458 46.1507 209.48 46.0488 209.528 45.9587C209.577 45.8687 209.65 45.7941 209.739 45.7435C210.875 45.0978 211.849 44.2007 212.585 43.1209C213.321 42.041 213.8 40.8071 213.986 39.5136C214.171 38.2201 214.058 36.9013 213.655 35.6582C213.252 34.4151 212.57 33.2806 211.661 32.3417C211.562 32.2378 211.508 32.0991 211.511 31.9557C211.513 31.8122 211.572 31.6756 211.675 31.5752C211.777 31.4749 211.915 31.419 212.059 31.4197C212.202 31.4203 212.34 31.4774 212.442 31.5786C213.447 32.6159 214.207 33.8657 214.666 35.2357C215.124 36.6057 215.269 38.0611 215.09 39.4946C214.911 40.928 214.412 42.3031 213.631 43.5183C212.85 44.7335 211.805 45.758 210.575 46.5162L210.913 51.6678C211.022 53.4519 210.421 55.2069 209.24 56.5493C208.06 57.8918 206.396 58.7126 204.612 58.8325C204.462 58.8403 204.313 58.8449 204.166 58.8449Z" fill="#212121"/>
<path fill-rule="evenodd" clip-rule="evenodd" d="M195.475 31.2835C195.509 30.1946 195.757 29.1231 196.207 28.1306C196.656 27.138 197.297 26.2438 198.092 25.4994C198.888 24.755 199.823 24.1749 200.843 23.7924C201.863 23.41 202.949 23.2327 204.038 23.2707C205.127 23.3087 206.198 23.5613 207.189 24.0139C208.18 24.4666 209.073 25.1104 209.814 25.9085C210.556 26.7066 211.133 27.6433 211.512 28.6647C211.891 29.6862 212.064 30.7724 212.022 31.861" fill="white"/>
<path d="M212.022 32.4069H212.003C211.858 32.4019 211.722 32.3397 211.623 32.2339C211.524 32.1282 211.471 31.9876 211.476 31.843C211.514 30.827 211.351 29.8136 210.996 28.8607C210.642 27.9079 210.103 27.0343 209.41 26.29C208.717 25.5457 207.884 24.9453 206.959 24.5232C206.034 24.1011 205.035 23.8655 204.019 23.83C203.002 23.7945 201.989 23.9598 201.037 24.3164C200.084 24.6729 199.212 25.2138 198.469 25.9079C197.726 26.6021 197.127 27.436 196.707 28.3618C196.287 29.2876 196.053 30.2872 196.02 31.3033C196.017 31.3749 196.001 31.4454 195.971 31.5107C195.941 31.5759 195.899 31.6347 195.846 31.6836C195.794 31.7325 195.732 31.7706 195.665 31.7957C195.598 31.8208 195.527 31.8325 195.455 31.83C195.383 31.8275 195.313 31.8109 195.247 31.7812C195.182 31.7514 195.123 31.7092 195.075 31.6567C195.026 31.6043 194.987 31.5427 194.962 31.4755C194.937 31.4084 194.926 31.3369 194.928 31.2653C195.02 28.9339 196.031 26.7337 197.742 25.1461C199.452 23.5586 201.722 22.713 204.054 22.7944C206.386 22.8759 208.591 23.8777 210.187 25.5806C211.782 27.2835 212.638 29.5489 212.567 31.881C212.561 32.022 212.502 32.1556 212.4 32.2536C212.299 32.3517 212.163 32.4066 212.022 32.4069Z" fill="#212121"/>
<path d="M207.343 33.9784C207.214 33.9785 207.089 33.9328 206.99 33.8494C206.892 33.7661 206.826 33.6505 206.804 33.5231C206.783 33.3958 206.808 33.265 206.873 33.1539C206.939 33.0429 207.043 32.9589 207.165 32.9168L208.864 32.3288L206.301 29.0727C206.211 28.959 206.17 28.8143 206.187 28.6706C206.205 28.5269 206.278 28.3959 206.392 28.3064C206.506 28.2168 206.65 28.1762 206.794 28.1933C206.938 28.2104 207.069 28.2839 207.158 28.3977L210.197 32.257C210.251 32.3254 210.288 32.4056 210.304 32.4911C210.321 32.5765 210.316 32.6647 210.292 32.7482C210.267 32.8317 210.223 32.9081 210.163 32.9711C210.103 33.0341 210.029 33.0819 209.947 33.1103L207.522 33.9489C207.465 33.9686 207.404 33.9786 207.343 33.9784Z" fill="#212121"/>
<path d="M204.203 32.3213C204.717 32.124 204.974 31.5481 204.777 31.0349C204.58 30.5218 204.004 30.2658 203.489 30.4631C202.975 30.6604 202.718 31.2363 202.915 31.7494C203.112 32.2625 203.689 32.5186 204.203 32.3213Z" fill="#212121"/>
<path d="M211.078 30.2979C211.592 30.1006 211.849 29.5246 211.652 29.0115C211.455 28.4984 210.879 28.2423 210.364 28.4396C209.85 28.6369 209.593 29.2129 209.79 29.726C209.987 30.2391 210.564 30.4952 211.078 30.2979Z" fill="#212121"/>
<path d="M197.719 34.264C197.845 34.3264 198.212 34.3725 198.821 34.4025L197.418 27.6883L204.975 25.3404C206.417 25.7437 207.953 25.6413 209.328 25.0503C210.372 24.6084 211.285 23.9082 211.983 23.0156C212.68 22.123 213.139 21.0675 213.316 19.9486C213.492 18.8297 213.381 17.6843 212.992 16.6204C212.603 15.5565 211.949 14.6091 211.093 13.8676C210.236 13.1261 209.205 12.615 208.096 12.3824C206.987 12.1498 205.837 12.2033 204.755 12.538C203.673 12.8728 202.693 13.4776 201.909 14.2955C201.126 15.1134 200.563 16.1174 200.275 17.2129C199.203 16.871 198.055 16.8409 196.967 17.126C195.878 17.4112 194.893 17.9998 194.127 18.8233C193.36 19.6468 192.843 20.6712 192.637 21.7771C192.43 22.883 192.542 24.0248 192.96 25.0694C192.226 25.3044 189.87 27.8344 191.575 33.7774C191.676 34.1298 191.798 34.4756 191.942 34.8128C193.25 34.1072 195.43 33.1289 197.719 34.264Z" fill="#4F8C77"/>
<path fill-rule="evenodd" clip-rule="evenodd" d="M198.206 33.9435C197.569 33.2623 196.754 32.773 195.853 32.5308C194.952 32.2887 194.001 32.3033 193.108 32.5731C192.215 32.8429 191.416 33.357 190.8 34.0575C190.184 34.7579 189.776 35.6167 189.623 36.5367C189.469 37.4566 189.577 38.4012 189.932 39.2634C190.288 40.1257 190.877 40.8713 191.635 41.416C192.392 41.9606 193.287 42.2826 194.217 42.3455C195.148 42.4085 196.078 42.2098 196.902 41.772C197.228 41.6009 197.533 41.3904 197.808 41.1453" fill="white"/>
<path d="M194.546 42.91C194 42.9096 193.458 42.8287 192.936 42.6699C192.24 42.4608 191.593 42.1154 191.032 41.6537C190.471 41.1921 190.007 40.6235 189.668 39.9811C189.047 38.7957 188.874 37.4258 189.183 36.1235C189.491 34.8211 190.26 33.6741 191.348 32.8935C192.435 32.113 193.768 31.7514 195.101 31.8755C196.434 31.9995 197.677 32.6008 198.602 33.5686C198.701 33.6738 198.755 33.8143 198.75 33.959C198.746 34.1036 198.685 34.2407 198.579 34.34C198.474 34.4393 198.334 34.4927 198.189 34.4885C198.044 34.4843 197.907 34.4228 197.808 34.3175C197.064 33.5412 196.066 33.0593 194.996 32.9603C193.926 32.8613 192.856 33.1518 191.983 33.7785C191.109 34.4052 190.492 35.3259 190.244 36.3713C189.995 37.4168 190.133 38.5167 190.631 39.4689C190.905 39.9839 191.279 40.4398 191.73 40.8102C192.181 41.1807 192.701 41.4585 193.259 41.6277C193.818 41.7968 194.404 41.8541 194.985 41.7961C195.566 41.7381 196.13 41.566 196.644 41.2897C196.931 41.1393 197.199 40.9544 197.441 40.7393C197.494 40.6903 197.556 40.6524 197.624 40.6277C197.692 40.603 197.764 40.592 197.836 40.5954C197.909 40.5987 197.979 40.6164 198.045 40.6473C198.11 40.6782 198.168 40.7217 198.217 40.7754C198.265 40.829 198.302 40.8918 198.326 40.9599C198.35 41.0281 198.36 41.1003 198.356 41.1724C198.352 41.2445 198.333 41.315 198.302 41.3799C198.27 41.4448 198.226 41.5027 198.171 41.5504C197.863 41.8252 197.522 42.0613 197.156 42.2535C196.353 42.6831 195.457 42.9085 194.546 42.91Z" fill="#212121"/>
<path d="M193.094 39.0901C192.949 39.0939 192.809 39.0401 192.703 38.9405C192.598 38.8408 192.537 38.7035 192.533 38.5588C192.53 38.4141 192.583 38.2737 192.683 38.1687C192.783 38.0637 192.92 38.0025 193.065 37.9987L195.025 37.8937L192.468 35.8906C192.358 35.8 192.288 35.6701 192.273 35.5285C192.257 35.387 192.298 35.245 192.386 35.1329C192.474 35.0208 192.602 34.9475 192.743 34.9287C192.884 34.9098 193.027 34.9468 193.141 35.0318L196.841 37.9323C196.929 38.0008 196.993 38.0944 197.026 38.2005C197.059 38.3066 197.058 38.4202 197.025 38.5261C196.992 38.632 196.927 38.7252 196.839 38.7932C196.751 38.8613 196.644 38.9009 196.533 38.9068L193.122 39.0887C193.113 39.0901 193.103 39.0901 193.094 39.0901Z" fill="#212121"/>
<path d="M208.614 37.5645C208.124 37.5641 207.639 37.4779 207.179 37.3098C207.112 37.2853 207.05 37.2478 206.997 37.1993C206.944 37.1509 206.902 37.0926 206.871 37.0276C206.841 36.9626 206.824 36.8924 206.821 36.8208C206.818 36.7492 206.829 36.6776 206.853 36.6103C206.878 36.543 206.915 36.4811 206.964 36.4283C207.012 36.3754 207.071 36.3327 207.136 36.3024C207.201 36.2721 207.271 36.2549 207.342 36.2518C207.414 36.2487 207.486 36.2597 207.553 36.2842C208.236 36.5358 208.986 36.5357 209.668 36.2839C210.351 36.0321 210.921 35.5452 211.277 34.9107C211.311 34.8473 211.358 34.7915 211.415 34.7464C211.471 34.7013 211.536 34.6678 211.606 34.648C211.675 34.6281 211.748 34.6223 211.819 34.6307C211.891 34.6392 211.961 34.6618 212.024 34.6972C212.086 34.7327 212.142 34.7803 212.186 34.8372C212.231 34.8942 212.263 34.9594 212.282 35.0291C212.301 35.0988 212.306 35.1716 212.297 35.2432C212.288 35.3148 212.264 35.3839 212.228 35.4464C211.868 36.0887 211.344 36.6236 210.708 36.9959C210.073 37.3682 209.35 37.5644 208.614 37.5645Z" fill="#212121"/>
<path d="M204.762 63.544C201.878 63.5436 199.101 62.4488 196.992 60.4807C194.884 58.5126 193.601 55.8179 193.404 52.9409C193.394 52.7965 193.441 52.654 193.537 52.5448C193.632 52.4357 193.766 52.3687 193.911 52.3588C194.055 52.3488 194.197 52.3966 194.307 52.4916C194.416 52.5866 194.483 52.7211 194.493 52.8655C194.596 54.3559 195.022 55.8061 195.742 57.1154C196.461 58.4248 197.457 59.562 198.66 60.4482C199.863 61.3345 201.245 61.9485 202.709 62.2479C204.173 62.5472 205.684 62.5246 207.139 62.1817C208.593 61.8388 209.956 61.1838 211.132 60.2621C212.308 59.3403 213.269 58.1739 213.949 56.8436C214.63 55.5134 215.012 54.0512 215.071 52.5584C215.13 51.0656 214.863 49.5779 214.289 48.1984C214.234 48.0647 214.234 47.9144 214.289 47.7806C214.344 47.6468 214.45 47.5405 214.584 47.485C214.718 47.4296 214.868 47.4295 215.002 47.4848C215.136 47.5401 215.242 47.6463 215.298 47.78C216.018 49.512 216.299 51.395 216.117 53.2619C215.934 55.1287 215.293 56.9216 214.251 58.4812C213.209 60.0409 211.797 61.3191 210.142 62.2022C208.487 63.0853 206.639 63.5461 204.763 63.5436L204.762 63.544Z" fill="#212121"/>
<path d="M189.608 92.4227C189.464 92.4227 189.325 92.3652 189.222 92.2628C189.12 92.1605 189.062 92.0217 189.062 91.877V73.6863C189.062 73.5416 189.12 73.4028 189.222 73.3005C189.325 73.1981 189.464 73.1406 189.608 73.1406C189.753 73.1406 189.892 73.1981 189.994 73.3005C190.097 73.4028 190.154 73.5416 190.154 73.6863V91.877C190.154 92.0217 190.097 92.1605 189.994 92.2628C189.892 92.3652 189.753 92.4227 189.608 92.4227Z" fill="#212121"/>
<path d="M344.033 186.595C344.005 186.6 343.977 186.602 343.948 186.602L29.7204 186.62C29.5748 186.62 29.4352 186.562 29.3324 186.46C29.2296 186.357 29.172 186.218 29.1722 186.074C29.1724 185.929 29.2305 185.79 29.3336 185.688C29.4368 185.585 29.5765 185.528 29.7221 185.528L343.95 185.51C344.089 185.509 344.222 185.561 344.324 185.654C344.425 185.748 344.488 185.876 344.498 186.013C344.508 186.151 344.466 186.287 344.38 186.395C344.294 186.503 344.17 186.574 344.033 186.595Z" fill="#212121"/>
</g>
<defs>
<clipPath id="clip0">
<rect width="348.444" height="196" fill="white" transform="translate(0.5)"/>
</clipPath>
</defs>
</svg>
