<svg width="349" height="196" viewBox="0 0 349 196" fill="none" xmlns="http://www.w3.org/2000/svg">
<path d="M85.8794 185.112C85.926 185.112 85.9734 185.106 86.0205 185.093C86.3127 185.016 86.4864 184.717 86.4087 184.426L69.3862 120.687C69.3085 120.397 69.0088 120.223 68.7167 120.301C68.4244 120.378 68.2507 120.677 68.3285 120.968L85.3509 184.706C85.416 184.95 85.6375 185.112 85.8794 185.112Z" fill="#212121"/>
<path d="M32.7257 185.111C32.9916 185.111 33.2249 184.918 33.2661 184.648L43.0161 120.91C43.0617 120.612 42.8563 120.334 42.5575 120.288C42.2588 120.244 41.9795 120.448 41.9341 120.745L32.1841 184.484C32.1385 184.782 32.3439 185.06 32.6427 185.105C32.6705 185.109 32.6982 185.111 32.7257 185.111Z" fill="#212121"/>
<path d="M71.5697 120.827C71.5697 120.827 62.762 79.4901 62.561 78.3835C61.9315 74.9188 60.6127 71.6071 57.0845 70.9092C56.6446 70.8221 56.1974 70.7783 55.749 70.7783H52.0892H39.4001H35.7403C35.2919 70.7783 34.8447 70.8221 34.4049 70.9092C30.6909 71.6438 28.278 75.2381 28.6733 78.9141L37.124 121.156" fill="white"/>
<path d="M37.1233 121.702C37.1589 121.702 37.1948 121.698 37.2309 121.691C37.5274 121.632 37.7199 121.345 37.6608 121.05L29.215 78.8323C28.8521 75.3466 31.1746 72.1041 34.5115 71.4441C34.9152 71.3642 35.3286 71.3237 35.7402 71.3237H55.7488C56.1602 71.3237 56.5738 71.3642 56.9778 71.444C59.6429 71.9711 61.2458 74.2071 62.0223 78.4805C62.2226 79.5826 70.6745 119.252 71.0343 120.94C71.097 121.235 71.3877 121.423 71.6832 121.36C71.979 121.298 72.1678 121.008 72.105 120.714C72.0171 120.301 63.2968 79.3726 63.0994 78.2865C62.5539 75.2839 61.3478 71.1968 57.1909 70.3746C56.7171 70.281 56.2318 70.2334 55.7488 70.2334H35.7402C35.2573 70.2334 34.772 70.2808 34.2982 70.3746C30.4033 71.145 27.6935 74.9215 28.1291 78.9723C28.131 78.9884 28.1333 79.0046 28.1366 79.0208L36.5873 121.263C36.6389 121.522 36.8675 121.702 37.1233 121.702Z" fill="#212121"/>
<path d="M91.9392 120.282L36.552 120.276V121.003C36.552 122.416 37.7021 123.562 39.1208 123.562H94.6118L91.9392 120.282Z" fill="#212121"/>
<path d="M267.175 185.383C267.128 185.383 267.081 185.377 267.034 185.364C266.743 185.287 266.57 184.989 266.648 184.699L283.6 121.111C283.678 120.821 283.976 120.648 284.267 120.726C284.558 120.803 284.731 121.101 284.654 121.391L267.701 184.979C267.636 185.222 267.416 185.383 267.175 185.383Z" fill="#212121"/>
<path d="M320.111 185.383C319.846 185.383 319.614 185.19 319.572 184.921L309.862 121.333C309.817 121.036 310.022 120.759 310.319 120.713C310.617 120.668 310.895 120.872 310.94 121.169L320.65 184.757C320.696 185.054 320.491 185.331 320.193 185.376C320.166 185.381 320.138 185.383 320.111 185.383Z" fill="#212121"/>
<path d="M281.426 121.251C281.426 121.251 290.197 80.0124 290.398 78.9084C291.024 75.4519 292.338 72.1481 295.852 71.4518C296.29 71.365 296.735 71.3213 297.182 71.3213H300.826H313.464H317.108C317.555 71.3213 318 71.365 318.438 71.4518C322.137 72.1847 324.54 75.7705 324.146 79.4378L315.73 121.58" fill="white"/>
<path d="M315.731 122.124C315.696 122.124 315.66 122.12 315.624 122.113C315.329 122.055 315.137 121.768 315.196 121.474L323.607 79.3559C323.968 75.8784 321.655 72.6436 318.332 71.9852C317.93 71.9055 317.518 71.865 317.109 71.865H297.182C296.772 71.865 296.36 71.9055 295.958 71.985C293.304 72.5109 291.707 74.7416 290.934 79.0049C290.735 80.1044 282.317 119.68 281.959 121.364C281.897 121.658 281.607 121.846 281.313 121.783C281.018 121.721 280.83 121.432 280.893 121.138C280.98 120.726 289.665 79.8948 289.861 78.8113C290.405 75.8159 291.606 71.7385 295.746 70.9182C296.218 70.8248 296.701 70.7773 297.182 70.7773H317.109C317.589 70.7773 318.073 70.8247 318.545 70.9182C322.424 71.6868 325.122 75.4544 324.688 79.4955C324.687 79.5116 324.684 79.5278 324.681 79.5439L316.265 121.686C316.213 121.945 315.986 122.124 315.731 122.124Z" fill="#212121"/>
<path d="M261.14 120.708L316.3 120.702V121.427C316.3 122.837 315.155 123.98 313.742 123.98H258.478L261.14 120.708Z" fill="#212121"/>
<path d="M264.395 117.075L260.897 120.739L294.11 120.907C302.048 120.16 308.46 114.768 310.986 107.62L271.297 95.2065L265.643 89.0205L252.875 89.5663L249.409 97.026L252.145 115.766L258.712 122.68" fill="white"/>
<path d="M258.712 123.226C258.637 123.226 258.564 123.211 258.495 123.181C258.427 123.152 258.365 123.109 258.314 123.055L251.748 116.141C251.671 116.06 251.62 115.956 251.604 115.845L248.868 97.1046C248.852 96.9996 248.868 96.8925 248.913 96.7964L252.378 89.3367C252.421 89.2458 252.487 89.1683 252.571 89.1126C252.654 89.0569 252.751 89.0251 252.852 89.0209L265.619 88.475C265.699 88.4719 265.779 88.4861 265.853 88.5168C265.927 88.5474 265.993 88.5938 266.047 88.6526L271.602 94.7295L311.15 107.099C311.22 107.121 311.285 107.157 311.341 107.204C311.397 107.252 311.442 107.31 311.475 107.375C311.508 107.441 311.527 107.512 311.532 107.585C311.537 107.659 311.526 107.732 311.502 107.801C308.834 115.352 302.027 120.71 294.161 121.451C294.143 121.452 294.125 121.453 294.107 121.453L260.894 121.285C260.787 121.284 260.683 121.253 260.594 121.194C260.505 121.135 260.435 121.051 260.393 120.953C260.352 120.855 260.339 120.747 260.358 120.642C260.378 120.537 260.427 120.44 260.501 120.363L263.999 116.698C264.1 116.596 264.237 116.537 264.381 116.535C264.524 116.532 264.663 116.586 264.768 116.685C264.872 116.784 264.933 116.92 264.937 117.063C264.942 117.207 264.889 117.346 264.791 117.451L262.167 120.2L294.085 120.361C301.331 119.668 307.625 114.831 310.274 107.969L271.133 95.7273C271.041 95.6983 270.958 95.6455 270.893 95.5742L265.411 89.5767L253.231 90.0972L249.974 97.108L252.662 115.516L259.109 122.304C259.183 122.381 259.232 122.479 259.251 122.584C259.27 122.689 259.257 122.797 259.215 122.895C259.173 122.993 259.102 123.077 259.013 123.135C258.924 123.194 258.819 123.225 258.712 123.225L258.712 123.226Z" fill="#212121"/>
<path d="M254.792 73.7295L253.035 79.2147L248.497 79.1961L247.403 76.8309L254.792 73.7295Z" fill="white"/>
<path d="M262.082 74.407L270.282 61.0644C271.302 59.0502 272.847 57.3471 274.755 56.1341C276.662 54.921 278.862 54.2426 281.123 54.1703L283.639 54.0889C283.639 54.0889 283.148 61.5886 290.911 61.8761C298.403 62.153 297.718 53.6341 297.718 53.6341L300.275 53.5515C303.118 53.4598 305.908 54.3301 308.192 56.0207C310.477 57.7113 312.12 60.1229 312.857 62.8635C313.506 64.4852 313.804 66.2256 313.731 67.9704L314.373 100.924C314.282 103.589 313.158 106.115 311.236 107.968C309.314 109.822 306.746 110.859 304.073 110.86H304.054C302.58 110.859 301.122 110.544 299.781 109.934L269.726 96.5853C269.726 96.5853 280.743 100.444 283.487 88.1398C284.25 74.5321 271.613 77.0286 271.613 77.0286L262.082 74.407Z" fill="#6A9586"/>
<path d="M268.567 76.4816C268.536 76.4816 268.505 76.4789 268.474 76.4736C268.331 76.4493 268.204 76.3692 268.12 76.2511C268.036 76.1329 268.002 75.9864 268.027 75.8437L268.959 70.3913C268.985 70.2499 269.066 70.1244 269.184 70.042C269.302 69.9596 269.448 69.927 269.59 69.9512C269.732 69.9753 269.859 70.0544 269.943 70.1712C270.026 70.288 270.061 70.4331 270.038 70.5751L269.105 76.0275C269.083 76.1543 269.017 76.2694 268.919 76.3525C268.82 76.4356 268.696 76.4813 268.567 76.4816Z" fill="#212121"/>
<path d="M299.476 27.2393V20.2164C299.477 18.5376 298.809 16.9274 297.619 15.7401C296.429 14.5527 294.815 13.8853 293.132 13.8848H276.461C275.189 13.8848 273.97 14.3887 273.07 15.2857C272.171 16.1828 271.666 17.3994 271.666 18.668C271.666 19.2962 271.79 19.9182 272.031 20.4985C272.272 21.0789 272.625 21.6062 273.07 22.0504C273.516 22.4945 274.044 22.8469 274.626 23.0872C275.208 23.3276 275.831 23.4513 276.461 23.4513L289.959 23.7679C290.557 23.7822 291.125 24.0328 291.539 24.4646C291.952 24.8964 292.177 25.4743 292.164 26.0713L292.045 31.6623C292.03 32.3368 292.24 32.9972 292.642 33.5398L299.476 27.2393Z" fill="white"/>
<path d="M292.642 34.0855C292.625 34.0855 292.608 34.0855 292.59 34.083C292.514 34.0759 292.44 34.0528 292.373 34.0151C292.306 33.9775 292.248 33.9262 292.202 33.8647C291.726 33.2259 291.479 32.4469 291.498 31.6515L291.617 26.0604C291.626 25.608 291.456 25.1703 291.142 24.843C290.829 24.5157 290.399 24.3254 289.945 24.3138L276.448 23.9972C275.746 23.9964 275.052 23.8577 274.404 23.5891C273.756 23.3204 273.167 22.9272 272.672 22.4317C272.176 21.9362 271.784 21.3483 271.516 20.7014C271.248 20.0545 271.111 19.3613 271.112 18.6615C271.113 17.9617 271.252 17.2688 271.521 16.6226C271.79 15.9764 272.185 15.3894 272.681 14.8951C273.178 14.4009 273.767 14.009 274.416 13.742C275.064 13.475 275.759 13.338 276.461 13.3389H293.13C294.036 13.3389 294.932 13.5168 295.769 13.8624C296.605 14.2081 297.365 14.7147 298.005 15.3533C298.645 15.992 299.153 16.7502 299.499 17.5845C299.845 18.4189 300.023 19.3132 300.023 20.2163V27.2392C300.023 27.3144 300.007 27.3888 299.977 27.4577C299.947 27.5266 299.903 27.5885 299.847 27.6395L293.013 33.94C292.912 34.0334 292.78 34.0854 292.642 34.0855ZM276.461 14.4305C275.334 14.4305 274.254 14.877 273.457 15.6716C272.66 16.4663 272.213 17.5441 272.213 18.668C272.213 19.7918 272.66 20.8696 273.457 21.6643C274.254 22.4589 275.334 22.9054 276.461 22.9054L289.971 23.2221C290.714 23.241 291.42 23.5526 291.933 24.0887C292.446 24.6248 292.726 25.3419 292.711 26.0832L292.592 31.6739C292.584 32.016 292.647 32.3561 292.776 32.6729L298.929 27.0005V20.2163C298.929 18.6823 298.319 17.2109 297.232 16.1259C296.145 15.0408 294.67 14.431 293.132 14.4305H276.461Z" fill="#212121"/>
<path d="M233.883 165.479C233.21 168.974 230.508 172.113 225.101 173.796C219.746 175.467 217.205 179.586 217.661 184.558H245.141L255.604 170.334L258.976 177.976L268.534 173.636L260.046 154.987" fill="white"/>
<path d="M245.141 185.105H217.661C217.524 185.105 217.393 185.054 217.292 184.962C217.191 184.87 217.128 184.744 217.116 184.609C216.619 179.195 219.543 174.959 224.938 173.276C229.73 171.784 232.637 169.052 233.346 165.376C233.359 165.305 233.386 165.238 233.426 165.177C233.465 165.117 233.516 165.065 233.576 165.024C233.635 164.983 233.702 164.955 233.773 164.94C233.844 164.925 233.917 164.925 233.988 164.938C234.059 164.952 234.126 164.98 234.187 165.019C234.247 165.059 234.299 165.11 234.339 165.17C234.379 165.23 234.407 165.297 234.421 165.368C234.435 165.439 234.435 165.512 234.421 165.582C233.643 169.619 230.391 172.722 225.265 174.318C220.493 175.806 217.93 179.325 218.171 184.013H244.864L255.162 170.012C255.219 169.935 255.295 169.874 255.383 169.835C255.471 169.796 255.568 169.782 255.663 169.792C255.759 169.803 255.85 169.838 255.927 169.895C256.005 169.951 256.066 170.027 256.104 170.115L259.254 177.251L267.809 173.366L259.547 155.214C259.487 155.082 259.482 154.932 259.533 154.796C259.584 154.661 259.687 154.551 259.819 154.491C259.951 154.431 260.102 154.426 260.238 154.477C260.374 154.528 260.484 154.631 260.544 154.763L269.032 173.411C269.092 173.543 269.097 173.693 269.046 173.829C268.995 173.964 268.892 174.074 268.76 174.134L259.202 178.473C259.137 178.503 259.065 178.52 258.993 178.522C258.92 178.524 258.848 178.512 258.781 178.486C258.713 178.461 258.651 178.422 258.599 178.372C258.546 178.322 258.504 178.262 258.475 178.196L255.483 171.42L245.581 184.882C245.531 184.951 245.464 185.007 245.388 185.046C245.311 185.084 245.227 185.105 245.141 185.105Z" fill="#212121"/>
<path d="M254.093 128.796L265.192 152.925L232.164 166.168L228.798 159.068L212.2 124.499L205.876 111.345C202.026 102.768 208.792 92.6318 218.024 90.1154C218.885 89.8806 219.763 89.7126 220.65 89.6128C220.818 89.5947 220.986 89.5864 221.154 89.5881L252.836 89.7882" fill="white"/>
<path d="M232.164 166.715C232.06 166.715 231.958 166.685 231.871 166.63C231.783 166.574 231.713 166.495 231.669 166.402L228.304 159.302L211.706 124.735L205.383 111.582C203.731 107.903 203.86 103.699 205.741 99.7302C208.033 94.8914 212.684 91.0059 217.879 89.5898C218.767 89.348 219.673 89.1747 220.588 89.0714C220.777 89.0506 220.966 89.0412 221.156 89.0432L252.839 89.2434C252.984 89.2438 253.123 89.3018 253.225 89.4045C253.327 89.5072 253.385 89.6462 253.384 89.7909C253.384 89.9357 253.326 90.0744 253.223 90.1764C253.12 90.2784 252.98 90.3355 252.835 90.335H252.832L221.149 90.1349C221.003 90.1331 220.857 90.1402 220.711 90.1562C219.852 90.253 219.002 90.4158 218.168 90.6429C213.273 91.9772 208.891 95.6381 206.731 100.197C204.989 103.872 204.863 107.753 206.376 111.123L212.694 124.263L229.292 158.832L232.438 165.47L264.456 152.632L253.597 129.023C253.566 128.958 253.548 128.887 253.545 128.815C253.542 128.743 253.553 128.671 253.578 128.603C253.603 128.535 253.641 128.473 253.69 128.42C253.739 128.367 253.798 128.325 253.864 128.294C253.93 128.264 254.001 128.248 254.073 128.245C254.145 128.243 254.217 128.254 254.285 128.28C254.353 128.305 254.415 128.344 254.467 128.394C254.52 128.443 254.562 128.502 254.592 128.568L265.69 152.698C265.721 152.765 265.738 152.837 265.74 152.911C265.742 152.985 265.729 153.059 265.701 153.127C265.674 153.196 265.633 153.258 265.58 153.311C265.528 153.363 265.466 153.404 265.397 153.432L232.368 166.675C232.303 166.701 232.234 166.715 232.164 166.715Z" fill="#212121"/>
<path d="M191.301 154.515C189.115 155.623 186.58 156.149 183.831 156.174C177.538 156.233 172.3 155.863 172.3 155.863C169.944 155.406 167.502 155.798 165.409 156.969C163.316 158.14 161.707 160.013 160.869 162.257L186.04 174.067L203.12 172.858L199.461 180.376L208.964 184.838L213.967 174.261" fill="white"/>
<path d="M208.964 185.383C208.883 185.383 208.804 185.365 208.731 185.331L199.228 180.87C199.163 180.839 199.104 180.795 199.055 180.742C199.007 180.688 198.969 180.626 198.945 180.557C198.921 180.489 198.911 180.417 198.915 180.345C198.919 180.273 198.937 180.202 198.969 180.137L202.214 173.469L186.079 174.611C185.985 174.617 185.892 174.6 185.807 174.56L160.636 162.75C160.512 162.692 160.414 162.589 160.362 162.462C160.311 162.335 160.308 162.194 160.356 162.066C161.232 159.703 162.921 157.727 165.121 156.491C167.322 155.256 169.892 154.841 172.371 155.321C172.822 155.351 177.884 155.683 183.825 155.628C186.578 155.603 189.009 155.064 191.052 154.027C191.116 153.994 191.186 153.974 191.258 153.969C191.33 153.963 191.402 153.971 191.471 153.993C191.539 154.015 191.603 154.051 191.657 154.098C191.712 154.144 191.757 154.201 191.79 154.265C191.822 154.329 191.842 154.399 191.848 154.471C191.853 154.542 191.844 154.614 191.822 154.683C191.8 154.751 191.764 154.814 191.717 154.869C191.67 154.923 191.613 154.968 191.548 155C189.353 156.114 186.758 156.692 183.836 156.719C177.593 156.777 172.313 156.41 172.261 156.406C172.239 156.405 172.217 156.402 172.195 156.398C170.051 155.976 167.826 156.3 165.892 157.316C163.959 158.332 162.433 159.979 161.569 161.982L186.144 173.512L203.081 172.314C203.177 172.307 203.273 172.325 203.359 172.367C203.445 172.409 203.519 172.473 203.573 172.552C203.627 172.631 203.659 172.723 203.666 172.819C203.673 172.914 203.654 173.01 203.612 173.096L200.195 180.117L208.703 184.111L213.473 174.028C213.536 173.898 213.647 173.799 213.783 173.751C213.919 173.704 214.068 173.711 214.199 173.773C214.329 173.834 214.43 173.944 214.479 174.079C214.529 174.214 214.523 174.363 214.463 174.493L209.459 185.07C209.415 185.164 209.345 185.243 209.257 185.298C209.169 185.354 209.068 185.383 208.964 185.383Z" fill="#212121"/>
<path d="M294.272 85.3811C294.193 85.3811 294.116 85.3642 294.044 85.3314L278.292 78.1247C278.226 78.0953 278.166 78.0531 278.117 78.0006C278.067 77.9481 278.028 77.8863 278.003 77.8188C277.977 77.7513 277.965 77.6794 277.968 77.6073C277.97 77.5352 277.987 77.4643 278.017 77.3987C278.048 77.3331 278.09 77.2741 278.144 77.2252C278.197 77.1762 278.259 77.1383 278.327 77.1135C278.395 77.0887 278.467 77.0776 278.539 77.0809C278.612 77.0841 278.683 77.1016 278.748 77.1324L293.826 84.0307L295.188 73.6585C295.207 73.515 295.283 73.3848 295.398 73.2966C295.455 73.2529 295.52 73.2209 295.589 73.2023C295.659 73.1837 295.731 73.1789 295.802 73.1882C295.873 73.1975 295.942 73.2208 296.004 73.2566C296.067 73.2924 296.121 73.3401 296.165 73.3969C296.209 73.4538 296.241 73.5187 296.26 73.5879C296.278 73.6572 296.283 73.7294 296.274 73.8005L294.814 84.9062C294.797 85.0376 294.733 85.1582 294.633 85.2455C294.533 85.3329 294.405 85.3811 294.272 85.3811H294.272Z" fill="#212121"/>
<path d="M271.613 77.0285C272.897 76.6026 274.262 76.4798 275.602 76.6699C280.755 77.4005 284.285 82.5357 283.487 88.1397C282.688 93.7437 277.863 97.694 272.71 96.9639C269.177 96.4628 266.407 93.892 265.272 90.5191" fill="white"/>
<path d="M273.935 97.5964C273.499 97.5963 273.064 97.5655 272.633 97.5043C269.014 96.9912 265.995 94.3813 264.753 90.693C264.73 90.625 264.721 90.5532 264.726 90.4817C264.731 90.4102 264.75 90.3404 264.782 90.2762C264.814 90.212 264.858 90.1547 264.913 90.1076C264.967 90.0606 265.03 90.0246 265.098 90.0018C265.166 89.9789 265.238 89.9697 265.31 89.9747C265.381 89.9796 265.451 89.9985 265.516 90.0305C265.58 90.0624 265.637 90.1066 265.685 90.1607C265.732 90.2147 265.768 90.2775 265.791 90.3455C266.9 93.6399 269.581 95.9689 272.787 96.4234C277.634 97.1113 282.19 93.3602 282.945 88.0634C283.7 82.7665 280.371 77.8979 275.525 77.2107C274.27 77.0314 272.989 77.1466 271.786 77.5471C271.648 77.5925 271.498 77.5815 271.368 77.5163C271.239 77.4512 271.14 77.3374 271.095 77.1999C271.049 77.0623 271.06 76.9124 271.125 76.783C271.191 76.6537 271.305 76.5555 271.443 76.51C272.806 76.0563 274.257 75.926 275.68 76.1294C281.123 76.9012 284.869 82.3234 284.029 88.2164C283.256 93.6366 278.87 97.5964 273.935 97.5964Z" fill="#212121"/>
<path d="M235.682 69.0643C229.982 68.8529 223.174 69.5752 223.282 71.8942C223.376 74.0211 227.167 73.3356 234.192 73.8614C227.893 74.4722 223.314 75.3775 223.67 77.5624C224.03 79.731 230.388 79.0822 235.242 78.5631C232.332 80.3001 228.288 82.5054 228.836 84.1334C229.623 86.465 233.151 84.7279 235.585 83.8109C241.016 81.7751 241.958 84.269 245.135 86.1188C247.246 87.356 256.213 87.3273 258.556 84.835" fill="white"/>
<path d="M250.329 87.4748C247.953 87.4748 245.803 87.1428 244.858 86.5891C244.184 86.1835 243.533 85.7386 242.911 85.2568C241.045 83.8615 239.696 82.8531 235.779 84.3216C235.502 84.426 235.21 84.5416 234.909 84.6604C233.007 85.4114 230.851 86.2626 229.442 85.6105C229.174 85.4844 228.935 85.3032 228.741 85.0786C228.547 84.8541 228.403 84.5913 228.318 84.3074C227.767 82.6699 230.134 80.9939 232.843 79.3544C227.433 79.8577 223.493 79.8407 223.131 77.6516C223.085 77.3877 223.096 77.1171 223.164 76.8579C223.231 76.5987 223.353 76.3567 223.521 76.1482C224.185 75.2889 225.625 74.647 228.175 74.1334C224.817 74.0148 222.818 73.7953 222.736 71.9182C222.728 71.663 222.775 71.4091 222.874 71.1733C222.972 70.9375 223.119 70.7252 223.306 70.5504C225.068 68.777 231.085 68.348 235.703 68.519C235.775 68.5217 235.845 68.5384 235.911 68.5683C235.976 68.5982 236.035 68.6407 236.084 68.6932C236.133 68.7458 236.171 68.8075 236.196 68.8747C236.221 68.942 236.232 69.0135 236.23 69.0851C236.227 69.1568 236.21 69.2273 236.18 69.2925C236.15 69.3577 236.108 69.4164 236.055 69.4652C236.002 69.514 235.94 69.5519 235.873 69.5769C235.806 69.6019 235.734 69.6133 235.662 69.6107C230.051 69.4025 225.29 70.1052 224.083 71.3195C224.002 71.3864 223.938 71.4705 223.894 71.5658C223.849 71.661 223.827 71.7648 223.829 71.8697C223.873 72.864 225.591 72.9613 229.161 73.0741C230.628 73.1203 232.291 73.1726 234.234 73.3179C234.37 73.3281 234.498 73.389 234.592 73.4887C234.686 73.5884 234.739 73.7196 234.74 73.8563C234.742 73.9931 234.692 74.1254 234.6 74.2271C234.509 74.3288 234.382 74.3925 234.246 74.4056C230.535 74.7653 225.476 75.4063 224.388 76.8152C224.312 76.9058 224.257 77.0118 224.226 77.1259C224.196 77.2401 224.19 77.3595 224.211 77.4758C224.314 78.1001 225.615 78.4834 227.782 78.5258C230.051 78.5702 233.017 78.2529 235.184 78.0209C235.308 78.0077 235.433 78.037 235.538 78.1042C235.643 78.1714 235.721 78.2723 235.761 78.3903C235.801 78.5083 235.799 78.6362 235.755 78.7529C235.712 78.8696 235.63 78.9681 235.523 79.032C235.272 79.1823 235.011 79.336 234.746 79.4927C232.596 80.7637 228.996 82.8912 229.356 83.9604C229.394 84.1033 229.463 84.2363 229.557 84.3502C229.652 84.4642 229.77 84.5565 229.903 84.6209C230.885 85.0758 232.893 84.283 234.506 83.646C234.812 83.5251 235.11 83.4073 235.393 83.3004C239.873 81.6212 241.585 82.9014 243.568 84.3836C244.157 84.8409 244.773 85.2629 245.412 85.6476C247.318 86.7644 256.007 86.7502 258.158 84.4619C258.258 84.3612 258.394 84.3035 258.536 84.301C258.679 84.2985 258.816 84.3513 258.92 84.4484C259.024 84.5454 259.086 84.679 259.093 84.8208C259.099 84.9626 259.051 85.1014 258.956 85.2078C257.44 86.8211 253.662 87.4747 250.329 87.4748Z" fill="#212121"/>
<path d="M247.517 78.524C243.668 79.4049 243.359 74.766 240.584 72.902C236.741 70.3047 234.516 68.3057 234.6 67.2136C234.816 64.708 240.976 68.8565 247.029 70.7016C247.029 70.7016 254.233 73.5246 254.792 73.7278" fill="white"/>
<path d="M246.609 79.18C244.53 79.18 243.471 77.5167 242.521 76.0258C241.884 75.0252 241.225 73.9908 240.279 73.3555C234.634 69.5403 233.988 68.0484 234.055 67.1727C234.06 66.9555 234.12 66.7432 234.229 66.5549C234.338 66.3667 234.492 66.2085 234.677 66.0947C235.709 65.4841 237.551 66.2414 240.987 67.7473C242.893 68.5828 245.055 69.5294 247.189 70.1804C247.202 70.1846 247.216 70.1891 247.229 70.1944C247.301 70.2226 254.432 73.0172 254.979 73.2159C255.113 73.2667 255.223 73.3684 255.283 73.499C255.343 73.6295 255.349 73.7784 255.299 73.9133C255.25 74.0483 255.149 74.1584 255.019 74.2198C254.889 74.2813 254.74 74.2891 254.604 74.2415C254.054 74.0414 247.348 71.4138 246.848 71.2182C244.658 70.5488 242.474 69.5916 240.546 68.7469C238.336 67.7784 235.831 66.6806 235.236 67.0335C235.215 67.0455 235.161 67.0776 235.144 67.2611C235.122 67.5488 235.47 68.7882 240.89 72.4509C242.024 73.2126 242.746 74.3452 243.444 75.4403C244.635 77.3105 245.463 78.4342 247.393 77.9925C247.535 77.9601 247.683 77.9851 247.806 78.0619C247.929 78.1388 248.017 78.2613 248.049 78.4024C248.081 78.5435 248.056 78.6916 247.979 78.8143C247.902 78.937 247.779 79.0241 247.638 79.0564C247.301 79.1362 246.956 79.1776 246.609 79.18Z" fill="#212121"/>
<path d="M264.548 116.858L228.666 158.875L214.938 175.113L188.917 152.281L237.218 96.634C240.154 93.304 244.262 91.2273 248.691 90.8337L253.199 90.5938" fill="white"/>
<path d="M214.938 175.658C214.805 175.658 214.676 175.61 214.576 175.523L188.555 152.691C188.447 152.595 188.38 152.461 188.371 152.318C188.361 152.174 188.408 152.032 188.503 151.923L236.804 96.2764C239.829 92.8337 244.07 90.6893 248.642 90.2905L248.661 90.289L253.169 90.049C253.242 90.0443 253.314 90.0539 253.383 90.0773C253.451 90.1007 253.514 90.1375 253.569 90.1854C253.623 90.2334 253.667 90.2916 253.698 90.3567C253.73 90.4218 253.748 90.4924 253.752 90.5646C253.756 90.6367 253.745 90.7089 253.721 90.777C253.697 90.845 253.659 90.9076 253.61 90.961C253.561 91.0144 253.503 91.0577 253.437 91.0883C253.371 91.1188 253.3 91.1361 253.228 91.139L248.731 91.3779C244.443 91.7543 240.467 93.766 237.629 96.9941L189.686 152.228L214.88 174.334L228.248 158.522L264.132 116.504C264.226 116.393 264.36 116.325 264.505 116.313C264.649 116.302 264.793 116.348 264.903 116.442C265.014 116.536 265.082 116.67 265.094 116.814C265.106 116.958 265.059 117.101 264.965 117.212L229.082 159.228L215.356 175.464C215.309 175.52 215.251 175.566 215.187 175.599C215.122 175.632 215.051 175.652 214.978 175.657C214.965 175.658 214.95 175.658 214.938 175.658Z" fill="#212121"/>
<path d="M280.727 86.9689C280.424 92.7383 273.373 96.9138 268.66 92.8638C268.596 92.8119 268.535 92.7566 268.477 92.6982C266.447 90.8388 264.089 89.3032 260.176 90.2748C257.418 90.9607 253.393 92.4126 252.835 89.789C252.448 87.9696 257.085 86.081 260.452 84.5654C255.138 84.5145 248.18 84.4399 248.061 82.0437C247.943 79.6475 251.494 78.9507 258.381 79.0744C250.85 77.6189 248.193 78.1647 248.35 75.8595C248.614 72.0387 264.218 74.1019 269.408 76.2525C269.408 76.2525 270.657 76.7346 275.244 78.2393C279.923 79.7749 280.884 83.9468 280.727 86.9689Z" fill="white"/>
<path d="M272.919 95.0304C271.218 95.0253 269.576 94.402 268.302 93.277C268.223 93.211 268.155 93.1497 268.096 93.0902C265.918 91.0975 263.758 89.9473 260.308 90.8041C259.981 90.8852 259.637 90.9773 259.282 91.0721C257.154 91.6408 254.742 92.2854 253.327 91.4203C253.058 91.2536 252.828 91.0323 252.65 90.7706C252.473 90.509 252.353 90.213 252.299 89.902C251.908 88.0655 254.779 86.5322 257.978 85.0747C251.975 84.9455 247.632 84.4572 247.514 82.0703C247.49 81.7344 247.538 81.3972 247.655 81.0813C247.772 80.7654 247.956 80.4782 248.193 80.2387C248.962 79.4478 250.386 78.9484 252.698 78.7013C249.341 78.2159 247.66 77.9131 247.803 75.8222C247.834 75.3625 248.05 74.7053 248.9 74.1811C252.485 71.9689 265.154 73.8986 269.616 75.748C269.616 75.748 270.907 76.2423 275.414 77.7204C281.041 79.5671 281.385 84.8229 281.273 86.9967C281.108 90.1323 278.976 93.1005 275.967 94.3836C275.005 94.8027 273.969 95.0228 272.919 95.0304ZM262.491 89.4266C265.264 89.4266 267.184 90.773 268.847 92.296C268.855 92.3033 268.863 92.3107 268.87 92.3184C268.915 92.3627 268.961 92.4048 269.01 92.4443C270.85 94.0254 273.227 94.3639 275.538 93.3793C278.172 92.2572 280.037 89.6695 280.181 86.9405C280.281 85.017 279.983 80.369 275.074 78.7577C270.525 77.2658 269.262 76.7812 269.21 76.7614C264.541 74.8266 252.452 73.2736 249.477 75.1096C248.927 75.4493 248.904 75.7862 248.896 75.897C248.824 76.9546 249.474 77.1342 253.158 77.6646C254.569 77.8678 256.325 78.1209 258.486 78.5379C258.62 78.5638 258.74 78.6391 258.822 78.7488C258.903 78.8586 258.94 78.9948 258.926 79.1307C258.91 79.2659 258.845 79.3906 258.743 79.4808C258.641 79.571 258.509 79.6204 258.372 79.6195C254.974 79.5586 250.305 79.635 248.98 80.9981C248.847 81.1304 248.745 81.29 248.681 81.4659C248.617 81.6418 248.592 81.8296 248.608 82.0161C248.629 82.4371 249.147 83.2083 252.382 83.6425C254.783 83.9645 257.929 83.9947 260.457 84.0189C260.582 84.0203 260.702 84.0641 260.799 84.143C260.895 84.2219 260.961 84.3313 260.987 84.4529C261.012 84.5745 260.995 84.7012 260.939 84.812C260.882 84.9228 260.79 85.011 260.676 85.0622C260.401 85.1861 260.117 85.3125 259.829 85.4411C257.314 86.5612 253.106 88.4357 253.37 89.6751C253.394 89.8408 253.454 89.9993 253.545 90.1398C253.636 90.2803 253.757 90.3995 253.899 90.4893C254.912 91.1092 257.178 90.5037 258.999 90.0163C259.359 89.9198 259.71 89.8263 260.042 89.7433C260.843 89.5384 261.665 89.432 262.491 89.4266Z" fill="#212121"/>
<path d="M292.669 33.5203C292.67 32.2798 293.054 31.0699 293.769 30.0546C294.483 29.0394 295.494 28.268 296.663 27.8454C297.832 27.4228 299.104 27.3693 300.304 27.6922C301.505 28.0151 302.577 28.6987 303.375 29.6503C304.172 30.6019 304.657 31.7754 304.763 33.0113C304.869 34.2472 304.592 35.4858 303.968 36.5588C303.344 37.6319 302.404 38.4874 301.276 39.0092C300.148 39.531 298.886 39.6939 297.661 39.4756L297.723 54.8821C297.726 56.7185 297.004 58.4821 295.713 59.791C294.422 61.0998 292.665 61.8485 290.825 61.8748C288.984 61.9012 287.207 61.203 285.878 59.9316C284.55 58.6602 283.777 56.9179 283.728 55.0823L283.593 50.1999C281.244 49.5655 279.17 48.1773 277.691 46.2498C276.212 44.3222 275.411 41.9626 275.41 39.5353C275.42 37.7485 275.888 35.9938 276.769 34.4384L277.444 29.7286L277.443 29.7197C277.121 27.6041 277.426 25.4408 278.318 23.4951L290.321 23.5171C290.648 23.5177 290.971 23.583 291.273 23.7092C291.574 23.8355 291.847 24.0202 292.076 24.2526C292.305 24.485 292.486 24.7604 292.607 25.063C292.729 25.3655 292.789 25.6891 292.784 26.015L292.669 33.5203Z" fill="white"/>
<path d="M290.725 62.4241C288.76 62.421 286.872 61.6542 285.464 60.2863C284.055 58.9184 283.236 57.057 283.181 55.0969L283.057 50.6133C280.685 49.8801 278.611 48.4095 277.137 46.4164C275.662 44.4233 274.866 42.0121 274.863 39.5352C274.873 37.6913 275.347 35.8794 276.241 34.2655L276.891 29.7295C276.572 27.5314 276.894 25.2881 277.82 23.2682C277.864 23.173 277.934 23.0924 278.022 23.0359C278.11 22.9793 278.213 22.9492 278.318 22.9492H278.319L290.321 22.9712C290.721 22.972 291.116 23.0519 291.484 23.2062C291.852 23.3604 292.185 23.5861 292.465 23.87C292.745 24.154 292.966 24.4905 293.114 24.8602C293.262 25.2298 293.336 25.6252 293.33 26.0233L293.273 29.805C293.915 28.8659 294.789 28.1084 295.811 27.6058C296.834 27.1033 297.969 26.8728 299.106 26.9367C300.244 27.0007 301.346 27.3568 302.305 27.9707C303.264 28.5846 304.048 29.4353 304.58 30.4404C305.112 31.4454 305.375 32.5706 305.343 33.7068C305.311 34.8431 304.985 35.9517 304.397 36.9252C303.808 37.8988 302.978 38.7041 301.986 39.2631C300.994 39.8221 299.873 40.1158 298.734 40.1156C298.559 40.1156 298.385 40.1088 298.211 40.0953L298.27 54.8799C298.285 56.8474 297.522 58.7415 296.148 60.1528C294.774 61.564 292.897 62.379 290.925 62.4216C290.859 62.4234 290.792 62.4241 290.725 62.4241ZM278.675 24.0416C277.936 25.809 277.697 27.745 277.984 29.6387C277.992 29.6941 277.993 29.7503 277.986 29.8059L277.311 34.5155C277.302 34.5792 277.281 34.6408 277.251 34.6974C276.368 36.3265 275.958 37.8632 275.958 39.5351C275.96 41.842 276.722 44.0841 278.128 45.9161C279.534 47.748 281.504 49.0681 283.736 49.673C283.849 49.7037 283.95 49.77 284.023 49.8622C284.096 49.9545 284.137 50.0677 284.14 50.185L284.275 55.0676C284.321 56.7596 285.033 58.3655 286.257 59.5373C287.482 60.7092 289.12 61.3527 290.817 61.3285C292.513 61.3042 294.132 60.6142 295.322 59.4078C296.513 58.2015 297.179 56.576 297.176 54.8833L297.114 39.4781C297.114 39.3981 297.131 39.3191 297.165 39.2465C297.199 39.1739 297.248 39.1096 297.309 39.0582C297.371 39.0067 297.443 38.9693 297.52 38.9487C297.598 38.928 297.679 38.9246 297.758 38.9387C298.666 39.1002 299.6 39.0326 300.475 38.7421C301.35 38.4515 302.138 37.9473 302.768 37.2752C303.749 36.2328 304.285 34.8508 304.262 33.4214C304.239 31.9921 303.66 30.6277 302.647 29.6169C301.633 28.6061 300.265 28.0282 298.832 28.0056C297.399 27.983 296.014 28.5174 294.969 29.4957C294.437 29.9922 294.009 30.5885 293.708 31.2503C293.408 31.9122 293.241 32.6267 293.218 33.3528L293.215 33.5295C293.214 33.6743 293.156 33.8127 293.052 33.9142C292.949 34.0158 292.809 34.0723 292.664 34.0712C292.519 34.07 292.38 34.0115 292.278 33.9083C292.177 33.8052 292.12 33.6659 292.121 33.5211C292.121 33.4569 292.122 33.3927 292.124 33.3286L292.235 26.0077C292.239 25.7541 292.192 25.5024 292.097 25.267C292.003 25.0316 291.863 24.8173 291.684 24.6364C291.506 24.4556 291.294 24.3118 291.06 24.2135C290.825 24.1152 290.574 24.0643 290.319 24.0638L278.675 24.0416Z" fill="#212121"/>
<path d="M286.495 51.1337C285.383 51.1332 284.277 50.9746 283.21 50.6628C283.14 50.6433 283.075 50.6103 283.018 50.5656C282.961 50.5208 282.914 50.4653 282.879 50.4022C282.843 50.339 282.821 50.2696 282.813 50.1978C282.805 50.126 282.811 50.0534 282.832 49.9841C282.852 49.9148 282.886 49.8502 282.931 49.794C282.977 49.7379 283.033 49.6913 283.097 49.6569C283.16 49.6226 283.23 49.6012 283.302 49.594C283.374 49.5868 283.447 49.5939 283.516 49.615C285.03 50.0595 286.624 50.1588 288.181 49.9054C289.738 49.6521 291.218 49.0526 292.512 48.1514C292.571 48.1105 292.637 48.0816 292.707 48.0663C292.777 48.051 292.85 48.0496 292.921 48.0623C292.991 48.075 293.059 48.1014 293.12 48.1401C293.18 48.1788 293.232 48.229 293.273 48.2879C293.314 48.3467 293.343 48.4131 293.359 48.4831C293.374 48.5531 293.375 48.6255 293.363 48.6961C293.35 48.7666 293.323 48.834 293.285 48.8943C293.246 48.9546 293.195 49.0068 293.136 49.0477C291.189 50.4043 288.871 51.1323 286.495 51.1337Z" fill="#212121"/>
<path d="M280.663 35.578C280.583 35.578 280.504 35.5604 280.431 35.5265C280.359 35.4926 280.295 35.4432 280.243 35.3818C280.192 35.3204 280.155 35.2485 280.134 35.1711C280.114 35.0938 280.111 35.0129 280.125 34.9343L281.03 29.9836C281.059 29.8448 281.142 29.723 281.26 29.6441C281.379 29.5651 281.523 29.5352 281.663 29.5606C281.803 29.5861 281.928 29.6649 282.01 29.7805C282.093 29.896 282.127 30.0391 282.106 30.1794L281.326 34.4474L283.769 34.3071C283.841 34.3025 283.913 34.3122 283.981 34.3355C284.05 34.3589 284.113 34.3955 284.167 34.4432C284.221 34.4909 284.265 34.5488 284.296 34.6136C284.328 34.6783 284.346 34.7487 284.35 34.8205C284.354 34.8924 284.344 34.9644 284.32 35.0323C284.296 35.1002 284.259 35.1628 284.211 35.2164C284.163 35.2699 284.105 35.3135 284.039 35.3445C283.974 35.3755 283.904 35.3933 283.832 35.397L280.694 35.5771C280.684 35.5776 280.674 35.578 280.663 35.578Z" fill="#212121"/>
<path d="M281.019 30.0811C281.019 32.4463 279.363 34.3512 277.318 34.3512C275.274 34.3512 273.614 32.439 273.614 30.0811H281.019Z" fill="white"/>
<path d="M277.318 34.897C274.974 34.897 273.067 32.7366 273.067 30.081C273.067 29.9362 273.124 29.7974 273.227 29.695C273.329 29.5927 273.469 29.5352 273.614 29.5352H281.019C281.164 29.5352 281.303 29.5927 281.406 29.695C281.509 29.7974 281.566 29.9362 281.566 30.081C281.566 32.7366 279.661 34.897 277.318 34.897ZM274.194 30.6268C274.418 32.4226 275.734 33.8053 277.317 33.8053C278.901 33.8053 280.213 32.4226 280.437 30.6268H274.194Z" fill="#212121"/>
<path d="M290.759 30.0811C290.759 32.4463 289.103 34.3512 287.06 34.3512C285.017 34.3512 283.359 32.439 283.359 30.0811H290.759Z" fill="white"/>
<path d="M287.06 34.897C284.718 34.897 282.812 32.7366 282.812 30.081C282.812 29.9362 282.87 29.7974 282.972 29.695C283.075 29.5927 283.214 29.5352 283.359 29.5352H290.759C290.904 29.5352 291.043 29.5927 291.146 29.695C291.249 29.7974 291.306 29.9362 291.306 30.081C291.306 32.7366 289.402 34.897 287.06 34.897ZM283.94 30.6268C284.164 32.4226 285.478 33.8053 287.06 33.8053C288.642 33.8053 289.954 32.4226 290.178 30.6268H283.94Z" fill="#212121"/>
<path d="M293.625 30.6268H280.663C280.518 30.6268 280.379 30.5693 280.276 30.4669C280.174 30.3646 280.116 30.2257 280.116 30.081C280.116 29.9362 280.174 29.7974 280.276 29.695C280.379 29.5927 280.518 29.5352 280.663 29.5352H293.625C293.77 29.5352 293.909 29.5927 294.012 29.695C294.114 29.7974 294.172 29.9362 294.172 30.081C294.172 30.2257 294.114 30.3646 294.012 30.4669C293.909 30.5693 293.77 30.6268 293.625 30.6268Z" fill="#212121"/>
<path d="M282.732 43.1145C281.16 43.1145 279.512 41.9166 279.22 39.1573C279.212 39.0857 279.219 39.0134 279.24 38.9444C279.26 38.8754 279.294 38.8112 279.34 38.7554C279.385 38.6996 279.441 38.6533 279.505 38.6192C279.569 38.5852 279.638 38.564 279.71 38.5569L285.809 37.951C285.884 37.9435 285.96 37.9514 286.031 37.9743C286.103 37.9972 286.169 38.0346 286.225 38.0841C286.282 38.1336 286.328 38.1942 286.359 38.262C286.391 38.3299 286.409 38.4037 286.411 38.4786C286.495 41.3595 284.728 42.9881 282.94 43.108C282.871 43.1121 282.802 43.1145 282.732 43.1145ZM280.39 39.5863C280.765 41.4665 281.924 42.0822 282.866 42.0185C284.014 41.9415 285.147 40.9212 285.301 39.0985L280.39 39.5863Z" fill="#212121"/>
<path d="M299.618 35.3973C299.555 35.3973 299.492 35.3863 299.433 35.3647L295.546 33.9656C295.441 33.928 295.351 33.8595 295.286 33.7692C295.221 33.6789 295.186 33.5712 295.184 33.4603C295.182 33.3494 295.215 33.2406 295.277 33.1484C295.338 33.0562 295.427 32.9851 295.53 32.9444L300.816 30.8631C300.883 30.8353 300.956 30.8211 301.028 30.8213C301.101 30.8215 301.173 30.8362 301.24 30.8645C301.307 30.8928 301.367 30.9341 301.418 30.986C301.469 31.038 301.509 31.0995 301.536 31.1669C301.562 31.2344 301.575 31.3065 301.574 31.379C301.572 31.4516 301.556 31.523 301.526 31.5893C301.497 31.6555 301.454 31.7152 301.401 31.7649C301.348 31.8146 301.286 31.8532 301.218 31.8785L297.279 33.4292L299.803 34.3379C299.925 34.3814 300.027 34.4662 300.091 34.5773C300.156 34.6885 300.18 34.8188 300.157 34.9455C300.135 35.0721 300.069 35.1869 299.97 35.2695C299.871 35.3522 299.747 35.3974 299.618 35.3973H299.618Z" fill="#212121"/>
<path d="M49.7219 55.6333L67.1477 54.1885L73.8886 55.7825C75.7778 56.4794 78.3956 59.1227 78.987 61.0405L82.2644 78.0835L103.442 77.3517L106.481 89.6872L81.7182 90.2312L66.0591 94.5826" fill="white"/>
<path d="M121.866 83.9135C125.528 85.5173 129.339 87.6413 131.343 89.5624L131.973 90.7755L106.481 90.2316L104.33 79.7354" fill="white"/>
<path d="M131.973 91.3055C131.969 91.3055 131.965 91.3055 131.961 91.3053L106.47 90.7614C106.221 90.7561 106.01 90.5801 105.96 90.3375L103.809 79.8412C103.75 79.5544 103.936 79.2743 104.224 79.2158C104.512 79.1575 104.793 79.3424 104.852 79.6293L106.918 89.7107L131.088 90.2263L130.911 89.8845C129.132 88.2089 125.681 86.1636 121.652 84.3987C121.382 84.2809 121.26 83.9681 121.379 83.7C121.497 83.4319 121.811 83.3102 122.08 83.4282C126.267 85.2616 129.867 87.4119 131.712 89.1803C131.754 89.2204 131.789 89.2673 131.816 89.3187L132.446 90.5319C132.532 90.698 132.524 90.8971 132.425 91.0558C132.327 91.2113 132.156 91.3055 131.973 91.3055Z" fill="#212121"/>
<path d="M121.776 184.513H143.152C143.607 179.558 141.019 174.818 135.673 173.154C130.002 171.391 127.312 168.026 126.82 164.332L106.117 154.597L93.5536 161.124L99.9265 181.068L106.664 184.513H121.776Z" fill="white"/>
<path d="M143.152 185.043H106.664C106.579 185.043 106.496 185.023 106.42 184.984L99.6834 181.539C99.5574 181.475 99.4622 181.363 99.4191 181.228L93.0462 161.284C92.9678 161.039 93.078 160.773 93.3073 160.654L105.871 154.127C106.019 154.05 106.194 154.046 106.345 154.117L127.048 163.852C127.211 163.929 127.324 164.084 127.348 164.262C127.863 168.129 130.876 171.107 135.832 172.647C141.115 174.292 144.196 178.969 143.683 184.561C143.657 184.834 143.428 185.043 143.152 185.043ZM106.792 183.982H142.657C142.909 179.123 140.146 175.102 135.514 173.66C130.261 172.026 127.013 168.848 126.335 164.69L106.129 155.188L94.1966 161.387L100.367 180.697L106.792 183.982Z" fill="#212121"/>
<path d="M109.665 80.4913C108.085 80.1757 105.961 79.952 104.33 79.7354L109.665 80.4913Z" fill="white"/>
<path d="M109.666 81.0216C109.631 81.0216 109.596 81.0182 109.561 81.0111C108.401 80.7795 106.904 80.5932 105.583 80.429C105.122 80.3716 104.675 80.3159 104.26 80.2608C103.968 80.2221 103.763 79.9554 103.802 79.6653C103.841 79.3751 104.108 79.1708 104.4 79.2099C104.813 79.2646 105.257 79.3198 105.715 79.3769C107.054 79.5433 108.571 79.7321 109.77 79.9715C110.058 80.0291 110.245 80.3085 110.187 80.5955C110.137 80.8475 109.915 81.0216 109.666 81.0216Z" fill="#212121"/>
<path d="M108.366 87.5187C111.503 88.175 111.492 86.1062 115.09 85.5315C120.071 84.7338 123.181 83.7656 123.589 82.656C124.529 80.1014 116.464 81.434 109.665 80.4912" fill="white"/>
<path d="M109.474 88.175C109.115 88.175 108.714 88.1333 108.257 88.0375C107.969 87.9773 107.784 87.6963 107.845 87.4096C107.905 87.123 108.187 86.9394 108.476 86.9998C110.011 87.3209 110.627 86.9391 111.56 86.3607C112.337 85.8793 113.303 85.28 115.005 85.0081C122.057 83.8789 122.976 82.7827 123.089 82.4738C123.167 82.2639 123.119 82.1956 123.099 82.1665C122.663 81.5337 119.689 81.4856 117.066 81.4432C114.734 81.4055 112.091 81.3628 109.592 81.0162C109.301 80.9758 109.098 80.708 109.138 80.4181C109.178 80.1281 109.448 79.9259 109.739 79.966C112.173 80.3035 114.781 80.3458 117.083 80.3829C121.122 80.4483 123.263 80.5304 123.977 81.5662C124.15 81.8164 124.309 82.24 124.089 82.8382C123.789 83.6541 122.539 84.8755 115.174 86.0548C113.683 86.293 112.854 86.807 112.123 87.2605C111.37 87.7279 110.648 88.175 109.474 88.175Z" fill="#212121"/>
<path d="M106.42 90.2612C106.174 90.2612 105.952 90.0893 105.9 89.8391L103.399 77.8849L82.3475 78.8839C82.0852 78.8977 81.8523 78.716 81.8003 78.4594L78.6299 62.8519C77.7363 58.4514 73.2327 55.0307 67.9212 54.718C67.3729 54.6847 66.8181 54.6906 66.2717 54.7353L63.7181 54.956C63.4251 54.9811 63.167 54.7653 63.1417 54.4737C63.1163 54.1821 63.3332 53.925 63.626 53.8998L66.1821 53.6789C66.7814 53.6301 67.3869 53.6235 67.9846 53.6598C70.7148 53.8204 73.3764 54.7632 75.4785 56.3142C77.7177 57.9665 79.1681 60.1544 79.6732 62.6417L82.7532 77.8031L103.802 76.8043C104.062 76.7928 104.295 76.9706 104.349 77.2258L106.942 89.6229C107.002 89.9096 106.817 90.1904 106.529 90.2501C106.493 90.2577 106.457 90.2612 106.42 90.2612Z" fill="#212121"/>
<path d="M68.7092 156.835L69.0924 184.581L79.5767 184.447L79.371 176.126L94.9921 184.581H122.18C122.531 179.666 119.153 174.835 114.42 173.401C111.666 172.567 109.507 171.582 103.814 168.937C100.266 167.289 97.5345 164.898 96.0803 161.707" fill="white"/>
<path d="M122.18 185.111H94.992C94.9033 185.111 94.8158 185.089 94.7377 185.046L79.9259 177.03L80.1088 184.433C80.1124 184.575 80.0588 184.712 79.9601 184.814C79.8614 184.916 79.7259 184.975 79.5835 184.977L69.0992 185.111C68.805 185.114 68.564 184.88 68.5601 184.588L68.1769 156.842C68.1729 156.549 68.408 156.309 68.7019 156.305C68.9958 156.297 69.2375 156.535 69.2416 156.828L69.6174 184.044L79.0311 183.923L78.8385 176.139C78.8339 175.95 78.9308 175.772 79.093 175.674C79.2552 175.575 79.4579 175.57 79.6251 175.66L95.1273 184.05H121.671C121.759 179.54 118.649 175.236 114.265 173.908C111.501 173.071 109.363 172.1 103.588 169.418C99.7338 167.627 97.0446 165.106 95.5952 161.926C95.4737 161.659 95.5922 161.345 95.86 161.224C96.1275 161.103 96.4434 161.221 96.5647 161.487C97.9061 164.431 100.421 166.776 104.038 168.457C109.763 171.116 111.879 172.077 114.574 172.894C119.581 174.41 123.079 179.45 122.711 184.618C122.691 184.896 122.459 185.111 122.18 185.111Z" fill="#212121"/>
<path d="M75.6059 102.028C77.7659 101.152 79.0032 97.7224 80.3777 96.9991C83.2294 96.2382 86.3708 98.255 88.6892 98.5562C91.0077 98.8573 92.2854 99.3783 92.5404 97.3909C92.7955 95.4036 85.814 91.8622 85.814 91.8622L91.2061 92.0686C98.3406 92.8525 98.1822 89.667 98.1822 89.667H110.922C120.429 90.5983 127.378 99.0277 126.443 108.495C126.284 110.493 125.643 111.916 125.643 111.916L101.323 162.553L65.1303 156.208L73.6882 137.643L76.982 130.492L81.0678 120.836L55.9224 120.801C50.5742 120.794 46.0024 117.498 44.1344 112.836C44.1346 112.836 73.4459 102.903 75.6059 102.028Z" fill="#6A9586"/>
<path d="M49.722 55.6338C47.0774 55.8626 45.1643 56.0284 45.0812 56.0363C40.9008 56.4352 35.2085 60.2243 34.1838 69.9393L30.2745 102.561C29.9024 108.207 34.1975 113.085 39.8679 113.456C41.219 113.544 42.5743 113.366 43.856 112.932L74.8116 102.343" fill="white"/>
<path d="M40.5497 114.008C40.3114 114.008 40.0725 114 39.8329 113.984C36.9485 113.796 34.3105 112.5 32.4048 110.336C30.4992 108.171 29.5538 105.398 29.7432 102.526C29.7439 102.516 29.7448 102.507 29.7458 102.497L33.6551 69.8764C34.1249 65.4219 35.6484 61.7041 38.06 59.1324C39.9964 57.0673 42.5372 55.7463 45.0306 55.5084C45.1297 55.4991 47.6115 55.2842 49.676 55.1055C49.9699 55.0803 50.2271 55.296 50.2526 55.5878C50.278 55.8795 50.0613 56.1365 49.7683 56.1619C45.8346 56.5023 45.1751 56.5599 45.132 56.564C42.8939 56.7774 40.5998 57.9775 38.8384 59.856C36.5862 62.2581 35.1597 65.764 34.7133 69.9948L30.8048 102.609C30.638 105.194 31.4903 107.689 33.2054 109.637C34.9236 111.588 37.3021 112.756 39.9027 112.926C41.1904 113.01 42.4628 112.843 43.6844 112.429L74.6385 101.841C74.9166 101.746 75.2196 101.894 75.315 102.171C75.4105 102.448 75.2625 102.749 74.9844 102.844L44.0288 113.433C42.8999 113.815 41.7327 114.008 40.5497 114.008Z" fill="#212121"/>
<path d="M106.889 89.7305H139.545C149.017 90.967 155.689 99.6156 154.448 109.048C153.513 113.833 149.165 121.38 149.165 121.38L135.627 149.563L132.985 155.062L127.739 165.982L101 157.345L106.889 89.7305Z" fill="#6A9586"/>
<path d="M136.687 100.598C136.6 100.598 136.511 100.586 136.423 100.56C136.116 100.47 135.879 100.234 135.789 99.9281L134.799 96.6684C134.678 96.27 134.367 95.9604 133.967 95.8404L130.697 94.8519C130.462 94.7831 130.263 94.6239 130.143 94.4053C130.023 94.1867 129.996 93.9346 130.067 93.6956C130.157 93.3897 130.394 93.1535 130.702 93.0637L133.966 92.0787C134.366 91.9576 134.678 91.6471 134.799 91.2481L135.136 90.1454C135.204 89.9222 135.411 89.7695 135.646 89.7695H137.195C137.213 89.7695 137.231 89.7704 137.248 89.7722C137.434 89.7907 137.62 89.813 137.816 89.837C138.025 89.8628 138.199 90.0086 138.26 90.2092L138.577 91.2481C138.698 91.6471 139.01 91.9576 139.411 92.0789L142.688 93.0649C142.932 93.1409 143.128 93.3037 143.244 93.5248C143.36 93.7458 143.383 93.9989 143.308 94.2371C143.216 94.5313 142.984 94.7611 142.688 94.8515C142.687 94.8517 142.687 94.8519 142.686 94.8522L139.409 95.8404C139.007 95.9606 138.696 96.2702 138.575 96.6687L137.584 99.9321C137.466 100.335 137.092 100.598 136.687 100.598ZM136.565 99.6271C136.565 99.6278 136.565 99.6284 136.564 99.6291L136.565 99.6271ZM136.809 99.6236L136.809 99.6252C136.809 99.6246 136.809 99.6241 136.809 99.6236ZM131.407 93.9586L134.275 94.8256C135.016 95.0477 135.594 95.622 135.819 96.3614L136.688 99.2238L137.556 96.3616C137.781 95.622 138.359 95.0477 139.102 94.8252L141.977 93.9584L139.103 93.0936C138.361 92.8691 137.783 92.2945 137.558 91.5561L137.342 90.8486C137.284 90.842 137.226 90.8358 137.169 90.83H136.041L135.819 91.5565C135.593 92.2946 135.016 92.8691 134.275 93.0934L131.407 93.9586ZM142.532 94.3445H142.534H142.532ZM131.008 94.0791L131.006 94.0796C131.007 94.0795 131.007 94.0793 131.008 94.0791ZM131.002 93.836L131.004 93.8367C131.003 93.8363 131.002 93.8361 131.002 93.836Z" fill="#212121"/>
<path d="M77.8703 82.8816C77.5824 82.8816 77.3455 82.6529 77.3382 82.3647L77.1288 73.9809C77.1216 73.6883 77.3539 73.4451 77.6478 73.4377C77.9411 73.4296 78.1858 73.6618 78.1933 73.9544L78.4027 82.3382C78.41 82.6308 78.1777 82.874 77.8838 82.8814C77.8793 82.8814 77.8747 82.8816 77.8703 82.8816Z" fill="#212121"/>
<path d="M56.613 66.812C50.5844 66.8123 45.4916 62.3264 44.8306 56.2634C44.7988 55.9724 45.01 55.7109 45.3024 55.6792C45.5947 55.6476 45.8574 55.8579 45.8892 56.1491C46.5195 61.9293 51.5759 66.135 57.4001 65.7239C63.3455 65.3041 67.8395 60.1461 67.4178 54.2259C67.3971 53.9338 67.6178 53.6804 67.9112 53.6595C68.2033 53.639 68.459 53.8587 68.48 54.1508C68.9432 60.6543 64.0064 66.3204 57.4753 66.7814C57.1862 66.8019 56.8982 66.8118 56.613 66.812Z" fill="#212121"/>
<path d="M116.012 143.002C115.919 143.002 115.825 142.988 115.733 142.96C115.437 142.868 115.206 142.638 115.115 142.344L114.123 139.077C114.001 138.679 113.689 138.369 113.289 138.248C113.008 138.163 112.849 137.867 112.934 137.587C113.02 137.307 113.317 137.149 113.598 137.234C114.339 137.458 114.916 138.031 115.142 138.769L116.011 141.632L116.88 138.77C117.106 138.031 117.683 137.457 118.424 137.234L121.291 136.368L118.424 135.502C117.687 135.281 117.109 134.712 116.881 133.978L116 131.077C115.915 130.797 116.074 130.501 116.356 130.416C116.638 130.332 116.935 130.49 117.02 130.77L117.899 133.668C118.021 134.06 118.333 134.367 118.731 134.486L122.001 135.475C122.244 135.55 122.44 135.712 122.557 135.933C122.673 136.154 122.697 136.407 122.623 136.645C122.531 136.94 122.3 137.17 122.004 137.261L118.733 138.249C118.332 138.369 118.02 138.679 117.899 139.078L116.908 142.34C116.833 142.582 116.67 142.778 116.448 142.894C116.312 142.966 116.163 143.002 116.012 143.002ZM121.689 136.489H121.691H121.689Z" fill="#212121"/>
<path d="M99.6386 127.712C99.5476 127.712 99.456 127.699 99.3664 127.672C99.0656 127.581 98.8317 127.348 98.7408 127.049L97.7486 123.786C97.6276 123.387 97.3167 123.078 96.9168 122.957L93.6393 121.969C93.1481 121.825 92.8633 121.306 93.009 120.813C93.0993 120.507 93.3364 120.27 93.6436 120.181L96.9172 119.195C97.3163 119.075 97.6274 118.765 97.749 118.367L98.7412 115.104C98.8136 114.865 98.9749 114.669 99.1953 114.551C99.4159 114.434 99.6692 114.409 99.9088 114.481C100.21 114.571 100.443 114.804 100.534 115.103L101.527 118.367C101.648 118.765 101.959 119.075 102.359 119.195L105.635 120.181C106.127 120.325 106.412 120.845 106.266 121.338C106.176 121.644 105.939 121.88 105.632 121.97L102.358 122.957C101.959 123.077 101.648 123.387 101.526 123.785L100.534 127.049C100.462 127.287 100.3 127.483 100.08 127.601C99.9418 127.675 99.7909 127.712 99.6386 127.712ZM94.3501 121.075L97.2253 121.942C97.9665 122.166 98.5433 122.74 98.7676 123.478L99.6374 126.338L100.507 123.478C100.732 122.74 101.308 122.166 102.05 121.942L104.925 121.076L102.05 120.21C101.309 119.986 100.732 119.412 100.507 118.675L99.6374 115.814L98.7676 118.675C98.5424 119.412 97.966 119.986 97.2258 120.21L94.3501 121.075ZM105.329 121.197C105.33 121.197 105.331 121.198 105.331 121.198L105.329 121.197ZM93.9492 121.196L93.9476 121.197C93.948 121.197 93.9487 121.196 93.9492 121.196ZM105.327 120.954C105.327 120.954 105.326 120.955 105.325 120.955L105.327 120.954ZM93.9435 120.953L93.9457 120.954C93.9449 120.953 93.9442 120.953 93.9435 120.953Z" fill="#212121"/>
<path d="M76.0912 143.343C76.0018 143.343 75.9108 143.33 75.8208 143.303C75.52 143.212 75.2863 142.979 75.1952 142.68L74.203 139.416C74.0681 138.973 73.8188 138.694 73.4615 138.586C73.1801 138.501 73.021 138.205 73.1062 137.925C73.1914 137.645 73.489 137.486 73.77 137.571C74.4688 137.782 74.9846 138.328 75.222 139.109L76.0918 141.969L76.9616 139.109C77.186 138.371 77.7626 137.797 78.5041 137.573L81.3791 136.707L78.5043 135.841C77.7632 135.617 77.1868 135.043 76.9617 134.306L76.1408 131.518C76.0581 131.237 76.2197 130.943 76.5017 130.86C76.7839 130.778 77.0797 130.939 77.1624 131.22L77.982 134.002C78.1021 134.396 78.4132 134.706 78.8131 134.826L82.0898 135.813C82.3259 135.882 82.5241 136.041 82.6441 136.259C82.764 136.478 82.7912 136.73 82.7206 136.969C82.6302 137.275 82.393 137.511 82.0858 137.601L78.8125 138.588C78.4127 138.708 78.1018 139.018 77.9806 139.416L76.9882 142.68C76.8659 143.082 76.4932 143.343 76.0912 143.343ZM81.7837 136.828C81.7844 136.828 81.785 136.829 81.7855 136.829L81.7837 136.828ZM81.7814 136.585C81.7809 136.585 81.7802 136.585 81.7796 136.586L81.7814 136.585Z" fill="#212121"/>
<path d="M131.804 157.836C131.631 157.836 131.462 157.753 131.359 157.598C131.199 157.357 130.958 157.178 130.68 157.094L127.403 156.106C126.911 155.962 126.627 155.443 126.772 154.949C126.862 154.644 127.1 154.407 127.407 154.317L130.681 153.332C131.08 153.211 131.391 152.901 131.512 152.503L132.505 149.24C132.577 149.002 132.738 148.806 132.959 148.688C133.179 148.57 133.433 148.545 133.672 148.617C133.973 148.708 134.207 148.941 134.298 149.24L135.035 151.666C135.12 151.947 134.961 152.242 134.68 152.327C134.398 152.412 134.101 152.254 134.016 151.974L133.401 149.951L132.531 152.811C132.306 153.549 131.73 154.123 130.989 154.347L128.114 155.212L130.989 156.079C131.504 156.234 131.951 156.566 132.248 157.013C132.41 157.258 132.342 157.587 132.097 157.748C132.007 157.808 131.905 157.836 131.804 157.836ZM127.713 155.333L127.711 155.334C127.712 155.333 127.712 155.333 127.713 155.333ZM127.707 155.09L127.709 155.09C127.709 155.09 127.708 155.09 127.707 155.09Z" fill="#212121"/>
<path d="M146.77 126.738C146.544 126.738 146.334 126.594 146.262 126.367L145.656 124.455C145.533 124.051 145.222 123.741 144.822 123.621L141.545 122.632C141.309 122.564 141.111 122.404 140.991 122.186C140.871 121.967 140.844 121.715 140.915 121.476C141.005 121.17 141.242 120.934 141.549 120.844L144.823 119.859C145.222 119.738 145.533 119.428 145.654 119.03L146.647 115.767C146.796 115.275 147.32 114.996 147.814 115.144C148.115 115.235 148.349 115.468 148.44 115.767L149.432 119.031C149.542 119.39 149.721 119.631 149.98 119.767C150.24 119.903 150.34 120.224 150.203 120.483C150.066 120.742 149.744 120.841 149.484 120.705C148.967 120.434 148.607 119.974 148.413 119.338L147.543 116.478L146.673 119.338C146.448 120.076 145.872 120.65 145.131 120.873L142.256 121.739L145.131 122.606C145.872 122.829 146.449 123.403 146.673 124.142L147.278 126.048C147.366 126.327 147.21 126.625 146.93 126.713C146.877 126.73 146.823 126.738 146.77 126.738ZM141.855 121.86L141.853 121.86C141.854 121.86 141.854 121.86 141.855 121.86ZM141.849 121.617L141.851 121.617C141.851 121.617 141.85 121.617 141.849 121.617Z" fill="#212121"/>
<path d="M103.2 155.213C103.111 155.213 103.02 155.2 102.93 155.173C102.629 155.082 102.395 154.849 102.304 154.55L101.312 151.287C101.191 150.888 100.88 150.579 100.48 150.458L97.2026 149.47C96.7113 149.326 96.4265 148.807 96.5722 148.313C96.6625 148.008 96.8996 147.771 97.2068 147.682L100.48 146.696C100.88 146.576 101.191 146.265 101.312 145.868L102.304 142.604C102.377 142.366 102.538 142.17 102.759 142.052C102.979 141.935 103.233 141.91 103.472 141.982C103.773 142.072 104.006 142.305 104.097 142.605L105.09 145.868C105.211 146.266 105.522 146.576 105.922 146.697L108.479 147.466C108.761 147.551 108.92 147.847 108.835 148.127C108.75 148.407 108.452 148.566 108.171 148.481L105.613 147.711C104.872 147.487 104.296 146.913 104.071 146.176L103.201 143.315L102.331 146.176C102.106 146.913 101.529 147.487 100.789 147.711L97.9135 148.577L100.789 149.444C101.53 149.667 102.107 150.241 102.331 150.98L103.201 153.84L104.071 150.98C104.295 150.241 104.872 149.667 105.613 149.444L107.494 148.877C107.775 148.792 108.072 148.95 108.158 149.23C108.243 149.511 108.084 149.807 107.802 149.892L105.922 150.459C105.522 150.579 105.211 150.889 105.09 151.287L104.097 154.55C103.975 154.953 103.602 155.213 103.2 155.213ZM97.5126 148.697L97.511 148.698C97.5115 148.698 97.5121 148.697 97.5126 148.697ZM97.5071 148.454L97.5091 148.455C97.5083 148.454 97.5076 148.454 97.5071 148.454Z" fill="#212121"/>
<path d="M121.154 117.754C121.066 117.754 120.977 117.741 120.889 117.715C120.582 117.626 120.345 117.389 120.254 117.083L119.265 113.833C119.143 113.435 118.832 113.124 118.431 113.003L115.154 112.017C114.663 111.873 114.378 111.354 114.523 110.86C114.614 110.555 114.851 110.318 115.158 110.229L118.432 109.243C118.832 109.122 119.143 108.812 119.265 108.413L120.255 105.15C120.331 104.908 120.494 104.713 120.716 104.596C120.937 104.48 121.191 104.457 121.431 104.531C121.727 104.622 121.958 104.852 122.049 105.147L123.041 108.414C123.162 108.812 123.474 109.123 123.875 109.244L126.284 109.971C126.549 110.051 126.708 110.32 126.65 110.59C126.585 110.89 126.51 111.193 126.428 111.491C126.419 111.521 126.408 111.551 126.395 111.579L126.123 112.145C126.059 112.279 125.941 112.38 125.797 112.424L123.875 113.004C123.474 113.125 123.162 113.435 123.041 113.834L122.05 117.088C121.981 117.323 121.821 117.521 121.602 117.64C121.462 117.715 121.309 117.754 121.154 117.754ZM121.031 116.783C121.03 116.783 121.03 116.784 121.03 116.785L121.031 116.783ZM121.274 116.778L121.275 116.78C121.274 116.78 121.274 116.779 121.274 116.778ZM115.865 111.123L118.74 111.988C119.482 112.213 120.059 112.787 120.284 113.526L121.153 116.381L122.022 113.526C122.247 112.787 122.824 112.213 123.566 111.988L125.264 111.476L125.413 111.164C125.443 111.057 125.471 110.949 125.498 110.841L123.566 110.258C122.824 110.034 122.247 109.459 122.022 108.721L121.153 105.858L120.284 108.72C120.059 109.459 119.482 110.034 118.74 110.258L115.865 111.123ZM115.464 111.244L115.462 111.244C115.463 111.244 115.463 111.244 115.464 111.244ZM115.458 111.001L115.46 111.001C115.46 111.001 115.459 111.001 115.458 111.001Z" fill="#212121"/>
<path d="M90.8492 95.5236C90.6206 95.5236 90.4092 95.3758 90.3397 95.1466C90.2546 94.8664 90.4138 94.5705 90.6953 94.4857L92.152 94.0474C92.5518 93.9268 92.8636 93.6166 92.9857 93.2181L93.3813 91.915C93.4665 91.6347 93.7637 91.4762 94.045 91.5609C94.3265 91.6455 94.4857 91.9415 94.4007 92.2218L94.0047 93.5261C93.7785 94.2648 93.2015 94.8386 92.4606 95.0622L91.0036 95.5006C90.9519 95.5161 90.9001 95.5236 90.8492 95.5236Z" fill="#212121"/>
<path d="M94.8746 102.558C94.7858 102.558 94.6967 102.546 94.6092 102.52C94.302 102.43 94.0648 102.194 93.9746 101.888L92.9854 98.6379C92.8823 98.2999 92.6385 98.0206 92.3165 97.872C92.0498 97.7489 91.9339 97.4336 92.0576 97.168C92.1813 96.9024 92.4977 96.787 92.7646 96.9102C93.3613 97.1858 93.8131 97.7033 94.0043 98.3301L94.8733 101.185L95.744 98.3301C95.9676 97.5918 96.5444 97.0174 97.2869 96.7944L100.154 95.9278L97.2862 95.0626C96.5449 94.8392 95.9683 94.2649 95.7438 93.5268L95.2843 92.016C95.1991 91.7357 95.3582 91.4399 95.6396 91.3549C95.9211 91.2701 96.2182 91.4284 96.3035 91.7087L96.763 93.2196C96.884 93.6178 97.195 93.9274 97.595 94.0481L100.863 95.0345C101.354 95.1782 101.639 95.6975 101.494 96.1909C101.403 96.4968 101.166 96.7331 100.859 96.8229L97.5953 97.8097C97.1944 97.93 96.8839 98.2394 96.7632 98.6376L95.7704 101.893C95.7014 102.127 95.5415 102.325 95.322 102.444C95.1825 102.52 95.0293 102.558 94.8746 102.558ZM94.7509 101.587C94.7507 101.588 94.7505 101.589 94.7502 101.589L94.7509 101.587ZM94.9943 101.583L94.9949 101.585C94.9949 101.584 94.9947 101.584 94.9943 101.583ZM100.557 96.0496C100.558 96.0497 100.558 96.0499 100.559 96.0503L100.557 96.0496ZM100.554 95.8068C100.554 95.8069 100.553 95.8071 100.553 95.8073L100.554 95.8068Z" fill="#212121"/>
<path d="M71.8112 120.641C71.7201 120.641 71.6286 120.627 71.5389 120.6C71.2381 120.509 71.0044 120.277 70.9134 119.977L69.9211 116.723C69.7999 116.324 69.4888 116.014 69.0886 115.893L65.8205 114.906C65.3293 114.763 65.0447 114.243 65.1902 113.75C65.2803 113.444 65.5176 113.208 65.8248 113.118L69.0888 112.133C69.4886 112.012 69.7997 111.702 69.9208 111.303L70.9132 108.039C70.9856 107.801 71.1469 107.605 71.3673 107.487C71.5879 107.369 71.8412 107.344 72.0807 107.416C72.3815 107.507 72.6153 107.74 72.7061 108.039L73.6985 111.302C73.8199 111.701 74.1312 112.011 74.5314 112.133L77.7989 113.119C78.29 113.263 78.5748 113.782 78.4293 114.276C78.339 114.581 78.1017 114.818 77.7947 114.908L74.5307 115.893C74.1314 116.014 73.8199 116.324 73.6985 116.723L72.7061 119.978C72.6339 120.216 72.4726 120.412 72.252 120.529C72.1143 120.603 71.9634 120.641 71.8112 120.641ZM66.5311 114.013L69.398 114.878C70.1398 115.103 70.7164 115.677 70.9403 116.416L71.8099 119.268L72.6797 116.415C72.9044 115.678 73.4804 115.103 74.221 114.878L77.0887 114.013L74.2219 113.148C73.4806 112.923 72.9044 112.348 72.6797 111.61L71.8099 108.75L70.9402 111.61C70.7162 112.348 70.1398 112.923 69.3981 113.148L66.5311 114.013ZM77.4926 114.135C77.4933 114.135 77.4941 114.135 77.4946 114.135L77.4926 114.135ZM66.1315 114.134L66.1297 114.134C66.1302 114.134 66.1308 114.134 66.1315 114.134ZM77.4903 113.892C77.4898 113.892 77.4891 113.892 77.4886 113.892L77.4903 113.892ZM66.1253 113.891L66.1274 113.891C66.1267 113.891 66.126 113.891 66.1253 113.891ZM71.6873 108.346C71.6873 108.346 71.6875 108.347 71.6875 108.347L71.6873 108.347C71.6873 108.347 71.6873 108.346 71.6873 108.346Z" fill="#212121"/>
<path d="M65.0574 92.5518C65.0155 100.285 70.7985 103.612 74.8115 102.343C77.4012 101.523 78.9643 99.1189 79.7208 97.1985" fill="white"/>
<path d="M73.0605 103.137C71.5146 103.137 69.9157 102.605 68.5354 101.594C67.0253 100.488 64.4964 97.8413 64.5251 92.5488C64.5267 92.256 64.7681 92.0201 65.0604 92.0215C65.3545 92.0231 65.5916 92.2616 65.59 92.5545C65.5639 97.3772 67.8195 99.7528 69.1665 100.74C70.8569 101.978 72.907 102.389 74.6504 101.837C77.4044 100.966 78.7671 98.1675 79.2252 97.0047C79.3326 96.7322 79.6415 96.5979 79.9152 96.7048C80.1888 96.8117 80.3237 97.1194 80.2164 97.3919C79.7026 98.6961 78.163 101.839 74.9727 102.848C74.3585 103.042 73.7141 103.137 73.0605 103.137Z" fill="#212121"/>
<path d="M65.0648 92.0361C64.7954 97.7873 71.3848 102.625 76.4685 99.0728C76.5377 99.0238 76.6052 98.9766 76.6707 98.9277C78.872 97.2831 81.3684 95.994 85.1575 97.3431C87.8286 98.2948 91.6834 100.132 92.499 97.5843C93.0636 95.8183 88.6462 93.4885 85.4507 91.6537C90.7311 92.1287 97.6502 92.7415 98.0144 90.3845C98.3786 88.0275 93.3823 87.1119 86.5287 86.548C94.1523 85.8535 98.2692 86.5353 98.3402 84.2236C98.4568 80.4161 82.7596 80.9148 77.3844 82.5374C77.3844 82.5374 76.0953 82.891 71.3903 83.9299C66.5761 84.9832 65.2087 89.0172 65.0648 92.0361Z" fill="white"/>
<path d="M72.7092 100.822C71.4917 100.822 70.2543 100.499 69.0673 99.8484C66.2089 98.283 64.3866 95.1338 64.5329 92.0119C64.5329 92.0117 64.5329 92.0117 64.5329 92.0116C64.636 89.8471 65.4995 84.6764 71.2759 83.4125C75.8993 82.3917 77.2302 82.0303 77.2431 82.0267C81.8442 80.6376 94.6128 79.9738 97.9517 82.5196C98.7377 83.1188 98.8861 83.7861 98.8722 84.2403C98.8245 85.7917 97.3171 86.1598 96.8218 86.2808C95.7893 86.533 94.3209 86.6171 92.477 86.7057C95.6118 87.2324 97.3444 87.9278 98.1161 88.9021C98.4859 89.3689 98.6286 89.895 98.5406 90.4656C98.1782 92.8112 93.7949 92.8561 87.7996 92.386C90.8491 94.1532 93.5762 95.9631 93.0064 97.7456C92.7966 98.4009 92.4042 98.8708 91.8404 99.1424C90.3543 99.8585 88.0252 98.9825 85.9701 98.2097C85.6274 98.0809 85.2943 97.9556 84.9781 97.8428C81.6241 96.6488 79.3591 97.5827 76.9902 99.3523C76.9297 99.3976 76.8681 99.4411 76.805 99.4858L76.7769 99.5056C75.5229 100.381 74.1296 100.822 72.7092 100.822ZM65.5966 92.0616C65.469 94.7885 67.0699 97.5444 69.5806 98.9192C71.7828 100.125 74.182 100.023 76.1627 98.6391L76.1888 98.6207C76.2442 98.5817 76.2985 98.5433 76.3513 98.5039C78.6389 96.7951 81.3109 95.411 85.3367 96.8442C85.6587 96.9589 85.9976 97.0863 86.3464 97.2174C88.109 97.8801 90.3023 98.7047 91.3767 98.1876C91.6756 98.0438 91.8709 97.801 91.9918 97.4235C92.3799 96.2093 88.3764 93.9309 85.9843 92.5696C85.7119 92.4146 85.4443 92.2623 85.1847 92.1132C84.9681 91.9888 84.8675 91.7313 84.9429 91.494C85.0184 91.2566 85.2496 91.1034 85.4984 91.126C88.0101 91.3521 91.1364 91.633 93.558 91.5516C96.8267 91.4415 97.4234 90.7228 97.488 90.3041C97.5306 90.0283 97.4646 89.7913 97.28 89.5584C96.0697 88.0303 90.5392 87.4102 86.4848 87.0766C86.2095 87.054 85.9975 86.8255 85.9962 86.5505C85.995 86.2755 86.2051 86.0453 86.4802 86.0202C88.5904 85.8279 90.3971 85.7424 91.9911 85.6667C95.9996 85.4768 97.7732 85.3448 97.8081 84.2074C97.8115 84.0957 97.822 83.7554 97.3047 83.3609C94.4355 81.1736 82.3869 81.5812 77.539 83.0448C77.4728 83.0632 76.1702 83.4175 71.5056 84.4476C66.447 85.5545 65.6882 90.1412 65.5966 92.0616Z" fill="#212121"/>
<path d="M52.5301 77.8545L51.8201 88.5863L70.3385 84.2248" fill="white"/>
<path d="M51.82 89.1165C51.6954 89.1165 51.5733 89.0728 51.476 88.991C51.347 88.8823 51.2776 88.7192 51.2886 88.5514L51.9987 77.8195C52.018 77.5274 52.2721 77.3057 52.565 77.3254C52.8583 77.3447 53.0805 77.5971 53.0612 77.8894L52.3985 87.9051L70.2159 83.7088C70.5022 83.6413 70.789 83.8177 70.8566 84.1027C70.9242 84.3876 70.7473 84.6733 70.461 84.7406L51.9424 89.102C51.9019 89.1119 51.8609 89.1165 51.82 89.1165Z" fill="#212121"/>
<path d="M101.562 162.585C101.485 162.585 101.406 162.568 101.332 162.533C101.067 162.406 100.955 162.09 101.082 161.826L125.163 111.686C125.163 111.685 125.763 110.326 125.913 108.453C126.35 104.028 125.038 99.7657 122.222 96.4413C119.421 93.1351 115.41 91.0727 110.93 90.6339C110.637 90.6052 110.424 90.3458 110.452 90.0544C110.481 89.763 110.742 89.5504 111.034 89.5787C115.792 90.0447 120.054 92.239 123.036 95.7576C126.039 99.3025 127.438 103.844 126.973 108.546C126.81 110.602 126.157 112.071 126.129 112.132L102.042 162.283C101.951 162.474 101.76 162.585 101.562 162.585Z" fill="#212121"/>
<path d="M48.1946 41.4685L49.841 56.7361C50.2552 60.4886 53.5974 63.2288 57.3755 62.9133C61.2208 62.5885 64.0752 59.2237 63.7539 55.3944L63.3438 50.5381C66.1911 49.4166 68.5607 47.1321 69.6819 44.0386C71.1948 39.8644 70.0429 35.1936 66.7601 32.1921C67.0025 31.3444 67.1425 30.4711 67.1771 29.5903C67.4187 23.515 62.6684 18.3948 56.5672 18.1543L48.7619 22.7843" fill="white"/>
<path d="M56.7691 63.4686C52.9509 63.4686 49.737 60.6467 49.3118 56.7939L47.6652 41.5249C47.6338 41.2339 47.8453 40.9725 48.1378 40.9412C48.4306 40.9098 48.6926 41.1206 48.724 41.4118L50.3703 56.6794C50.7558 60.172 53.8134 62.6786 57.331 62.3848C60.8759 62.0853 63.5195 58.9691 63.2233 55.4383L62.8132 50.5823C62.7935 50.3492 62.9296 50.131 63.1479 50.0449C65.9583 48.9382 68.1573 46.6833 69.1811 43.8586C70.6253 39.8739 69.5337 35.4478 66.4 32.5825C66.2516 32.447 66.1929 32.2397 66.2481 32.0469C66.4786 31.2407 66.6122 30.4073 66.6451 29.5695C66.7563 26.7725 65.767 24.0998 63.8595 22.0439C61.9874 20.0261 59.4509 18.8393 56.7021 18.6912L49.0344 23.2396C48.7818 23.3894 48.4549 23.3069 48.3044 23.0554C48.1539 22.8038 48.2368 22.4784 48.4894 22.3286L56.2946 17.6988C56.3832 17.6463 56.4854 17.6198 56.5881 17.6246C59.681 17.7465 62.5413 19.0604 64.6416 21.3245C66.742 23.5886 67.8315 26.5314 67.709 29.6112C67.6771 30.4248 67.5589 31.2351 67.3569 32.0241C70.6255 35.1827 71.7361 39.9323 70.1827 44.2184C69.1003 47.2051 66.8252 49.613 63.9069 50.8789L64.2846 55.3498C64.6296 59.4627 61.5505 63.0924 57.4206 63.4414C57.2018 63.4596 56.9842 63.4686 56.7691 63.4686Z" fill="#212121"/>
<path d="M59.2899 51.8402C57.9571 51.8402 56.6238 51.6123 55.3489 51.1554C55.0722 51.0563 54.9286 50.7525 55.0282 50.477C55.1277 50.2015 55.4326 50.0586 55.7095 50.1577C58.1218 51.0222 60.7648 50.9847 63.1516 50.0524C63.4253 49.9455 63.7342 50.0798 63.8416 50.3523C63.949 50.6248 63.8141 50.9324 63.5404 51.0393C62.1746 51.5728 60.7327 51.8402 59.2899 51.8402Z" fill="#212121"/>
<path d="M65.9369 14.7462C64.5595 14.7457 63.2739 15.4343 62.5156 16.5793C61.4428 14.5921 58.9554 13.8472 56.96 14.9155C56.2881 15.2751 55.7301 15.8143 55.3489 16.4724C54.2211 14.9206 52.0434 14.573 50.485 15.696C49.8068 16.1848 49.328 16.9007 49.1363 17.7124C47.5444 16.9172 45.6066 17.5576 44.808 19.1427C44.4678 19.818 44.3777 20.5911 44.5534 21.3259C42.858 21.8818 41.9362 23.7011 42.4945 25.3893C42.6621 25.8959 42.9535 26.3531 43.3425 26.7198C41.7128 27.4498 40.9861 29.3571 41.719 30.9799C41.8038 31.1676 41.9045 31.3434 42.0191 31.5065C43.8092 29.9597 45.9474 29.4055 47.6651 29.7766C49.3737 30.1458 51.9225 31.5054 52.53 35.0421H53.0392L52.1845 27.5974C52.0216 26.3713 52.8826 25.2442 54.1127 25.0735L65.613 23.4816C68.7811 22.6186 70.0557 21.0938 70.0557 18.8382C70.0598 16.5823 68.2264 14.7501 65.9608 14.746C65.9526 14.7462 65.9447 14.7462 65.9369 14.7462Z" fill="#6A9586"/>
<path d="M61.4372 35.8945C61.1561 35.8945 60.9211 35.6752 60.906 35.3923C60.8906 35.0998 61.116 34.8503 61.4095 34.8349L63.865 34.7056L62.6136 30.5487C62.5292 30.2682 62.6891 29.9727 62.9707 29.8886C63.2522 29.8047 63.5491 29.9637 63.6335 30.2442L65.0792 35.047C65.126 35.2028 65.0985 35.3714 65.0045 35.5043C64.9104 35.6374 64.7605 35.7199 64.5972 35.7286L61.4654 35.8936C61.4562 35.8943 61.4466 35.8945 61.4372 35.8945Z" fill="#212121"/>
<path d="M52.4958 35.0454C52.1841 32.1151 49.7518 29.7802 46.7076 29.6637C43.3664 29.5359 40.5538 32.1292 40.4254 35.4563C40.2971 38.7833 42.9015 41.5841 46.2427 41.7119C47.5329 41.7612 48.8051 41.3985 49.8737 40.6768" fill="white"/>
<path d="M46.481 42.2466C46.3949 42.2466 46.3086 42.245 46.2222 42.2416C42.593 42.1027 39.7539 39.0498 39.8934 35.4359C39.961 33.6854 40.709 32.0658 41.9999 30.8754C43.2908 29.6852 44.9688 29.0667 46.728 29.1339C49.9762 29.2581 52.6833 31.7756 53.0251 34.9895C53.056 35.2808 52.8441 35.5418 52.5518 35.5725C52.259 35.6034 51.9972 35.3923 51.9663 35.1012C51.6799 32.4075 49.4104 30.2975 46.6872 30.1933C45.2149 30.1374 43.8056 30.6554 42.7234 31.6533C41.6412 32.6512 41.0141 34.0089 40.9575 35.4766C40.8405 38.5062 43.2207 41.0656 46.2632 41.182C47.448 41.2276 48.5935 40.9009 49.5749 40.238C49.8184 40.0737 50.1494 40.1369 50.3145 40.3792C50.4795 40.6215 50.4161 40.9512 50.1727 41.1156C49.0734 41.858 47.8022 42.2466 46.481 42.2466Z" fill="#212121"/>
<path d="M63.537 42.096C62.0919 42.096 60.4817 41.3008 59.92 39.3976C59.8372 39.1166 59.9987 38.822 60.2808 38.7395C60.5632 38.6571 60.8588 38.8178 60.9417 39.0988C61.3964 40.6397 62.8087 41.169 63.9289 41.0083C64.8785 40.8723 65.9873 40.1721 65.9873 38.6464C65.9873 38.3535 66.2257 38.1162 66.5197 38.1162C66.8138 38.1162 67.0521 38.3535 67.0521 38.6464C67.0521 40.709 65.5596 41.846 64.0806 42.0579C63.9037 42.083 63.7216 42.096 63.537 42.096Z" fill="#212121"/>
<path d="M45.7444 37.6336C45.5478 37.6336 45.3588 37.5247 45.2662 37.3371C45.1364 37.0743 45.2452 36.7565 45.5091 36.6275L47.9447 35.4358L43.831 34.3242C43.5472 34.2475 43.3797 33.9563 43.4565 33.6737C43.5334 33.3912 43.826 33.2242 44.1098 33.3009L49.585 34.7803C49.7989 34.8381 49.9543 35.0215 49.9756 35.2412C49.9968 35.4607 49.8793 35.6704 49.6805 35.7676L45.9789 37.579C45.9035 37.6161 45.8234 37.6336 45.7444 37.6336Z" fill="#212121"/>
<path d="M51.2406 143.273C50.9376 143.273 50.692 143.029 50.692 142.727C50.692 140.732 49.0612 139.109 47.0567 139.109H43.1946C41.1882 139.109 39.5574 140.732 39.5574 142.727C39.5574 143.029 39.3118 143.273 39.0088 143.273C38.7058 143.273 38.4602 143.029 38.4602 142.727C38.4602 140.13 40.5833 138.017 43.1927 138.017H47.0567C49.6661 138.017 51.7892 140.13 51.7892 142.727C51.7892 143.029 51.5436 143.273 51.2406 143.273Z" fill="#212121"/>
<path d="M53.4841 142.873H36.7685C32.6749 142.871 29.1741 145.802 28.4756 149.817L24.1234 174.754C23.3256 179.31 26.3889 183.647 30.9657 184.441C31.4448 184.524 31.9301 184.565 32.4163 184.565H57.8344C62.4801 184.568 66.2489 180.823 66.2522 176.198C66.2526 175.714 66.2107 175.231 66.1273 174.754L61.777 149.817C61.0784 145.802 57.5777 142.871 53.4841 142.873Z" fill="white"/>
<path d="M57.8407 185.111C57.8383 185.111 57.8365 185.111 57.8339 185.111H32.4163C31.8963 185.11 31.3802 185.067 30.8715 184.979C28.5137 184.57 26.457 183.271 25.0804 181.322C23.7038 179.373 23.172 177.008 23.5831 174.661L27.9353 149.724C28.6812 145.438 32.394 142.327 36.7639 142.327C36.7658 142.327 36.767 142.327 36.7689 142.327H53.4841H53.4839C53.4856 142.327 53.4872 142.327 53.4889 142.327C57.8593 142.327 61.5718 145.437 62.3177 149.724L66.6681 174.661C66.7568 175.167 66.8016 175.685 66.8012 176.199C66.7974 181.114 62.7782 185.111 57.8407 185.111ZM32.4158 184.019H57.8343C57.8361 184.019 57.8383 184.019 57.8401 184.019C62.1738 184.019 65.7005 180.512 65.7037 176.198C65.704 175.747 65.6647 175.293 65.5868 174.848L61.2365 149.911C60.5818 146.149 57.3237 143.419 53.4885 143.419C53.4869 143.419 53.4865 143.419 53.4839 143.419H36.7683C36.7669 143.419 36.7654 143.419 36.7641 143.419C32.9285 143.419 29.6706 146.149 29.016 149.911L24.6638 174.848C24.303 176.908 24.7697 178.984 25.9777 180.694C27.1857 182.404 28.9906 183.544 31.0597 183.903C31.5042 183.98 31.9586 184.019 32.4099 184.019C32.4121 184.019 32.414 184.019 32.4158 184.019Z" fill="#212121"/>
<path d="M40.9618 180.397C39.3601 180.397 37.9901 179.312 37.6298 177.758L36.5475 173.101C36.3419 172.214 36.4957 171.301 36.9803 170.53C37.4649 169.759 38.2221 169.221 39.1127 169.017C39.3638 168.959 39.622 168.93 39.8796 168.93H50.3709C51.285 168.93 52.1441 169.285 52.79 169.928C53.4359 170.572 53.7914 171.427 53.7908 172.337C53.7908 172.594 53.7612 172.851 53.7032 173.101L52.6207 177.759C52.2599 179.311 50.8899 180.396 49.2885 180.397C49.2885 180.397 49.2885 180.397 49.2884 180.397H40.9625C40.962 180.397 40.9618 180.397 40.9618 180.397ZM39.8796 170.022C39.7048 170.022 39.5294 170.042 39.359 170.081C38.7539 170.22 38.2395 170.585 37.9105 171.109C37.5814 171.633 37.477 172.253 37.6165 172.855L38.6989 177.513C38.9435 178.568 39.8741 179.305 40.962 179.305H49.288H49.2878C50.3755 179.305 51.3063 178.568 51.5513 177.513L52.6339 172.855C52.6732 172.685 52.6931 172.511 52.6933 172.337C52.6936 171.718 52.4523 171.137 52.0134 170.7C51.5745 170.263 50.9912 170.022 50.3704 170.022H39.8796Z" fill="#212121"/>
<path d="M52.101 152.436H38.1484C37.8454 152.436 37.5999 152.191 37.5999 151.89C37.5999 151.588 37.8454 151.344 38.1484 151.344H52.101C52.404 151.344 52.6496 151.588 52.6496 151.89C52.6496 152.191 52.404 152.436 52.101 152.436Z" fill="#212121"/>
<path d="M45.1246 165.77C42.5585 165.77 40.4707 163.692 40.4707 161.137C40.4707 158.583 42.5585 156.505 45.1246 156.505C47.6907 156.505 49.7785 158.583 49.7785 161.137C49.7785 163.692 47.6909 165.77 45.1246 165.77ZM45.1246 157.597C43.1634 157.597 41.5679 159.185 41.5679 161.137C41.5679 163.09 43.1634 164.678 45.1246 164.678C47.0858 164.678 48.6813 163.09 48.6813 161.137C48.6813 159.185 47.0858 157.597 45.1246 157.597Z" fill="#212121"/>
<path d="M253.874 86.9444H244.796L240.98 61.7458C240.673 59.7212 238.939 58.2254 236.898 58.2266H201.499C199.22 58.226 197.372 60.08 197.372 62.3673C197.372 62.5765 197.387 62.7854 197.419 62.9922L201.49 89.8617H245.238H250.598" fill="white"/>
<path d="M250.598 90.3776H201.49C201.236 90.3776 201.02 90.1914 200.982 89.9394L196.911 63.0699C196.876 62.8383 196.858 62.6019 196.858 62.3674C196.858 59.7998 198.94 57.7109 201.498 57.7109C201.498 57.7109 201.498 57.7109 201.499 57.7109H236.898C236.899 57.7109 236.9 57.7109 236.901 57.7109C239.212 57.7109 241.141 59.3748 241.488 61.6684L245.238 86.4286H253.874C254.158 86.4286 254.388 86.6595 254.388 86.9443C254.388 87.2292 254.158 87.4601 253.874 87.4601H244.796C244.542 87.4601 244.326 87.2739 244.288 87.0219L240.472 61.8233C240.202 60.0379 238.7 58.7425 236.901 58.7425C236.9 58.7425 236.9 58.7425 236.899 58.7425H201.499C201.499 58.7425 201.498 58.7425 201.498 58.7425C199.506 58.7425 197.886 60.3685 197.886 62.3676C197.886 62.5502 197.899 62.7343 197.927 62.9148L201.932 89.3461H250.598C250.882 89.3461 251.112 89.577 251.112 89.8618C251.112 90.1467 250.882 90.3776 250.598 90.3776Z" fill="#212121"/>
<path d="M221.035 78.7271C222.124 77.666 221.972 75.734 220.694 74.4118C219.416 73.0896 217.497 72.8779 216.407 73.939C215.317 75.0001 215.47 76.9322 216.747 78.2544C218.025 79.5766 219.945 79.7883 221.035 78.7271Z" fill="#B1CDBA"/>
<path d="M131.498 74.2145C131.199 74.2145 130.957 73.9722 130.957 73.6733C130.957 73.3744 131.199 73.1321 131.498 73.1321C140.461 73.1321 144.962 66.7271 149.315 60.533C153.571 54.4775 157.971 48.2157 166.458 48.2157C174.793 48.2157 179.217 45.3225 183.901 42.2594C189.401 38.6621 195.636 34.585 209.176 34.585C209.475 34.585 209.718 34.8272 209.718 35.1262C209.718 35.4251 209.475 35.6673 209.176 35.6673C195.958 35.6673 190.13 39.4789 184.493 43.1652C179.671 46.319 175.115 49.2981 166.458 49.2981C158.534 49.2981 154.486 55.0576 150.201 61.1552C145.689 67.5756 141.023 74.2145 131.498 74.2145Z" fill="#212121"/>
<path d="M167.772 58.9231C159.155 58.9231 153.128 52.6276 147.299 46.5394C142.224 41.2391 137.431 36.2328 131.498 36.2328C131.199 36.2328 130.957 35.9905 130.957 35.6916C130.957 35.3927 131.199 35.1504 131.498 35.1504C137.893 35.1504 142.842 40.3189 148.081 45.7911C153.753 51.7151 159.618 57.8407 167.772 57.8407C174.821 57.8407 179.024 54.7828 183.89 51.242C189.69 47.0216 196.265 42.2382 209.176 42.2382C209.475 42.2382 209.717 42.4805 209.717 42.7794C209.717 43.0783 209.475 43.3206 209.176 43.3206C196.617 43.3206 190.194 47.9939 184.527 52.1171C179.717 55.6171 175.173 58.9231 167.772 58.9231Z" fill="#212121"/>
<path d="M131.498 89.8336C131.199 89.8336 130.957 89.5914 130.957 89.2925V20.9582C130.957 20.6593 131.199 20.417 131.498 20.417C131.797 20.417 132.04 20.6593 132.04 20.9582V89.2925C132.04 89.5914 131.797 89.8336 131.498 89.8336Z" fill="#212121"/>
<path d="M133.368 82.7367H129.616C129.317 82.7367 129.075 82.4944 129.075 82.1955C129.075 81.8966 129.317 81.6543 129.616 81.6543H133.368C133.667 81.6543 133.909 81.8966 133.909 82.1955C133.909 82.4944 133.667 82.7367 133.368 82.7367Z" fill="#212121"/>
<path d="M133.368 74.2152H129.616C129.317 74.2152 129.075 73.9729 129.075 73.674C129.075 73.3751 129.317 73.1328 129.616 73.1328H133.368C133.667 73.1328 133.909 73.3751 133.909 73.674C133.909 73.9729 133.667 74.2152 133.368 74.2152Z" fill="#212121"/>
<path d="M133.368 65.6927H129.616C129.317 65.6927 129.075 65.4505 129.075 65.1515C129.075 64.8526 129.317 64.6104 129.616 64.6104H133.368C133.667 64.6104 133.909 64.8526 133.909 65.1515C133.909 65.4505 133.667 65.6927 133.368 65.6927Z" fill="#212121"/>
<path d="M133.368 57.1713H129.616C129.317 57.1713 129.075 56.929 129.075 56.6301C129.075 56.3311 129.317 56.0889 129.616 56.0889H133.368C133.667 56.0889 133.909 56.3311 133.909 56.6301C133.909 56.929 133.667 57.1713 133.368 57.1713Z" fill="#212121"/>
<path d="M133.368 48.6488H129.616C129.317 48.6488 129.075 48.4065 129.075 48.1076C129.075 47.8087 129.317 47.5664 129.616 47.5664H133.368C133.667 47.5664 133.909 47.8087 133.909 48.1076C133.909 48.4065 133.667 48.6488 133.368 48.6488Z" fill="#212121"/>
<path d="M133.368 40.1273H129.616C129.317 40.1273 129.075 39.885 129.075 39.5861C129.075 39.2872 129.317 39.0449 129.616 39.0449H133.368C133.667 39.0449 133.909 39.2872 133.909 39.5861C133.909 39.885 133.667 40.1273 133.368 40.1273Z" fill="#212121"/>
<path d="M133.368 31.6048H129.616C129.317 31.6048 129.075 31.3626 129.075 31.0637C129.075 30.7647 129.317 30.5225 129.616 30.5225H133.368C133.667 30.5225 133.909 30.7647 133.909 31.0637C133.909 31.3626 133.667 31.6048 133.368 31.6048Z" fill="#212121"/>
<path d="M166.962 61.8763C168.892 61.8763 170.457 60.3118 170.457 58.382C170.457 56.4521 168.892 54.8877 166.962 54.8877C165.031 54.8877 163.466 56.4521 163.466 58.382C163.466 60.3118 165.031 61.8763 166.962 61.8763Z" fill="#B1CDBA"/>
<path d="M155.861 57.5696C157.792 57.5696 159.357 56.0052 159.357 54.0753C159.357 52.1455 157.792 50.5811 155.861 50.5811C153.931 50.5811 152.365 52.1455 152.365 54.0753C152.365 56.0052 153.931 57.5696 155.861 57.5696Z" fill="#B1CDBA"/>
<path d="M209.176 46.6751C211.107 46.6751 212.672 45.1106 212.672 43.1808C212.672 41.251 211.107 39.6865 209.176 39.6865C207.246 39.6865 205.681 41.251 205.681 43.1808C205.681 45.1106 207.246 46.6751 209.176 46.6751Z" fill="#B1CDBA"/>
<path d="M209.176 38.6204C211.107 38.6204 212.672 37.056 212.672 35.1261C212.672 33.1963 211.107 31.6318 209.176 31.6318C207.246 31.6318 205.681 33.1963 205.681 35.1261C205.681 37.056 207.246 38.6204 209.176 38.6204Z" fill="#B1CDBA"/>
<path d="M185.073 79.9331H184.507C184.32 79.9329 184.134 79.9084 183.955 79.8602C182.817 79.5552 182.139 78.3813 182.444 77.2439L183.708 72.5531C183.786 72.2644 184.083 72.0932 184.371 72.1712C184.66 72.2489 184.831 72.5458 184.753 72.8345L183.49 77.5248C183.34 78.0853 183.674 78.6642 184.235 78.8148C184.324 78.8386 184.416 78.8507 184.507 78.8507H185.073C185.372 78.8507 185.615 79.093 185.615 79.3919C185.615 79.6908 185.372 79.9331 185.073 79.9331Z" fill="#212121"/>
<path d="M185.048 75.7162H182.267C181.968 75.7162 181.726 75.4739 181.726 75.175C181.726 74.8761 181.968 74.6338 182.267 74.6338H185.048C185.347 74.6338 185.589 74.8761 185.589 75.175C185.589 75.4739 185.347 75.7162 185.048 75.7162Z" fill="#212121"/>
<path d="M128.226 26.994H127.615C126.633 26.9938 125.757 26.4081 125.382 25.5014L124.597 23.6076C124.39 23.107 123.906 22.7836 123.365 22.7836H122.691C122.392 22.7836 122.15 22.5413 122.15 22.2424C122.15 21.9434 122.392 21.7012 122.691 21.7012H123.365C124.346 21.7014 125.222 22.2871 125.597 23.1938L126.382 25.0876C126.589 25.5882 127.073 25.9116 127.615 25.9116H128.226C128.525 25.9116 128.768 26.1539 128.768 26.4528C128.768 26.7517 128.525 26.994 128.226 26.994Z" fill="#212121"/>
<path d="M123.447 26.9945H122.8C122.501 26.9945 122.258 26.7523 122.258 26.4533C122.258 26.1544 122.501 25.9121 122.8 25.9121H123.446C123.958 25.9121 124.415 25.6066 124.611 25.1337L125.365 23.3132C125.729 22.4345 126.579 21.8664 127.53 21.8662H128.118C128.417 21.8662 128.66 22.1085 128.66 22.4074C128.66 22.7063 128.417 22.9486 128.118 22.9486H127.53C127.018 22.9486 126.561 23.2542 126.366 23.727L125.611 25.5476C125.248 26.4263 124.398 26.9943 123.447 26.9945Z" fill="#212121"/>
<path d="M252.21 90.378H98.4259C98.1264 90.378 97.8835 90.1342 97.8835 89.8335C97.8835 89.5328 98.1264 89.2891 98.4259 89.2891H252.21C252.509 89.2891 252.752 89.5328 252.752 89.8335C252.752 90.1342 252.509 90.378 252.21 90.378Z" fill="#212121"/>
<path d="M101.385 89.2885L107.809 71.9046C109.949 66.0222 113.269 60.6367 117.565 56.0773L118.333 55.2607H94.6997L93.9751 56.0271C89.658 60.5965 86.3233 65.9985 84.176 71.9012L80.7063 81.3133C80.7063 81.3133 99.4738 78.8861 98.7787 84.0873C98.6334 85.1742 99.1263 86.1678 92.6966 86.3412C98.4312 87.208 98.4312 89.2885 98.4312 89.2885H101.385Z" fill="#B1CDBA"/>
<path d="M324.444 185.431H21.011C20.6927 185.431 20.4492 185.183 20.4492 184.858C20.4492 184.533 20.6927 184.285 21.011 184.285H324.444C324.763 184.285 325.006 184.533 325.006 184.858C325.006 185.183 324.763 185.431 324.444 185.431Z" fill="#212121"/>
</svg>
